<svg width="353" height="162" viewBox="0 0 353 162" fill="none" xmlns="http://www.w3.org/2000/svg">
<path d="M1.98579 145.353C9.88213 139.33 13.461 131.703 10.9621 122.977L23.6733 146.838C16.5796 148.5 5.72138 150.262 1.96346 149.011C1.59869 148.889 1.28063 148.657 1.05319 148.347C0.446688 147.521 0.625089 146.359 1.45169 145.753L1.98579 145.353Z" fill="#FAFAFA"/>
<rect x="3.0625" y="95.0923" width="345.405" height="64.7025" rx="14.8513" transform="rotate(-15.9803 3.0625 95.0923)" fill="#FAFAFA"/>
<path d="M31.7037 131.464L25.9421 111.345L28.8561 110.511L40.5512 125.325L40.7743 125.261L42.8546 106.502L45.7687 105.667L51.5303 125.787L49.1879 126.457L44.7878 111.093L44.6345 111.136L42.6767 128.322L40.5574 128.929L29.7994 115.385L29.646 115.429L34.0461 130.794L31.7037 131.464ZM51.9671 106.261C51.0468 106.524 50.0783 105.987 49.8148 105.067C49.5513 104.147 50.0886 103.178 51.0088 102.914C51.929 102.651 52.8975 103.188 53.161 104.108C53.4246 105.029 52.8873 105.997 51.9671 106.261ZM55.8749 124.542L51.5706 109.512L53.9966 108.817L58.3009 123.848L55.8749 124.542ZM69.8343 120.545L65.5301 105.515L67.9561 104.82L68.6109 107.106L68.834 107.043C69.0401 105.234 70.1947 103.892 72.1607 103.329C74.1963 102.746 75.9259 103.412 77.0702 104.774L77.2933 104.711C77.6468 102.889 79.0623 101.353 81.1398 100.758C84.2072 99.8793 86.4252 101.145 87.3276 104.296L90.3023 114.683L87.8762 115.378L85.0613 105.548C84.4264 103.332 83.0932 102.522 80.9739 103.129C78.8825 103.727 77.9533 105.698 78.5004 107.608L81.2674 117.271L78.8413 117.965L75.9186 107.759C75.4075 105.975 73.8491 105.169 71.9529 105.712C69.987 106.275 68.9863 108.417 69.5932 110.536L72.2604 119.85L69.8343 120.545ZM98.3478 112.666C95.4895 113.485 92.8333 112.375 92.0507 109.642L92.0427 109.614C91.2761 106.937 92.8128 104.822 96.2525 103.611L100.485 102.112L100.094 100.746C99.5626 98.8914 98.1458 98.2109 95.901 98.8538C94.1024 99.3689 93.1089 100.378 93.0539 101.66L93.0519 101.706L90.6259 102.401L90.6159 102.313C90.3315 99.8453 92.1629 97.601 95.3697 96.6826C99.0367 95.6325 101.625 96.9279 102.52 100.051L105.466 110.341L103.04 111.036L102.406 108.819L102.182 108.883C101.693 110.757 100.37 112.087 98.3478 112.666ZM94.5166 108.875C94.9518 110.395 96.504 110.916 98.2468 110.417C100.715 109.71 102.05 107.578 101.435 105.431L101.044 104.064L97.1003 105.465C94.8536 106.259 94.0813 107.355 94.5086 108.847L94.5166 108.875ZM109.365 109.224L105.061 94.1941L107.487 93.4994L108.133 95.7581L108.356 95.6942C108.654 93.8891 109.795 92.5517 112.012 91.9168C115.386 90.9505 117.839 92.4053 118.861 95.9747L121.648 105.707L119.222 106.401L116.603 97.255C115.828 94.5501 114.342 93.5729 111.943 94.2596C109.545 94.9464 108.489 96.999 109.243 99.6342L111.791 108.53L109.365 109.224ZM131.13 103.278C127.324 104.368 123.945 102.001 122.604 97.3167L122.596 97.2888C121.246 92.5762 122.854 88.812 126.674 87.718C128.738 87.127 130.832 87.6437 132.113 89.0115L132.336 88.9477L129.949 80.6099L132.375 79.9151L138.388 100.913L135.962 101.608L135.275 99.2095L135.052 99.2734C134.611 101.21 133.221 102.679 131.13 103.278ZM131.073 100.971C133.806 100.189 134.864 97.5622 133.87 94.0905L133.862 94.0626C132.867 90.5909 130.579 88.9228 127.847 89.7054C125.1 90.492 124.075 93.0785 125.078 96.5781L125.086 96.606C126.088 100.106 128.326 101.758 131.073 100.971ZM138.657 81.4349C137.737 81.6985 136.769 81.1612 136.505 80.2409C136.242 79.3207 136.779 78.3522 137.699 78.0887C138.619 77.8251 139.588 78.3624 139.851 79.2827C140.115 80.2029 139.578 81.1714 138.657 81.4349ZM142.565 99.7167L138.261 84.6864L140.687 83.9916L144.991 99.0219L142.565 99.7167ZM156.664 95.6791L150.651 74.6813L153.077 73.9866L159.09 94.9844L156.664 95.6791ZM169.422 92.3122C165.128 93.5419 161.672 91.273 160.323 86.5603L160.319 86.5464C158.989 81.9035 160.728 77.9659 164.813 76.796C168.898 75.6261 172.25 77.9549 173.536 82.4444L173.808 83.3925L162.988 86.491C163.948 89.5802 166.182 90.9017 168.859 90.1351C170.895 89.5521 171.874 88.2307 172.019 87.2086L172.039 87.0672L174.465 86.3724L174.469 86.492C174.536 88.6753 172.964 91.298 169.422 92.3122ZM165.418 78.9611C163.187 79.5999 161.921 81.6068 162.475 84.541L170.785 82.1612C169.683 79.2633 167.635 78.3262 165.418 78.9611ZM187.489 86.8518L183.759 73.8293L181.264 74.544L180.689 72.5362L183.184 71.8215L182.705 70.1484C181.847 67.1507 182.941 65.2834 185.8 64.4648C186.385 64.2971 186.927 64.1872 187.457 64.1411L188.012 66.0791C187.703 66.1072 187.295 66.2091 186.863 66.3328C185.134 66.8279 184.68 67.8781 185.151 69.5233L185.611 71.1267L189.026 70.1485L189.601 72.1563L186.185 73.1345L189.915 86.157L187.489 86.8518ZM201.906 83.0097C197.626 84.2355 194.13 82.0382 192.753 77.228L192.745 77.2001C191.363 72.3759 193.17 68.6754 197.45 67.4496C201.731 66.2238 205.222 68.4071 206.604 73.2312L206.612 73.2591C207.989 78.0694 206.187 81.7839 201.906 83.0097ZM201.291 80.8625C204.136 80.0479 205.144 77.5113 204.13 73.9698L204.122 73.942C203.104 70.3866 200.909 68.7822 198.065 69.5967C195.221 70.4113 194.208 72.934 195.226 76.4894L195.234 76.5173C196.249 80.0587 198.447 81.677 201.291 80.8625ZM217.361 78.4179C214.266 79.3043 212.642 78.5323 211.819 75.6601L209.208 66.5415L206.837 67.2203L206.262 65.2126L208.633 64.5338L207.519 60.6438L210.028 59.9251L211.142 63.8151L214.433 62.8728L215.008 64.8805L211.717 65.8228L214.153 74.3279C214.66 76.0986 215.477 76.634 217.039 76.1868C217.471 76.0631 217.704 75.9812 218.138 75.8116L218.729 77.8752C218.279 78.0946 217.835 78.2821 217.361 78.4179ZM227.856 75.5782C223.576 76.804 220.08 74.6068 218.703 69.7965L218.695 69.7687C217.313 64.9445 219.12 61.2439 223.4 60.0181C227.681 58.7923 231.172 60.9756 232.554 65.7998L232.562 65.8277C233.939 70.6379 232.137 74.3524 227.856 75.5782ZM227.241 73.431C230.086 72.6165 231.094 70.0799 230.08 66.5384L230.072 66.5105C229.054 62.9551 226.86 61.3508 224.015 62.1653C221.171 62.9798 220.158 65.5025 221.177 69.0579L221.185 69.0858C222.199 72.6273 224.397 74.2456 227.241 73.431ZM239.379 65.2633L239.012 63.9806C238.471 62.1441 239.004 60.6338 240.586 58.9434C241.92 57.4903 242.296 56.4323 241.873 54.9543L241.865 54.9265C241.374 53.2115 239.672 52.326 237.595 52.9209C235.489 53.5239 234.506 55.1481 234.934 57.1679L234.91 57.1898L232.543 57.8825L232.535 57.8546C231.83 54.813 233.151 51.8399 237.069 50.7179C240.583 49.7117 243.604 51.2 244.422 54.0583L244.43 54.0862C245.053 56.2613 244.367 58.1323 242.89 59.717C241.419 61.2698 241.14 62.1943 241.56 63.6583L241.819 64.5646L239.379 65.2633ZM242.64 71.3295C241.511 71.6529 240.47 71.0758 240.147 69.9464C239.82 68.8031 240.397 67.7629 241.526 67.4395C242.655 67.116 243.682 67.6971 244.009 68.8404C244.333 69.9698 243.769 71.0061 242.64 71.3295Z" fill="black"/>
<path d="M285.188 58.8731L281.776 46.9581L281.623 47.002L278.835 50.5593L278.313 48.738L281.237 45.0382L282.953 44.5469L286.914 58.3789L285.188 58.8731ZM295.187 56.0097L291.775 44.0948L291.621 44.1387L288.834 47.6959L288.312 45.8746L291.235 42.1749L292.951 41.6835L296.912 55.5156L295.187 56.0097ZM300.485 44.3385C299.805 44.5334 299.077 44.1298 298.882 43.4492C298.685 42.759 299.091 42.0411 299.771 41.8462C300.462 41.6486 301.177 42.0453 301.374 42.7355C301.569 43.4161 301.175 44.1408 300.485 44.3385ZM302.61 51.7578C301.929 51.9527 301.202 51.5491 301.007 50.8685C300.809 50.1783 301.216 49.4604 301.896 49.2655C302.586 49.0678 303.302 49.4646 303.499 50.1548C303.694 50.8353 303.3 51.5601 302.61 51.7578ZM314.839 50.3818L314.018 47.5157L307.28 49.4455L306.83 47.8734C307.801 44.2037 308.953 40.2229 310.063 36.7831L312.565 36.0666L315.264 45.4893L317.229 44.9265L317.671 46.4698L315.705 47.0326L316.526 49.8987L314.839 50.3818ZM308.604 47.4067L313.589 45.9793L311.346 38.1478L311.231 38.1807C310.342 40.9452 309.349 44.3205 308.571 47.2917L308.604 47.4067ZM326.685 47.342C324.107 48.0804 321.792 46.9492 320.956 44.7925L320.916 44.6898L322.575 44.215L322.606 44.2889C323.148 45.565 324.648 46.2763 326.268 45.8124C328.109 45.2854 328.998 43.6098 328.462 41.7406L328.457 41.7214C327.93 39.881 326.269 38.9356 324.477 39.4489C323.557 39.7124 322.85 40.2155 322.418 40.9513C322.244 41.2499 322.101 41.5815 322.021 41.9568L320.526 42.385L318.979 34.2299L326.676 32.0256L327.118 33.5689L320.782 35.3834L321.652 40.1957L321.805 40.1518C322.152 39.0463 323.09 38.2281 324.346 37.8684C326.944 37.1245 329.37 38.5351 330.136 41.2095L330.141 41.2287C330.94 44.0181 329.494 46.5377 326.685 47.342Z" fill="black" fill-opacity="0.25"/>
</svg>
