<svg width="24" height="24" viewBox="0 0 24 24" fill="none" xmlns="http://www.w3.org/2000/svg">
<path d="M20.5195 2H3.47656C2.66016 2 2 2.64453 2 3.44141V20.5547C2 21.3516 2.66016 22 3.47656 22H20.5195C21.3359 22 22 21.3516 22 20.5586V3.44141C22 2.64453 21.3359 2 20.5195 2ZM7.93359 19.043H4.96484V9.49609H7.93359V19.043ZM6.44922 8.19532C5.49609 8.19532 4.72657 7.42578 4.72657 6.47656C4.72657 5.52734 5.49609 4.75781 6.44922 4.75781C7.39844 4.75781 8.16797 5.52734 8.16797 6.47656C8.16797 7.42188 7.39844 8.19532 6.44922 8.19532ZM19.043 19.043H16.0781V14.4023C16.0781 13.2968 16.0586 11.8711 14.5352 11.8711C12.9922 11.8711 12.7578 13.0781 12.7578 14.3242V19.043H9.79687V9.49609H12.6406V10.8007H12.6797C13.0743 10.0508 14.043 9.25782 15.4844 9.25782C18.4882 9.25782 19.043 11.2344 19.043 13.8047V19.043Z" fill="white"/>
</svg>
