<svg width="107" height="24" viewBox="0 0 107 24" fill="none" xmlns="http://www.w3.org/2000/svg">
<path d="M20.7181 11.397C20.718 11.397 20.7179 11.3968 20.7181 11.3967C22.7402 10.3594 24.0991 8.21399 23.993 5.76111C23.8591 2.66035 21.3386 0.139711 18.2368 0.00583972C16.6811 -0.061699 15.2483 0.46052 14.1437 1.36868C12.9051 2.38658 11.0925 2.38658 9.85394 1.36868C8.75045 0.46052 7.31773 -0.061699 5.762 0.00583972C2.66019 0.139711 0.139669 2.66035 0.00580361 5.76231C-0.100324 8.21542 1.25883 10.361 3.28128 11.3982C3.77574 11.6515 3.77574 12.3498 3.28128 12.603C1.25883 13.639 -0.100324 15.7858 0.00580361 18.2377C0.139669 21.3384 2.6614 23.8591 5.762 23.9942C7.31773 24.0617 8.75045 23.5395 9.85514 22.6313C11.0937 21.6134 12.9063 21.6134 14.1449 22.6313C15.2495 23.5395 16.6811 24.0617 18.238 23.9942C21.3386 23.8603 23.8591 21.3384 23.9942 18.2377C24.1003 15.7846 22.7412 13.639 20.7187 12.6018C20.2244 12.3486 20.2243 11.6508 20.7182 11.3973C20.7183 11.3972 20.7183 11.397 20.7181 11.397ZM11.4036 15.2346C10.8248 14.0997 9.89856 13.1723 8.76372 12.5946C8.28132 12.3485 8.28132 11.6502 8.76372 11.4042C9.89856 10.8253 10.826 9.89906 11.4036 8.76417C11.6497 8.28175 12.3479 8.28175 12.594 8.76417C13.1728 9.89906 14.099 10.8265 15.2339 11.4042C15.7163 11.6502 15.7163 12.3485 15.2339 12.5946C14.099 13.1735 13.1716 14.0997 12.594 15.2346C12.3479 15.717 11.6497 15.717 11.4036 15.2346Z" fill="url(#paint0_linear_7565_26047)"/>
<path d="M39.7272 1.588V22H36.3672V1.588H39.7272ZM44.4592 13.236H38.7192V10.38H44.2352C45.2618 10.38 46.0458 10.1187 46.5872 9.596C47.1472 9.07333 47.4272 8.336 47.4272 7.384C47.4272 6.488 47.1378 5.79733 46.5592 5.312C45.9992 4.808 45.1872 4.556 44.1232 4.556H38.5232V1.588H44.4032C46.4192 1.588 47.9965 2.08267 49.1352 3.072C50.2925 4.04267 50.8712 5.37733 50.8712 7.076C50.8712 8.308 50.5725 9.344 49.9752 10.184C49.3778 11.024 48.4912 11.6213 47.3152 11.976V11.612C48.5845 11.9107 49.5458 12.48 50.1992 13.32C50.8525 14.1413 51.1792 15.196 51.1792 16.484C51.1792 17.6413 50.9178 18.6307 50.3952 19.452C49.8912 20.2733 49.1445 20.908 48.1552 21.356C47.1658 21.7853 45.9712 22 44.5712 22H38.5232V19.032H44.4592C45.5045 19.032 46.3072 18.78 46.8672 18.276C47.4458 17.7533 47.7352 17.016 47.7352 16.064C47.7352 15.168 47.4458 14.4773 46.8672 13.992C46.3072 13.488 45.5045 13.236 44.4592 13.236ZM64.1834 8.196H67.0954V22H64.0994L63.8754 19.76C63.4274 20.5067 62.7928 21.132 61.9714 21.636C61.1501 22.1213 60.1794 22.364 59.0594 22.364C57.7154 22.364 56.5581 22.0467 55.5874 21.412C54.6168 20.7587 53.8794 19.8813 53.3754 18.78C52.8714 17.66 52.6194 16.3907 52.6194 14.972C52.6194 13.516 52.8901 12.256 53.4314 11.192C53.9728 10.128 54.7288 9.29733 55.6994 8.7C56.6888 8.10267 57.8274 7.804 59.1154 7.804C60.1421 7.804 61.1034 8.028 61.9994 8.476C62.8954 8.90533 63.5581 9.55867 63.9874 10.436L64.1834 8.196ZM63.8194 15.112C63.8194 14.2347 63.6514 13.4693 63.3154 12.816C62.9981 12.1627 62.5408 11.6587 61.9434 11.304C61.3648 10.9307 60.6554 10.744 59.8154 10.744C59.0128 10.744 58.3128 10.9307 57.7154 11.304C57.1181 11.6773 56.6608 12.1907 56.3434 12.844C56.0261 13.4973 55.8674 14.2533 55.8674 15.112C55.8674 15.952 56.0261 16.708 56.3434 17.38C56.6608 18.0333 57.1088 18.5467 57.6874 18.92C58.2848 19.2933 58.9941 19.48 59.8154 19.48C60.6368 19.48 61.3461 19.2933 61.9434 18.92C62.5408 18.5467 62.9981 18.0333 63.3154 17.38C63.6514 16.708 63.8194 15.952 63.8194 15.112ZM73.1213 22H70.1813V1.224H73.3733V10.296C73.8213 9.49333 74.4747 8.87733 75.3333 8.448C76.2107 8 77.1907 7.776 78.2733 7.776C79.58 7.776 80.7 8.09333 81.6333 8.728C82.5853 9.36267 83.3133 10.24 83.8173 11.36C84.34 12.4613 84.6013 13.74 84.6013 15.196C84.6013 16.596 84.3307 17.8373 83.7893 18.92C83.248 20.0027 82.4827 20.852 81.4933 21.468C80.5227 22.0653 79.3747 22.364 78.0493 22.364C77.004 22.364 76.0613 22.14 75.2213 21.692C74.3813 21.2253 73.756 20.5813 73.3453 19.76L73.1213 22ZM73.4013 15.056C73.4013 15.9147 73.56 16.6707 73.8773 17.324C74.2133 17.9773 74.68 18.4907 75.2773 18.864C75.8933 19.2373 76.6027 19.424 77.4053 19.424C78.2453 19.424 78.9547 19.2373 79.5333 18.864C80.112 18.4907 80.56 17.9773 80.8773 17.324C81.1947 16.6707 81.3533 15.9147 81.3533 15.056C81.3533 14.1973 81.1947 13.4413 80.8773 12.788C80.56 12.1347 80.112 11.6213 79.5333 11.248C78.9547 10.8747 78.2453 10.688 77.4053 10.688C76.6027 10.688 75.8933 10.8747 75.2773 11.248C74.68 11.6027 74.2133 12.1067 73.8773 12.76C73.56 13.4133 73.4013 14.1787 73.4013 15.056ZM85.9525 15.084C85.9525 13.6467 86.2699 12.3867 86.9045 11.304C87.5392 10.2027 88.4072 9.344 89.5085 8.728C90.6285 8.112 91.8885 7.804 93.2885 7.804C94.7072 7.804 95.9672 8.112 97.0685 8.728C98.1699 9.344 99.0379 10.2027 99.6725 11.304C100.307 12.3867 100.625 13.6467 100.625 15.084C100.625 16.5027 100.307 17.7627 99.6725 18.864C99.0379 19.9467 98.1699 20.796 97.0685 21.412C95.9672 22.028 94.7072 22.336 93.2885 22.336C91.8885 22.336 90.6285 22.028 89.5085 21.412C88.4072 20.796 87.5392 19.9467 86.9045 18.864C86.2699 17.7627 85.9525 16.5027 85.9525 15.084ZM89.2005 15.056C89.2005 15.9333 89.3685 16.708 89.7045 17.38C90.0592 18.0333 90.5445 18.5467 91.1605 18.92C91.7765 19.2747 92.4859 19.452 93.2885 19.452C94.1099 19.452 94.8192 19.2747 95.4165 18.92C96.0325 18.5467 96.5085 18.0333 96.8445 17.38C97.1992 16.708 97.3765 15.9333 97.3765 15.056C97.3765 14.1973 97.1992 13.4413 96.8445 12.788C96.5085 12.1347 96.0325 11.6213 95.4165 11.248C94.8192 10.8747 94.1099 10.688 93.2885 10.688C92.4859 10.688 91.7765 10.8747 91.1605 11.248C90.5445 11.6213 90.0592 12.1347 89.7045 12.788C89.3685 13.4413 89.2005 14.1973 89.2005 15.056ZM106.079 22H102.859V1.224H106.079V22Z" fill="url(#paint1_linear_7565_26047)"/>
<defs>
<linearGradient id="paint0_linear_7565_26047" x1="21.592" y1="0.64603" x2="15.0509" y2="24.8254" gradientUnits="userSpaceOnUse">
<stop stop-color="#B3B1BB"/>
<stop offset="1" stop-color="#9C9C9C"/>
</linearGradient>
<linearGradient id="paint1_linear_7565_26047" x1="100.575" y1="2.53836" x2="99.0028" y2="24.0474" gradientUnits="userSpaceOnUse">
<stop stop-color="#B3B1BB"/>
<stop offset="1" stop-color="#9C9C9C"/>
</linearGradient>
</defs>
</svg>
