<svg width="316" height="80" viewBox="0 0 316 80" fill="none" xmlns="http://www.w3.org/2000/svg">
<g filter="url(#filter0_bi_421_19220)">
<rect width="79.8922" height="80" rx="18.4647" fill="url(#paint0_linear_421_19220)"/>
<g filter="url(#filter1_bi_421_19220)">
<path d="M57.3587 38.7939C57.3584 38.7939 57.3583 38.7935 57.3585 38.7934C61.3974 36.7188 64.1115 32.428 63.8996 27.5222C63.6322 21.3207 58.598 16.2794 52.4027 16.0117C49.2954 15.8766 46.4339 16.921 44.2275 18.7374C41.7537 20.7732 38.1334 20.7732 35.6596 18.7374C33.4556 16.921 30.594 15.8766 27.4868 16.0117C21.2915 16.2794 16.2572 21.3207 15.9899 27.5246C15.7779 32.4308 18.4925 36.722 22.532 38.7964C23.5196 39.3029 23.5196 40.6995 22.532 41.206C18.4925 43.278 15.7779 47.5716 15.9899 52.4754C16.2572 58.6769 21.2939 63.7182 27.4868 63.9883C30.594 64.1234 33.4556 63.079 35.662 61.2626C38.1358 59.2268 41.7561 59.2268 44.2299 61.2626C46.4363 63.079 49.2954 64.1234 52.4051 63.9883C58.598 63.7206 63.6322 58.6769 63.902 52.4754C64.114 47.5692 61.3993 43.278 57.3599 41.2036C56.3727 40.6973 56.3723 39.3015 57.3588 38.7945C57.3591 38.7944 57.359 38.7939 57.3587 38.7939ZM38.7548 46.4692C37.5986 44.1995 35.7487 42.3446 33.4821 41.1892C32.5186 40.6971 32.5186 39.3005 33.4821 38.8084C35.7487 37.6506 37.601 35.7981 38.7548 33.5283C39.2462 32.5635 40.6409 32.5635 41.1322 33.5283C42.2884 35.7981 44.1383 37.653 46.405 38.8084C47.3684 39.3005 47.3684 40.6971 46.405 41.1892C44.1383 42.347 42.286 44.1995 41.1322 46.4692C40.6409 47.4341 39.2462 47.4341 38.7548 46.4692Z" fill="url(#paint1_linear_421_19220)"/>
</g>
</g>
<path d="M116.124 10.5744V70H106.342V10.5744H116.124ZM129.9 44.4853H113.189V36.1706H129.248C132.237 36.1706 134.519 35.4098 136.095 33.8881C137.726 32.3665 138.541 30.2199 138.541 27.4483C138.541 24.8398 137.698 22.8291 136.014 21.4161C134.383 19.9488 132.019 19.2152 128.922 19.2152H112.618V10.5744H129.737C135.606 10.5744 140.198 12.0145 143.513 14.8948C146.883 17.7207 148.567 21.6063 148.567 26.5516C148.567 30.1384 147.698 33.1545 145.959 35.6C144.22 38.0455 141.638 39.7845 138.215 40.8171V39.7573C141.91 40.6268 144.709 42.2844 146.611 44.7299C148.513 47.121 149.464 50.1915 149.464 53.9412C149.464 57.3106 148.703 60.1908 147.181 62.582C145.714 64.9731 143.54 66.8209 140.66 68.1251C137.78 69.375 134.302 70 130.226 70H112.618V61.3592H129.9C132.943 61.3592 135.28 60.6256 136.91 59.1583C138.595 57.6366 139.437 55.49 139.437 52.7185C139.437 50.1099 138.595 48.0992 136.91 46.6863C135.28 45.219 132.943 44.4853 129.9 44.4853ZM187.323 29.8123H195.801V70H187.079L186.427 63.4787C185.122 65.6524 183.275 67.473 180.883 68.9403C178.492 70.3532 175.666 71.0597 172.406 71.0597C168.493 71.0597 165.124 70.1359 162.298 68.2882C159.472 66.3861 157.325 63.8319 155.858 60.6256C154.391 57.3649 153.657 53.6695 153.657 49.5393C153.657 45.3005 154.445 41.6322 156.021 38.5346C157.597 35.437 159.798 33.0186 162.624 31.2796C165.504 29.5406 168.819 28.6711 172.569 28.6711C175.558 28.6711 178.356 29.3232 180.965 30.6275C183.574 31.8774 185.503 33.7795 186.753 36.3336L187.323 29.8123ZM186.264 49.9469C186.264 47.3927 185.774 45.1646 184.796 43.2626C183.872 41.3605 182.541 39.8932 180.802 38.8607C179.117 37.7738 177.052 37.2303 174.607 37.2303C172.27 37.2303 170.232 37.7738 168.493 38.8607C166.754 39.9475 165.423 41.442 164.499 43.3441C163.575 45.2461 163.113 47.4471 163.113 49.9469C163.113 52.3924 163.575 54.5934 164.499 56.5498C165.423 58.4518 166.727 59.9463 168.411 61.0332C170.15 62.1201 172.216 62.6635 174.607 62.6635C176.998 62.6635 179.063 62.1201 180.802 61.0332C182.541 59.9463 183.872 58.4518 184.796 56.5498C185.774 54.5934 186.264 52.3924 186.264 49.9469ZM213.344 70H204.785V9.51468H214.078V35.9261C215.382 33.5892 217.284 31.7959 219.784 30.546C222.338 29.2417 225.191 28.5896 228.343 28.5896C232.147 28.5896 235.408 29.5134 238.125 31.3611C240.897 33.2088 243.016 35.763 244.484 39.0237C246.005 42.23 246.766 45.9526 246.766 50.1915C246.766 54.2673 245.978 57.8812 244.402 61.0332C242.826 64.1851 240.598 66.6578 237.718 68.4512C234.892 70.1902 231.55 71.0597 227.691 71.0597C224.648 71.0597 221.904 70.4076 219.458 69.1033C217.013 67.7447 215.192 65.8698 213.996 63.4787L213.344 70ZM214.159 49.7839C214.159 52.2837 214.621 54.4847 215.545 56.3867C216.523 58.2888 217.882 59.7833 219.621 60.8701C221.414 61.957 223.48 62.5005 225.816 62.5005C228.262 62.5005 230.327 61.957 232.012 60.8701C233.696 59.7833 235.001 58.2888 235.924 56.3867C236.848 54.4847 237.31 52.2837 237.31 49.7839C237.31 47.284 236.848 45.0831 235.924 43.181C235.001 41.279 233.696 39.7845 232.012 38.6976C230.327 37.6107 228.262 37.0673 225.816 37.0673C223.48 37.0673 221.414 37.6107 219.621 38.6976C217.882 39.7302 216.523 41.1975 215.545 43.0995C214.621 45.0016 214.159 47.2297 214.159 49.7839ZM250.7 49.8654C250.7 45.6809 251.624 42.0126 253.471 38.8607C255.319 35.6543 257.846 33.1545 261.053 31.3611C264.313 29.5678 267.981 28.6711 272.057 28.6711C276.187 28.6711 279.856 29.5678 283.062 31.3611C286.268 33.1545 288.795 35.6543 290.643 38.8607C292.491 42.0126 293.415 45.6809 293.415 49.8654C293.415 53.9956 292.491 57.6638 290.643 60.8701C288.795 64.0221 286.268 66.4948 283.062 68.2882C279.856 70.0815 276.187 70.9782 272.057 70.9782C267.981 70.9782 264.313 70.0815 261.053 68.2882C257.846 66.4948 255.319 64.0221 253.471 60.8701C251.624 57.6638 250.7 53.9956 250.7 49.8654ZM260.156 49.7839C260.156 52.3381 260.645 54.5934 261.623 56.5498C262.656 58.4518 264.069 59.9463 265.862 61.0332C267.655 62.0657 269.72 62.582 272.057 62.582C274.448 62.582 276.514 62.0657 278.253 61.0332C280.046 59.9463 281.432 58.4518 282.41 56.5498C283.442 54.5934 283.959 52.3381 283.959 49.7839C283.959 47.284 283.442 45.0831 282.41 43.181C281.432 41.279 280.046 39.7845 278.253 38.6976C276.514 37.6107 274.448 37.0673 272.057 37.0673C269.72 37.0673 267.655 37.6107 265.862 38.6976C264.069 39.7845 262.656 41.279 261.623 43.181C260.645 45.0831 260.156 47.284 260.156 49.7839ZM309.294 70H299.919V9.51468H309.294V70Z" fill="#F8F8F8"/>
<defs>
<filter id="filter0_bi_421_19220" x="-1.954" y="-1.954" width="83.8001" height="83.908" filterUnits="userSpaceOnUse" color-interpolation-filters="sRGB">
<feFlood flood-opacity="0" result="BackgroundImageFix"/>
<feGaussianBlur in="BackgroundImageFix" stdDeviation="0.977002"/>
<feComposite in2="SourceAlpha" operator="in" result="effect1_backgroundBlur_421_19220"/>
<feBlend mode="normal" in="SourceGraphic" in2="effect1_backgroundBlur_421_19220" result="shape"/>
<feColorMatrix in="SourceAlpha" type="matrix" values="0 0 0 0 0 0 0 0 0 0 0 0 0 0 0 0 0 0 127 0" result="hardAlpha"/>
<feOffset dy="0.273942"/>
<feGaussianBlur stdDeviation="0.124519"/>
<feComposite in2="hardAlpha" operator="arithmetic" k2="-1" k3="1"/>
<feColorMatrix type="matrix" values="0 0 0 0 1 0 0 0 0 1 0 0 0 0 1 0 0 0 1 0"/>
<feBlend mode="normal" in2="shape" result="effect2_innerShadow_421_19220"/>
</filter>
<filter id="filter1_bi_421_19220" x="15.6397" y="15.6614" width="48.6125" height="48.6772" filterUnits="userSpaceOnUse" color-interpolation-filters="sRGB">
<feFlood flood-opacity="0" result="BackgroundImageFix"/>
<feGaussianBlur in="BackgroundImageFix" stdDeviation="0.169295"/>
<feComposite in2="SourceAlpha" operator="in" result="effect1_backgroundBlur_421_19220"/>
<feBlend mode="normal" in="SourceGraphic" in2="effect1_backgroundBlur_421_19220" result="shape"/>
<feColorMatrix in="SourceAlpha" type="matrix" values="0 0 0 0 0 0 0 0 0 0 0 0 0 0 0 0 0 0 127 0" result="hardAlpha"/>
<feOffset dy="0.0777543"/>
<feGaussianBlur stdDeviation="0.0388772"/>
<feComposite in2="hardAlpha" operator="arithmetic" k2="-1" k3="1"/>
<feColorMatrix type="matrix" values="0 0 0 0 1 0 0 0 0 1 0 0 0 0 1 0 0 0 1 0"/>
<feBlend mode="normal" in2="shape" result="effect2_innerShadow_421_19220"/>
</filter>
<linearGradient id="paint0_linear_421_19220" x1="74.8107" y1="72.8571" x2="-30.2169" y2="26.295" gradientUnits="userSpaceOnUse">
<stop stop-color="white" stop-opacity="0.9"/>
<stop offset="1" stop-color="white" stop-opacity="0.4"/>
</linearGradient>
<linearGradient id="paint1_linear_421_19220" x1="60.8647" y1="59.7143" x2="-2.15185" y2="31.777" gradientUnits="userSpaceOnUse">
<stop stop-color="#5831F5" stop-opacity="0.8"/>
<stop offset="1" stop-color="#3B1CB9" stop-opacity="0.9"/>
</linearGradient>
</defs>
</svg>
