<svg width="18" height="18" viewBox="0 0 18 18" fill="none" xmlns="http://www.w3.org/2000/svg">
<path d="M15.5381 8.54773C17.055 7.76983 18.0743 6.16066 17.9947 4.32083C17.8943 1.99527 16.004 0.104783 13.6776 0.00437979C12.5108 -0.0462743 11.4363 0.34539 10.6077 1.02651C9.67882 1.78994 8.31937 1.78994 7.39045 1.02651C6.56284 0.34539 5.4883 -0.0462743 4.3215 0.00437979C1.99514 0.104783 0.104752 1.99527 0.00435271 4.32173C-0.0752428 6.16156 0.944122 7.77073 2.46096 8.54864C2.8318 8.73859 2.8318 9.26232 2.46096 9.45227C0.944122 10.2293 -0.0752428 11.8393 0.00435271 13.6783C0.104752 16.0038 1.99605 17.8943 4.3215 17.9956C5.4883 18.0463 6.56284 17.6546 7.39136 16.9735C8.32027 16.2101 9.67973 16.2101 10.6086 16.9735C11.4372 17.6546 12.5108 18.0463 13.6785 17.9956C16.004 17.8952 17.8943 16.0038 17.9956 13.6783C18.0752 11.8384 17.0559 10.2293 15.539 9.45136C15.1682 9.26141 15.1682 8.73768 15.539 8.54773H15.5381ZM8.55273 11.426C8.11857 10.5748 7.42392 9.87921 6.57279 9.44594C6.21099 9.26141 6.21099 8.73769 6.57279 8.55316C7.42392 8.11898 8.11947 7.4243 8.55273 6.57313C8.73724 6.21131 9.26095 6.21131 9.44546 6.57313C9.87962 7.4243 10.5743 8.11989 11.4254 8.55316C11.7872 8.73769 11.7872 9.26141 11.4254 9.44594C10.5743 9.88011 9.87872 10.5748 9.44546 11.426C9.26095 11.7878 8.73724 11.7878 8.55273 11.426Z" fill="#101011"/>
</svg>
