<svg width="80" height="80" viewBox="0 0 80 80" fill="none" xmlns="http://www.w3.org/2000/svg">
<g filter="url(#filter0_bi_421_19221)">
<rect width="79.8922" height="80" rx="18.4647" fill="url(#paint0_linear_421_19221)"/>
<g filter="url(#filter1_bi_421_19221)">
<path d="M57.3587 38.7939C57.3584 38.7939 57.3583 38.7935 57.3585 38.7934C61.3974 36.7188 64.1115 32.428 63.8996 27.5222C63.6322 21.3207 58.598 16.2794 52.4027 16.0117C49.2954 15.8766 46.4339 16.921 44.2275 18.7374C41.7537 20.7732 38.1334 20.7732 35.6596 18.7374C33.4556 16.921 30.594 15.8766 27.4868 16.0117C21.2915 16.2794 16.2572 21.3207 15.9899 27.5246C15.7779 32.4308 18.4925 36.722 22.532 38.7964C23.5196 39.3029 23.5196 40.6995 22.532 41.206C18.4925 43.278 15.7779 47.5716 15.9899 52.4754C16.2572 58.6769 21.2939 63.7182 27.4868 63.9883C30.594 64.1234 33.4556 63.079 35.662 61.2626C38.1358 59.2268 41.7561 59.2268 44.2299 61.2626C46.4363 63.079 49.2954 64.1234 52.4051 63.9883C58.598 63.7206 63.6322 58.6769 63.902 52.4754C64.114 47.5692 61.3993 43.278 57.3599 41.2036C56.3727 40.6973 56.3723 39.3015 57.3588 38.7945C57.3591 38.7944 57.359 38.7939 57.3587 38.7939ZM38.7548 46.4692C37.5986 44.1995 35.7487 42.3446 33.4821 41.1892C32.5186 40.6971 32.5186 39.3005 33.4821 38.8084C35.7487 37.6506 37.601 35.7981 38.7548 33.5283C39.2462 32.5635 40.6409 32.5635 41.1322 33.5283C42.2884 35.7981 44.1383 37.653 46.405 38.8084C47.3684 39.3005 47.3684 40.6971 46.405 41.1892C44.1383 42.347 42.286 44.1995 41.1322 46.4692C40.6409 47.4341 39.2462 47.4341 38.7548 46.4692Z" fill="url(#paint1_linear_421_19221)"/>
</g>
</g>
<defs>
<filter id="filter0_bi_421_19221" x="-1.954" y="-1.954" width="83.8001" height="83.908" filterUnits="userSpaceOnUse" color-interpolation-filters="sRGB">
<feFlood flood-opacity="0" result="BackgroundImageFix"/>
<feGaussianBlur in="BackgroundImageFix" stdDeviation="0.977002"/>
<feComposite in2="SourceAlpha" operator="in" result="effect1_backgroundBlur_421_19221"/>
<feBlend mode="normal" in="SourceGraphic" in2="effect1_backgroundBlur_421_19221" result="shape"/>
<feColorMatrix in="SourceAlpha" type="matrix" values="0 0 0 0 0 0 0 0 0 0 0 0 0 0 0 0 0 0 127 0" result="hardAlpha"/>
<feOffset dy="0.273942"/>
<feGaussianBlur stdDeviation="0.124519"/>
<feComposite in2="hardAlpha" operator="arithmetic" k2="-1" k3="1"/>
<feColorMatrix type="matrix" values="0 0 0 0 1 0 0 0 0 1 0 0 0 0 1 0 0 0 1 0"/>
<feBlend mode="normal" in2="shape" result="effect2_innerShadow_421_19221"/>
</filter>
<filter id="filter1_bi_421_19221" x="15.6397" y="15.6614" width="48.6125" height="48.6772" filterUnits="userSpaceOnUse" color-interpolation-filters="sRGB">
<feFlood flood-opacity="0" result="BackgroundImageFix"/>
<feGaussianBlur in="BackgroundImageFix" stdDeviation="0.169295"/>
<feComposite in2="SourceAlpha" operator="in" result="effect1_backgroundBlur_421_19221"/>
<feBlend mode="normal" in="SourceGraphic" in2="effect1_backgroundBlur_421_19221" result="shape"/>
<feColorMatrix in="SourceAlpha" type="matrix" values="0 0 0 0 0 0 0 0 0 0 0 0 0 0 0 0 0 0 127 0" result="hardAlpha"/>
<feOffset dy="0.0777543"/>
<feGaussianBlur stdDeviation="0.0388772"/>
<feComposite in2="hardAlpha" operator="arithmetic" k2="-1" k3="1"/>
<feColorMatrix type="matrix" values="0 0 0 0 1 0 0 0 0 1 0 0 0 0 1 0 0 0 1 0"/>
<feBlend mode="normal" in2="shape" result="effect2_innerShadow_421_19221"/>
</filter>
<linearGradient id="paint0_linear_421_19221" x1="74.8107" y1="72.8571" x2="-30.2169" y2="26.295" gradientUnits="userSpaceOnUse">
<stop stop-color="white" stop-opacity="0.9"/>
<stop offset="1" stop-color="white" stop-opacity="0.4"/>
</linearGradient>
<linearGradient id="paint1_linear_421_19221" x1="60.8647" y1="59.7143" x2="-2.15185" y2="31.777" gradientUnits="userSpaceOnUse">
<stop stop-color="#5831F5" stop-opacity="0.8"/>
<stop offset="1" stop-color="#3B1CB9" stop-opacity="0.9"/>
</linearGradient>
</defs>
</svg>
