<svg width="301" height="174" viewBox="0 0 301 174" fill="none" xmlns="http://www.w3.org/2000/svg">
<g filter="url(#filter0_bi_68_403)">
<path d="M14.5463 28.6098C16.6312 13.3279 30.7097 2.62958 45.9916 4.71445L256.916 33.4904C272.198 35.5753 282.897 49.6539 280.812 64.9358L275.639 102.848C273.555 118.13 259.476 128.828 244.194 126.743L33.2693 97.9672C17.9874 95.8823 7.28916 81.8037 9.37404 66.5218L14.5463 28.6098Z" fill="#1D2025"/>
<path d="M34.549 45.702L32.1117 45.3695L34.0409 31.2289L36.4975 31.5641L42.3308 43.6898L41.6151 43.5921L43.1326 32.4693L45.5699 32.8018L43.6408 46.9423L41.2034 46.6098L35.3481 34.5008L36.0639 34.5985L34.549 45.702ZM46.5162 42.448C46.6517 41.455 46.9896 40.6144 47.5302 39.9263C48.0724 39.2252 48.7595 38.7147 49.5913 38.3947C50.4231 38.0747 51.3291 37.9816 52.3092 38.1153C53.3022 38.2507 54.1501 38.5832 54.8529 39.1125C55.5686 39.6437 56.0938 40.3196 56.4284 41.1403C56.7648 41.948 56.8653 42.8484 56.7298 43.8414C56.5944 44.8344 56.2555 45.6815 55.7132 46.3825C55.1727 47.0706 54.4866 47.5747 53.6547 47.8947C52.8358 48.2165 51.9299 48.3096 50.9369 48.1742C49.9568 48.0405 49.1089 47.708 48.3932 47.1769C47.6774 46.6458 47.1514 45.9763 46.815 45.1685C46.4803 44.3478 46.3807 43.441 46.5162 42.448ZM48.8762 42.77C48.797 43.3503 48.8436 43.8755 49.0159 44.3457C49.2011 44.8176 49.4768 45.2033 49.8432 45.5028C50.2224 45.8042 50.6829 45.9918 51.2245 46.0657C51.7661 46.1396 52.26 46.0822 52.7061 45.8934C53.1522 45.7047 53.5212 45.4069 53.8132 45.0001C54.1051 44.5933 54.2907 44.0998 54.3699 43.5195C54.4508 42.9263 54.4042 42.401 54.2302 41.9438C54.0579 41.4736 53.7821 41.0879 53.4028 40.7866C53.0236 40.4853 52.5631 40.2977 52.0215 40.2238C51.4799 40.1499 50.986 40.2073 50.5399 40.396C50.1067 40.5865 49.7377 40.8843 49.4328 41.2893C49.1426 41.6832 48.9571 42.1768 48.8762 42.77ZM65.3457 49.9035L63.1598 49.6053L65.1233 35.2133L67.4833 35.5353L66.6335 41.764C67.0169 41.2646 67.5245 40.9135 68.1565 40.7108C68.7901 40.4951 69.4745 40.4374 70.2096 40.5377C71.1252 40.6626 71.8755 40.9883 72.4605 41.5147C73.0601 42.03 73.4813 42.6983 73.7239 43.5195C73.9794 44.3426 74.0377 45.2635 73.8987 46.2823C73.7668 47.2495 73.4628 48.0815 72.9867 48.7785C72.5107 49.4754 71.9019 49.9901 71.1604 50.3224C70.4206 50.6418 69.5929 50.7391 68.6773 50.6142C67.968 50.5174 67.3443 50.2747 66.8062 49.886C66.281 49.4991 65.9135 49.0155 65.7037 48.4351L65.3457 49.9035ZM66.1963 45.1132C66.1188 45.6806 66.159 46.205 66.3166 46.6863C66.476 47.1546 66.7389 47.5386 67.1053 47.8382C67.4863 48.1266 67.9476 48.3078 68.4892 48.3816C69.0438 48.4573 69.5376 48.3999 69.9708 48.2094C70.404 48.0189 70.7537 47.7185 71.0199 47.3082C71.286 46.8979 71.4578 46.409 71.5352 45.8416C71.6126 45.2742 71.5781 44.7571 71.4316 44.2905C71.285 43.8239 71.0286 43.4408 70.6623 43.1413C70.2977 42.8288 69.8381 42.6347 69.2836 42.5591C68.742 42.4852 68.2472 42.5491 67.7993 42.7507C67.3661 42.9412 67.01 43.2407 66.731 43.6492C66.4537 44.0449 66.2754 44.5329 66.1963 45.1132ZM77.9458 51.8786C76.9399 51.7414 76.1773 51.3615 75.658 50.739C75.1533 50.1052 74.9617 49.3435 75.083 48.4537C75.2027 47.5767 75.6007 46.9217 76.2772 46.4885C76.9684 46.0442 77.8875 45.8544 79.0347 45.9189L81.9293 46.0774L81.9583 45.8646C82.0181 45.4261 81.9818 45.0665 81.8494 44.7857C81.7316 44.4938 81.5323 44.2696 81.2515 44.113C80.9725 43.9436 80.6331 43.8316 80.2333 43.7771C79.5369 43.6821 78.9824 43.7509 78.5697 43.9836C78.1588 44.2034 77.919 44.5648 77.8504 45.0677L75.8386 44.7932C75.9336 44.0969 76.1895 43.5209 76.6063 43.0655C77.0378 42.5989 77.5953 42.2678 78.2788 42.072C78.9752 41.878 79.7489 41.8391 80.6001 41.9552C81.4641 42.0731 82.1845 42.329 82.7613 42.723C83.3399 43.104 83.7554 43.6205 84.008 44.2723C84.2624 44.9113 84.3289 45.6757 84.2075 46.5655L83.4158 52.3687L81.346 52.0864L81.3645 50.6505C81.0913 51.1124 80.637 51.4576 80.0016 51.6862C79.379 51.9165 78.6937 51.9807 77.9458 51.8786ZM78.943 50.2019C79.6781 50.3022 80.2865 50.175 80.7684 49.8204C81.2632 49.4676 81.5607 48.9236 81.661 48.1885L81.7296 47.6856L79.716 47.5685C78.9722 47.5327 78.4288 47.6162 78.0858 47.819C77.7447 48.0089 77.5477 48.2973 77.4949 48.6842C77.4368 49.1098 77.5347 49.4515 77.7885 49.7094C78.0423 49.9674 78.4271 50.1315 78.943 50.2019ZM87.9201 52.9833L85.7342 52.685L87.6976 38.2931L90.0576 38.615L89.2078 44.8438C89.5912 44.3444 90.0989 43.9933 90.7308 43.7905C91.3645 43.5749 92.0489 43.5172 92.784 43.6174C93.6996 43.7424 94.4499 44.068 95.0349 44.5945C95.6345 45.1098 96.0556 45.778 96.2983 46.5993C96.5538 47.4223 96.6121 48.3432 96.4731 49.362C96.3411 50.3292 96.0371 51.1613 95.5611 51.8583C95.0851 52.5552 94.4763 53.0698 93.7347 53.4022C92.9949 53.7216 92.1672 53.8188 91.2516 53.6939C90.5423 53.5972 89.9186 53.3544 89.3806 52.9658C88.8553 52.5788 88.4878 52.0952 88.278 51.5149L87.9201 52.9833ZM88.7706 48.193C88.6932 48.7604 88.7333 49.2848 88.891 49.766C89.0504 50.2344 89.3133 50.6184 89.6796 50.9179C90.0606 51.2064 90.522 51.3875 91.0636 51.4614C91.6181 51.5371 92.112 51.4797 92.5452 51.2892C92.9784 51.0987 93.3281 50.7983 93.5942 50.388C93.8604 49.9777 94.0322 49.4888 94.1096 48.9214C94.187 48.3539 94.1524 47.8369 94.0059 47.3703C93.8594 46.9037 93.603 46.5206 93.2366 46.221C92.872 45.9086 92.4125 45.7145 91.858 45.6389C91.3163 45.565 90.8216 45.6288 90.3737 45.8304C89.9405 46.0209 89.5844 46.3205 89.3053 46.729C89.028 47.1247 88.8498 47.6127 88.7706 48.193ZM97.8044 49.4451C97.9399 48.4521 98.2779 47.6116 98.8184 46.9234C99.3606 46.2224 100.048 45.7118 100.879 45.3918C101.711 45.0718 102.617 44.9787 103.597 45.1124C104.59 45.2479 105.438 45.5803 106.141 46.1097C106.857 46.6408 107.382 47.3167 107.717 48.1374C108.053 48.9452 108.154 49.8456 108.018 50.8386C107.883 51.8316 107.544 52.6786 107.001 53.3796C106.461 54.0678 105.775 54.5719 104.943 54.8919C104.124 55.2136 103.218 55.3068 102.225 55.1713C101.245 55.0376 100.397 54.7052 99.6814 54.174C98.9657 53.6429 98.4396 52.9734 98.1032 52.1657C97.7685 51.345 97.6689 50.4381 97.8044 49.4451ZM100.164 49.7671C100.085 50.3474 100.132 50.8727 100.304 51.3428C100.489 51.8147 100.765 52.2004 101.131 52.5C101.511 52.8013 101.971 52.9889 102.513 53.0628C103.054 53.1367 103.548 53.0793 103.994 52.8906C104.44 52.7018 104.809 52.4041 105.101 51.9973C105.393 51.5905 105.579 51.0969 105.658 50.5166C105.739 49.9234 105.692 49.3982 105.518 48.9409C105.346 48.4708 105.07 48.0851 104.691 47.7837C104.312 47.4824 103.851 47.2948 103.31 47.2209C102.768 47.147 102.274 47.2044 101.828 47.3931C101.395 47.5836 101.026 47.8814 100.721 48.2864C100.431 48.6803 100.245 49.1739 100.164 49.7671ZM111.614 56.2157L109.273 55.8964L111.236 41.5044L113.577 41.8237L111.614 56.2157ZM28.748 63.237C28.8817 62.2569 29.2003 61.4137 29.7039 60.7074C30.2204 60.0028 30.8623 59.4861 31.6296 59.1573C32.4116 58.8174 33.2733 58.7116 34.2148 58.84C35.5173 59.0177 36.5346 59.5046 37.2667 60.3007C38.0134 61.0857 38.373 62.0608 38.3453 63.2262L35.9854 62.9042C35.9174 62.3432 35.7085 61.9009 35.3585 61.5773C35.0232 61.2426 34.5719 61.0365 34.0045 60.9591C33.5144 60.8922 33.0592 60.9549 32.6389 61.1472C32.2333 61.3283 31.8974 61.624 31.6312 62.0343C31.3651 62.4446 31.1906 62.9528 31.1079 63.559C31.0253 64.1651 31.0507 64.7006 31.1843 65.1654C31.318 65.6303 31.5486 66.0098 31.8763 66.3041C32.2186 66.5873 32.6412 66.7632 33.1442 66.8318C33.7374 66.9127 34.2468 66.8377 34.6724 66.6068C35.1109 66.3776 35.4306 66.0074 35.6317 65.4963L38.0111 65.8209C37.8058 66.5548 37.4517 67.1764 36.9488 67.6858C36.4604 68.184 35.8654 68.5495 35.1638 68.7822C34.4638 69.0019 33.6947 69.0546 32.8565 68.9403C31.8893 68.8083 31.0728 68.4867 30.4069 67.9755C29.7428 67.4515 29.2618 66.7882 28.9641 65.9856C28.681 65.172 28.609 64.2558 28.748 63.237ZM47.0739 60.8899L49.4339 61.2119L48.1302 70.7679L45.9443 70.4697L45.9444 69.1692C45.5991 69.5819 45.1234 69.8913 44.5172 70.0976C43.9111 70.3039 43.2856 70.3631 42.6408 70.2751C41.5447 70.1256 40.7346 69.6604 40.2106 68.8796C39.6866 68.0987 39.5037 67.128 39.6621 65.9673L40.4776 59.99L42.8375 60.312L42.1355 65.4575C42.0124 66.3602 42.0976 67.0352 42.3913 67.4825C42.6849 67.9298 43.1606 68.1983 43.8183 68.288C44.5663 68.3901 45.1507 68.2465 45.5716 67.8573C45.9943 67.4552 46.2672 66.8028 46.3904 65.9001L47.0739 60.8899ZM57.8733 62.3239L57.5751 64.5097L56.7046 64.391C55.8406 64.2731 55.1318 64.4129 54.5785 64.8103C54.0268 65.1948 53.6877 65.8513 53.561 66.7798L52.9276 71.4224L50.5677 71.1004L51.8687 61.5638L54.0933 61.8673L54.0175 63.8668L53.7854 63.8351C54.0006 63.2208 54.374 62.7463 54.9057 62.4116C55.4374 62.0769 56.0837 61.9615 56.8445 62.0653C57.0122 62.0882 57.179 62.1175 57.3449 62.1533C57.5107 62.189 57.6869 62.2459 57.8733 62.3239ZM65.4673 63.3599L65.1691 65.5458L64.2986 65.427C63.4346 65.3092 62.7259 65.4489 62.1725 65.8463C61.6209 66.2308 61.2817 66.8873 61.1551 67.8158L60.5217 72.4584L58.1617 72.1365L59.4628 62.5998L61.6873 62.9033L61.6116 64.9028L61.3795 64.8711C61.5946 64.2568 61.9681 63.7823 62.4998 63.4477C63.0315 63.113 63.6777 62.9975 64.4386 63.1013C64.6062 63.1242 64.773 63.1535 64.9389 63.1893C65.1048 63.2251 65.2809 63.2819 65.4673 63.3599ZM69.6754 73.9634C68.7339 73.835 67.9247 73.5078 67.2477 72.982C66.5854 72.445 66.0989 71.7743 65.7882 70.9701C65.4794 70.1529 65.3918 69.2543 65.5255 68.2742C65.661 67.2812 65.9805 66.4315 66.4841 65.7252C66.9877 65.0189 67.6296 64.5022 68.4098 64.1751C69.1918 63.8352 70.0471 63.7286 70.9756 63.8552C71.9428 63.9872 72.7464 64.307 73.3865 64.8147C74.0283 65.3095 74.487 65.9435 74.7625 66.7167C75.0508 67.4916 75.1264 68.382 74.9891 69.3879L74.8915 70.1037L66.687 69.004L66.9315 67.5005L72.7541 68.2948C72.8438 67.6371 72.7032 67.0794 72.3321 66.6215C71.974 66.1655 71.4403 65.889 70.731 65.7923C70.1765 65.7166 69.6899 65.7685 69.2714 65.9478C68.8657 66.1289 68.5345 66.4384 68.2777 66.8763C68.021 67.3141 67.8468 67.8684 67.7553 68.539C67.6146 69.5707 67.7274 70.3808 68.0937 70.9693C68.4729 71.5596 69.101 71.9146 69.9779 72.0343C70.6228 72.1222 71.1682 72.0718 71.6143 71.8831C72.0733 71.6962 72.3981 71.3858 72.5886 70.952L74.7745 71.2502C74.4256 72.2667 73.7981 73.0152 72.8918 73.4958C71.9984 73.9782 70.9263 74.134 69.6754 73.9634ZM78.5623 74.9197L76.2023 74.5977L77.506 65.0417L79.6919 65.3399L79.7164 66.6044C80.0781 66.1677 80.5483 65.8509 81.1269 65.6539C81.7183 65.4588 82.3365 65.4052 82.9813 65.4931C84.1806 65.6568 85.035 66.1346 85.5443 66.9265C86.0665 67.7203 86.2441 68.7297 86.077 69.9548L85.2747 75.8354L82.9147 75.5134L83.6404 70.1938C83.7495 69.3943 83.6499 68.7764 83.3416 68.3403C83.0351 67.8912 82.5723 67.6245 81.9533 67.54C81.2182 67.4398 80.6127 67.5936 80.1366 68.0016C79.6606 68.4095 79.3698 69.0004 79.2643 69.7741L78.5623 74.9197ZM87.9492 66.4665L93.9459 67.2846L93.6767 69.2577L87.6801 68.4396L87.9492 66.4665ZM92.9026 74.7874L92.9121 76.7394C92.3388 76.8977 91.7169 76.9311 91.0463 76.8396C90.4531 76.7586 89.9449 76.5842 89.5217 76.3163C89.1002 76.0355 88.7995 75.6398 88.6196 75.1292C88.4526 74.6204 88.4209 73.9855 88.5247 73.2247L89.8258 63.6881L92.1664 64.0074L90.9208 73.1378C90.8434 73.7052 90.8985 74.1199 91.086 74.382C91.2882 74.6329 91.5634 74.7821 91.9116 74.8296C92.2211 74.8718 92.5515 74.8578 92.9026 74.7874ZM96.8489 77.4145L94.5083 77.0951L96.4718 62.7032L98.8124 63.0225L96.8489 77.4145ZM102.04 68.3889L103.951 77.6347L102.345 79.8785L99.5449 68.0484L102.04 68.3889ZM97.8884 82.0685L98.1549 80.1148L99.567 80.3074C99.8765 80.3496 100.153 80.3479 100.395 80.3022C100.636 80.2694 100.86 80.1686 101.067 79.9998C101.287 79.8327 101.487 79.571 101.667 79.2146L107.089 69.0777L109.526 69.4102L103.251 80.4554C102.783 81.2848 102.258 81.8633 101.675 82.191C101.091 82.5186 100.406 82.6288 99.6197 82.5214C99.2844 82.4757 98.971 82.4133 98.6797 82.3341C98.3995 82.2696 98.1357 82.1811 97.8884 82.0685ZM117.586 80.4998C116.58 80.3625 115.818 79.9826 115.299 79.3601C114.794 78.7264 114.602 77.9646 114.724 77.0748C114.843 76.1979 115.241 75.5428 115.918 75.1097C116.609 74.6654 117.528 74.4755 118.675 74.5401L121.57 74.6985L121.599 74.4857C121.659 74.0473 121.622 73.6876 121.49 73.4068C121.372 73.1149 121.173 72.8907 120.892 72.7342C120.613 72.5647 120.274 72.4527 119.874 72.3982C119.177 72.3032 118.623 72.372 118.21 72.6047C117.799 72.8245 117.56 73.1859 117.491 73.6888L115.479 73.4144C115.574 72.718 115.83 72.1421 116.247 71.6866C116.678 71.2201 117.236 70.8889 117.919 70.6932C118.616 70.4992 119.39 70.4602 120.241 70.5764C121.105 70.6942 121.825 70.9501 122.402 71.3441C122.98 71.7252 123.396 72.2416 123.649 72.8935C123.903 73.5324 123.969 74.2968 123.848 75.1867L123.056 80.9899L120.987 80.7075L121.005 79.2716C120.732 79.7335 120.278 80.0788 119.642 80.3073C119.02 80.5377 118.334 80.6018 117.586 80.4998ZM118.584 78.823C119.319 78.9233 119.927 78.7962 120.409 78.4415C120.904 78.0887 121.201 77.5447 121.302 76.8097L121.37 76.3067L119.357 76.1896C118.613 76.1538 118.069 76.2373 117.726 76.4401C117.385 76.63 117.188 76.9184 117.135 77.3053C117.077 77.7309 117.175 78.0726 117.429 78.3306C117.683 78.5885 118.068 78.7527 118.584 78.823ZM125.468 76.4323C125.602 75.4522 125.921 74.609 126.424 73.9027C126.941 73.1981 127.583 72.6814 128.35 72.3526C129.132 72.0127 129.994 71.9069 130.935 72.0354C132.238 72.2131 133.255 72.7 133.987 73.496C134.734 74.281 135.093 75.2561 135.066 76.4215L132.706 76.0995C132.638 75.5385 132.429 75.0962 132.079 74.7726C131.744 74.4379 131.292 74.2318 130.725 74.1544C130.235 74.0876 129.78 74.1503 129.359 74.3425C128.954 74.5236 128.618 74.8193 128.352 75.2296C128.085 75.64 127.911 76.1482 127.828 76.7543C127.746 77.3604 127.771 77.8959 127.905 78.3607C128.038 78.8256 128.269 79.2052 128.597 79.4995C128.939 79.7826 129.362 79.9585 129.864 80.0271C130.458 80.108 130.967 80.033 131.393 79.8021C131.831 79.5729 132.151 79.2028 132.352 78.6916L134.731 79.0162C134.526 79.7501 134.172 80.3718 133.669 80.8811C133.181 81.3794 132.586 81.7448 131.884 81.9775C131.184 82.1973 130.415 82.25 129.577 82.1356C128.61 82.0036 127.793 81.6821 127.127 81.1709C126.463 80.6468 125.982 79.9835 125.684 79.181C125.401 78.3673 125.329 77.4511 125.468 76.4323ZM136.366 73.0719L142.363 73.89L142.094 75.8631L136.097 75.045L136.366 73.0719ZM141.319 81.3928L141.329 83.3448C140.756 83.5031 140.134 83.5364 139.463 83.445C138.87 83.364 138.362 83.1896 137.938 82.9217C137.517 82.6409 137.216 82.2452 137.036 81.7346C136.869 81.2258 136.838 80.5909 136.942 79.8301L138.243 70.2934L140.583 70.6128L139.338 79.7432C139.26 80.3106 139.315 80.7253 139.503 80.9874C139.705 81.2383 139.98 81.3875 140.328 81.435C140.638 81.4772 140.968 81.4632 141.319 81.3928ZM142.886 83.6952L144.19 74.1393L146.55 74.4612L145.246 84.0172L142.886 83.6952ZM145.612 72.3826C145.212 72.328 144.889 72.146 144.642 71.8365C144.41 71.5158 144.321 71.1556 144.376 70.7558C144.43 70.356 144.612 70.0392 144.919 69.8053C145.24 69.5732 145.6 69.4844 146 69.539C146.4 69.5935 146.717 69.7747 146.95 70.0824C147.197 70.392 147.293 70.7466 147.239 71.1464C147.184 71.5462 146.996 71.8686 146.673 72.1136C146.366 72.3474 146.012 72.4371 145.612 72.3826ZM150.393 84.7193L147.905 74.6461L150.42 74.9892L151.484 79.6072C151.613 80.2028 151.716 80.7489 151.793 81.2454C151.884 81.7307 151.945 82.1068 151.974 82.3735C152.079 82.0857 152.24 81.7202 152.458 81.2771C152.691 80.8228 152.947 80.3454 153.225 79.8448L155.565 75.6912L158.003 76.0237L152.714 85.036L150.393 84.7193ZM161.843 86.5376C160.902 86.4092 160.092 86.082 159.415 85.5562C158.753 85.0192 158.266 84.3486 157.956 83.5443C157.647 82.7271 157.559 81.8285 157.693 80.8484C157.829 79.8554 158.148 79.0057 158.652 78.2994C159.155 77.5931 159.797 77.0764 160.577 76.7493C161.359 76.4094 162.215 76.3028 163.143 76.4294C164.11 76.5614 164.914 76.8812 165.554 77.3889C166.196 77.8837 166.655 78.5177 166.93 79.2909C167.218 80.0658 167.294 80.9563 167.157 81.9621L167.059 82.6779L158.855 81.5783L159.099 80.0747L164.922 80.8691C165.011 80.2114 164.871 79.6536 164.5 79.1958C164.142 78.7397 163.608 78.4633 162.899 78.3665C162.344 78.2908 161.858 78.3427 161.439 78.522C161.033 78.7031 160.702 79.0126 160.445 79.4505C160.189 79.8884 160.014 80.4426 159.923 81.1132C159.782 82.1449 159.895 82.955 160.261 83.5435C160.641 84.1339 161.269 84.4888 162.146 84.6085C162.79 84.6964 163.336 84.6461 163.782 84.4573C164.241 84.2704 164.566 83.96 164.756 83.5262L166.942 83.8245C166.593 84.8409 165.966 85.5894 165.059 86.07C164.166 86.5524 163.094 86.7083 161.843 86.5376Z" fill="#101011"/>
</g>
<g filter="url(#filter1_bi_68_403)">
<rect x="0.332153" y="26.095" width="279.266" height="97.806" rx="27.9266" fill="#1D2025"/>
<path d="M23.329 70.1605H20.7726V55.3296H23.3493L31.059 66.9955H30.3083V55.3296H32.8646V70.1605H30.3083L22.5783 58.5149H23.329V70.1605ZM35.194 65.129C35.194 64.0875 35.424 63.1745 35.8838 62.39C36.3437 61.592 36.9794 60.9698 37.791 60.5234C38.6025 60.0771 39.5223 59.8539 40.5502 59.8539C41.5917 59.8539 42.5114 60.0771 43.3095 60.5234C44.121 60.9698 44.7567 61.592 45.2166 62.39C45.6765 63.1745 45.9064 64.0875 45.9064 65.129C45.9064 66.1704 45.6765 67.0902 45.2166 67.8882C44.7567 68.6727 44.121 69.2881 43.3095 69.7345C42.5114 70.1808 41.5917 70.404 40.5502 70.404C39.5223 70.404 38.6025 70.1808 37.791 69.7345C36.9794 69.2881 36.3437 68.6727 35.8838 67.8882C35.424 67.0902 35.194 66.1704 35.194 65.129ZM37.6692 65.129C37.6692 65.7376 37.791 66.2719 38.0344 66.7318C38.2914 67.1916 38.6296 67.5501 39.0489 67.807C39.4817 68.064 39.9821 68.1925 40.5502 68.1925C41.1183 68.1925 41.6187 68.064 42.0516 67.807C42.4844 67.5501 42.8225 67.1916 43.066 66.7318C43.3095 66.2719 43.4312 65.7376 43.4312 65.129C43.4312 64.5068 43.3095 63.9725 43.066 63.5262C42.8225 63.0663 42.4844 62.7079 42.0516 62.4509C41.6187 62.1939 41.1183 62.0654 40.5502 62.0654C39.9821 62.0654 39.4817 62.1939 39.0489 62.4509C38.6296 62.7079 38.2914 63.0663 38.0344 63.5262C37.791 63.9725 37.6692 64.5068 37.6692 65.129ZM55.6294 70.1605H53.3368V55.0658H55.812V61.5987C56.1366 61.0307 56.61 60.5978 57.2322 60.3003C57.8544 59.9892 58.5509 59.8336 59.3219 59.8336C60.2822 59.8336 61.1005 60.0636 61.7768 60.5234C62.4666 60.9698 62.9941 61.5987 63.3593 62.4103C63.738 63.2218 63.9274 64.1619 63.9274 65.2304C63.9274 66.2448 63.7313 67.1443 63.339 67.9288C62.9468 68.7133 62.3922 69.3287 61.6754 69.775C60.9585 70.2079 60.1199 70.4243 59.1596 70.4243C58.4157 70.4243 57.7394 70.262 57.1307 69.9373C56.5356 69.6127 56.0893 69.1664 55.7917 68.5983L55.6294 70.1605ZM55.8323 65.1087C55.8323 65.7038 55.9472 66.2381 56.1772 66.7115C56.4071 67.1713 56.7317 67.5298 57.151 67.7868C57.5838 68.0302 58.0843 68.152 58.6524 68.152C59.234 68.152 59.7344 68.0235 60.1537 67.7665C60.573 67.5095 60.8909 67.151 61.1073 66.6912C61.3237 66.2313 61.4319 65.7038 61.4319 65.1087C61.4319 64.5135 61.3237 63.986 61.1073 63.5262C60.8909 63.0663 60.573 62.7079 60.1537 62.4509C59.7344 62.1803 59.234 62.0451 58.6524 62.0451C58.0843 62.0451 57.5838 62.1803 57.151 62.4509C56.7317 62.7079 56.4071 63.0663 56.1772 63.5262C55.9472 63.9725 55.8323 64.5 55.8323 65.1087ZM68.8807 70.4243C67.8257 70.4243 66.9871 70.1402 66.3649 69.5722C65.7562 68.9905 65.4519 68.2331 65.4519 67.2998C65.4519 66.3801 65.7698 65.6497 66.4055 65.1087C67.0547 64.5541 67.9744 64.2295 69.1647 64.1348L72.1674 63.8914V63.6682C72.1674 63.2083 72.0795 62.8431 71.9037 62.5726C71.7414 62.2886 71.5047 62.0857 71.1936 61.9639C70.8825 61.8287 70.5173 61.7611 70.098 61.7611C69.3676 61.7611 68.8063 61.9098 68.414 62.2074C68.0218 62.4914 67.8257 62.8972 67.8257 63.4247H65.7157C65.7157 62.6943 65.8982 62.0654 66.2634 61.5379C66.6422 60.9968 67.1697 60.5776 67.846 60.28C68.5358 59.9824 69.327 59.8336 70.2197 59.8336C71.1259 59.8336 71.9037 59.9959 72.5529 60.3206C73.2021 60.6317 73.7026 61.1051 74.0543 61.7408C74.4059 62.3629 74.5818 63.1407 74.5818 64.0739V70.1605H72.4109L72.2283 68.6795C72.0119 69.1934 71.5926 69.6127 70.9704 69.9373C70.3617 70.262 69.6652 70.4243 68.8807 70.4243ZM69.6719 68.5577C70.4429 68.5577 71.0515 68.3413 71.4979 67.9085C71.9578 67.4757 72.1877 66.8738 72.1877 66.1028V65.5753L70.098 65.7376C69.327 65.8052 68.7792 65.9675 68.4546 66.2245C68.13 66.468 67.9677 66.7926 67.9677 67.1984C67.9677 67.6447 68.1165 67.9829 68.414 68.2128C68.7116 68.4428 69.1309 68.5577 69.6719 68.5577ZM79.306 70.1605H77.0134V55.0658H79.4886V61.5987C79.8132 61.0307 80.2866 60.5978 80.9088 60.3003C81.531 59.9892 82.2275 59.8336 82.9985 59.8336C83.9588 59.8336 84.7771 60.0636 85.4534 60.5234C86.1432 60.9698 86.6707 61.5987 87.0359 62.4103C87.4147 63.2218 87.604 64.1619 87.604 65.2304C87.604 66.2448 87.4079 67.1443 87.0156 67.9288C86.6234 68.7133 86.0688 69.3287 85.352 69.775C84.6351 70.2079 83.7965 70.4243 82.8362 70.4243C82.0923 70.4243 81.416 70.262 80.8073 69.9373C80.2122 69.6127 79.7659 69.1664 79.4683 68.5983L79.306 70.1605ZM79.5089 65.1087C79.5089 65.7038 79.6238 66.2381 79.8538 66.7115C80.0837 67.1713 80.4083 67.5298 80.8276 67.7868C81.2605 68.0302 81.7609 68.152 82.329 68.152C82.9106 68.152 83.411 68.0235 83.8303 67.7665C84.2496 67.5095 84.5675 67.151 84.7839 66.6912C85.0003 66.2313 85.1085 65.7038 85.1085 65.1087C85.1085 64.5135 85.0003 63.986 84.7839 63.5262C84.5675 63.0663 84.2496 62.7079 83.8303 62.4509C83.411 62.1803 82.9106 62.0451 82.329 62.0451C81.7609 62.0451 81.2605 62.1803 80.8276 62.4509C80.4083 62.7079 80.0837 63.0663 79.8538 63.5262C79.6238 63.9725 79.5089 64.5 79.5089 65.1087ZM88.9865 65.129C88.9865 64.0875 89.2164 63.1745 89.6763 62.39C90.1362 61.592 90.7719 60.9698 91.5834 60.5234C92.395 60.0771 93.3147 59.8539 94.3427 59.8539C95.3842 59.8539 96.3039 60.0771 97.1019 60.5234C97.9135 60.9698 98.5492 61.592 99.009 62.39C99.4689 63.1745 99.6989 64.0875 99.6989 65.129C99.6989 66.1704 99.4689 67.0902 99.009 67.8882C98.5492 68.6727 97.9135 69.2881 97.1019 69.7345C96.3039 70.1808 95.3842 70.404 94.3427 70.404C93.3147 70.404 92.395 70.1808 91.5834 69.7345C90.7719 69.2881 90.1362 68.6727 89.6763 67.8882C89.2164 67.0902 88.9865 66.1704 88.9865 65.129ZM91.4617 65.129C91.4617 65.7376 91.5834 66.2719 91.8269 66.7318C92.0839 67.1916 92.422 67.5501 92.8413 67.807C93.2741 68.064 93.7746 68.1925 94.3427 68.1925C94.9108 68.1925 95.4112 68.064 95.844 67.807C96.2769 67.5501 96.615 67.1916 96.8585 66.7318C97.1019 66.2719 97.2237 65.7376 97.2237 65.129C97.2237 64.5068 97.1019 63.9725 96.8585 63.5262C96.615 63.0663 96.2769 62.7079 95.844 62.4509C95.4112 62.1939 94.9108 62.0654 94.3427 62.0654C93.7746 62.0654 93.2741 62.1939 92.8413 62.4509C92.422 62.7079 92.0839 63.0663 91.8269 63.5262C91.5834 63.9725 91.4617 64.5068 91.4617 65.129ZM104.156 70.1605H101.701V55.0658H104.156V70.1605ZM19.8191 89.129C19.8191 88.101 20.0287 87.188 20.448 86.39C20.8809 85.592 21.4692 84.9698 22.2131 84.5234C22.9706 84.0636 23.843 83.8336 24.8304 83.8336C26.1965 83.8336 27.3123 84.1921 28.178 84.9089C29.0572 85.6123 29.5644 86.5658 29.6996 87.7696H27.2244C27.0756 87.2015 26.7984 86.7755 26.3926 86.4914C26.0003 86.1939 25.5066 86.0451 24.9115 86.0451C24.3975 86.0451 23.9377 86.1736 23.5319 86.4306C23.1396 86.674 22.8353 87.0257 22.6189 87.4856C22.4025 87.9455 22.2943 88.4932 22.2943 89.129C22.2943 89.7647 22.3957 90.3125 22.5986 90.7723C22.8015 91.2322 23.0923 91.5906 23.471 91.8476C23.8633 92.0911 24.3231 92.2128 24.8507 92.2128C25.4728 92.2128 25.9868 92.064 26.3926 91.7665C26.8119 91.4689 27.0892 91.0428 27.2244 90.4883H29.7199C29.6117 91.2728 29.3344 91.9626 28.8881 92.5577C28.4553 93.1393 27.8939 93.5992 27.2041 93.9373C26.5143 94.262 25.7298 94.4243 24.8507 94.4243C23.8362 94.4243 22.9503 94.2079 22.1928 93.775C21.4354 93.3287 20.847 92.7133 20.4277 91.9288C20.022 91.1308 19.8191 90.1975 19.8191 89.129ZM38.3589 84.138H40.8341V94.1605H38.5415L38.3589 92.8215C38.0613 93.2949 37.615 93.6804 37.0198 93.9779C36.4247 94.2755 35.789 94.4243 35.1127 94.4243C33.963 94.4243 33.0636 94.0591 32.4143 93.3287C31.7651 92.5983 31.4405 91.6245 31.4405 90.4071V84.138H33.9157V89.5347C33.9157 90.4815 34.0983 91.1646 34.4635 91.5839C34.8287 92.0032 35.3562 92.2128 36.046 92.2128C36.8305 92.2128 37.4121 91.9829 37.7908 91.523C38.1695 91.0496 38.3589 90.3395 38.3589 89.3927V84.138ZM49.6801 84.0974V86.39H48.7671C47.8609 86.39 47.1508 86.6335 46.6368 87.1204C46.1228 87.5938 45.8658 88.3174 45.8658 89.2913V94.1605H43.3906V84.1583H45.7238L45.9267 86.2277H45.6832C45.8185 85.5649 46.1363 85.0239 46.6368 84.6046C47.1372 84.1853 47.7865 83.9757 48.5845 83.9757C48.7603 83.9757 48.9362 83.9824 49.112 83.9959C49.2878 84.0095 49.4772 84.0433 49.6801 84.0974ZM57.6449 84.0974V86.39H56.7319C55.8257 86.39 55.1156 86.6335 54.6016 87.1204C54.0877 87.5938 53.8307 88.3174 53.8307 89.2913V94.1605H51.3555V84.1583H53.6886L53.8915 86.2277H53.6481C53.7833 85.5649 54.1012 85.0239 54.6016 84.6046C55.1021 84.1853 55.7513 83.9757 56.5493 83.9757C56.7252 83.9757 56.901 83.9824 57.0768 83.9959C57.2527 84.0095 57.442 84.0433 57.6449 84.0974ZM63.4673 94.4243C62.4799 94.4243 61.6007 94.2011 60.8298 93.7548C60.0723 93.2949 59.4772 92.6727 59.0444 91.8882C58.6115 91.0902 58.3951 90.1772 58.3951 89.1492C58.3951 88.1078 58.6048 87.188 59.0241 86.39C59.4434 85.592 60.0317 84.9698 60.7892 84.5234C61.5466 84.0636 62.4123 83.8336 63.3861 83.8336C64.4005 83.8336 65.273 84.05 66.0033 84.4829C66.7337 84.9022 67.295 85.4905 67.6873 86.248C68.0931 87.0054 68.2959 87.9116 68.2959 88.9666V89.7173L59.6936 89.7376L59.7342 88.1551H65.841C65.841 87.4653 65.6179 86.9107 65.1715 86.4914C64.7387 86.0721 64.1503 85.8625 63.4064 85.8625C62.8248 85.8625 62.3311 85.9842 61.9253 86.2277C61.5331 86.4712 61.2355 86.8363 61.0326 87.3233C60.8298 87.8102 60.7283 88.4053 60.7283 89.1087C60.7283 90.1907 60.9582 91.009 61.4181 91.5636C61.8915 92.1181 62.5881 92.3954 63.5078 92.3954C64.1841 92.3954 64.7387 92.2669 65.1715 92.0099C65.6179 91.7529 65.9087 91.3878 66.0439 90.9143H68.3365C68.1201 92.0099 67.5791 92.8688 66.7134 93.491C65.8613 94.1132 64.7793 94.4243 63.4673 94.4243ZM72.7521 94.1605H70.2769V84.138H72.5695L72.7724 85.4364C73.0835 84.936 73.5231 84.5437 74.0912 84.2597C74.6728 83.9757 75.3017 83.8336 75.978 83.8336C77.2359 83.8336 78.1827 84.2056 78.8184 84.9495C79.4677 85.6934 79.7923 86.7079 79.7923 87.9928V94.1605H77.3171V88.5812C77.3171 87.7426 77.1277 87.1204 76.749 86.7146C76.3703 86.2953 75.8563 86.0857 75.2071 86.0857C74.4361 86.0857 73.8342 86.3291 73.4014 86.8161C72.9686 87.303 72.7521 87.9522 72.7521 88.7638V94.1605ZM81.2301 84.138H87.5195V86.2074H81.2301V84.138ZM87.4992 92.0099L87.7833 94.0185C87.2152 94.262 86.5795 94.3837 85.8762 94.3837C85.254 94.3837 84.7062 94.2755 84.2328 94.0591C83.7594 93.8291 83.3942 93.4639 83.1372 92.9635C82.8937 92.463 82.772 91.8138 82.772 91.0158V81.0135H85.2269V90.5897C85.2269 91.1849 85.3419 91.6042 85.5718 91.8476C85.8153 92.0776 86.1196 92.1925 86.4848 92.1925C86.8094 92.1925 87.1476 92.1317 87.4992 92.0099ZM91.9317 94.1605H89.4767V79.0658H91.9317V94.1605ZM96.0092 84.138L99.2757 93.3896L97.9366 95.9256L93.392 84.138H96.0092ZM93.6557 98.8066V96.7575H95.1368C95.4614 96.7575 95.7454 96.7169 95.9889 96.6357C96.2324 96.5681 96.4488 96.4328 96.6381 96.23C96.841 96.0271 97.0101 95.7295 97.1454 95.3373L101.305 84.138H103.861L98.951 96.3923C98.5858 97.312 98.126 97.9815 97.5714 98.4008C97.0169 98.8201 96.327 99.0298 95.502 99.0298C95.1503 99.0298 94.8189 99.0095 94.5078 98.9689C94.2103 98.9419 93.9262 98.8878 93.6557 98.8066ZM113.718 94.4243C112.663 94.4243 111.824 94.1402 111.202 93.5722C110.593 92.9905 110.289 92.2331 110.289 91.2998C110.289 90.3801 110.607 89.6497 111.242 89.1087C111.892 88.5541 112.811 88.2295 114.002 88.1348L117.004 87.8914V87.6682C117.004 87.2083 116.916 86.8431 116.741 86.5726C116.578 86.2886 116.342 86.0857 116.031 85.9639C115.719 85.8287 115.354 85.7611 114.935 85.7611C114.205 85.7611 113.643 85.9098 113.251 86.2074C112.859 86.4914 112.663 86.8972 112.663 87.4247H110.553C110.553 86.6943 110.735 86.0654 111.1 85.5379C111.479 84.9968 112.007 84.5776 112.683 84.28C113.373 83.9824 114.164 83.8336 115.057 83.8336C115.963 83.8336 116.741 83.9959 117.39 84.3206C118.039 84.6317 118.54 85.1051 118.891 85.7408C119.243 86.3629 119.419 87.1407 119.419 88.0739V94.1605H117.248L117.065 92.6795C116.849 93.1934 116.43 93.6127 115.807 93.9373C115.199 94.262 114.502 94.4243 113.718 94.4243ZM114.509 92.5577C115.28 92.5577 115.889 92.3413 116.335 91.9085C116.795 91.4757 117.025 90.8738 117.025 90.1028V89.5753L114.935 89.7376C114.164 89.8052 113.616 89.9675 113.292 90.2245C112.967 90.468 112.805 90.7926 112.805 91.1984C112.805 91.6447 112.953 91.9829 113.251 92.2128C113.549 92.4428 113.968 92.5577 114.509 92.5577ZM121.262 89.129C121.262 88.101 121.472 87.188 121.891 86.39C122.324 85.592 122.912 84.9698 123.656 84.5234C124.413 84.0636 125.286 83.8336 126.273 83.8336C127.639 83.8336 128.755 84.1921 129.621 84.9089C130.5 85.6123 131.007 86.5658 131.143 87.7696H128.667C128.519 87.2015 128.241 86.7755 127.835 86.4914C127.443 86.1939 126.95 86.0451 126.354 86.0451C125.84 86.0451 125.381 86.1736 124.975 86.4306C124.583 86.674 124.278 87.0257 124.062 87.4856C123.845 87.9455 123.737 88.4932 123.737 89.129C123.737 89.7647 123.839 90.3125 124.042 90.7723C124.244 91.2322 124.535 91.5906 124.914 91.8476C125.306 92.0911 125.766 92.2128 126.294 92.2128C126.916 92.2128 127.43 92.064 127.835 91.7665C128.255 91.4689 128.532 91.0428 128.667 90.4883H131.163C131.055 91.2728 130.777 91.9626 130.331 92.5577C129.898 93.1393 129.337 93.5992 128.647 93.9373C127.957 94.262 127.173 94.4243 126.294 94.4243C125.279 94.4243 124.393 94.2079 123.636 93.775C122.878 93.3287 122.29 92.7133 121.871 91.9288C121.465 91.1308 121.262 90.1975 121.262 89.129ZM132.011 84.138H138.3V86.2074H132.011V84.138ZM138.28 92.0099L138.564 94.0185C137.996 94.262 137.36 94.3837 136.657 94.3837C136.035 94.3837 135.487 94.2755 135.014 94.0591C134.54 93.8291 134.175 93.4639 133.918 92.9635C133.675 92.463 133.553 91.8138 133.553 91.0158V81.0135H136.008V90.5897C136.008 91.1849 136.123 91.6042 136.353 91.8476C136.596 92.0776 136.901 92.1925 137.266 92.1925C137.59 92.1925 137.928 92.1317 138.28 92.0099ZM140.217 94.1605V84.138H142.692V94.1605H140.217ZM141.434 82.1294C141.015 82.1294 140.657 81.9874 140.359 81.7033C140.075 81.4058 139.933 81.0473 139.933 80.628C139.933 80.2087 140.075 79.8571 140.359 79.573C140.657 79.289 141.015 79.147 141.434 79.147C141.854 79.147 142.205 79.289 142.489 79.573C142.787 79.8571 142.936 80.2087 142.936 80.628C142.936 81.0473 142.787 81.4058 142.489 81.7033C142.205 81.9874 141.854 82.1294 141.434 82.1294ZM148.09 94.1605L144.113 84.138H146.751L148.496 88.7435C148.712 89.3386 148.895 89.8864 149.044 90.3868C149.206 90.8738 149.321 91.2525 149.388 91.523C149.456 91.2119 149.571 90.8129 149.733 90.326C149.909 89.8255 150.105 89.298 150.322 88.7435L152.148 84.138H154.704L150.525 94.1605H148.09ZM160.135 94.4243C159.148 94.4243 158.269 94.2011 157.498 93.7548C156.74 93.2949 156.145 92.6727 155.712 91.8882C155.279 91.0902 155.063 90.1772 155.063 89.1492C155.063 88.1078 155.273 87.188 155.692 86.39C156.111 85.592 156.7 84.9698 157.457 84.5234C158.215 84.0636 159.08 83.8336 160.054 83.8336C161.068 83.8336 161.941 84.05 162.671 84.4829C163.402 84.9022 163.963 85.4905 164.355 86.248C164.761 87.0054 164.964 87.9116 164.964 88.9666V89.7173L156.362 89.7376L156.402 88.1551H162.509C162.509 87.4653 162.286 86.9107 161.839 86.4914C161.407 86.0721 160.818 85.8625 160.074 85.8625C159.493 85.8625 158.999 85.9842 158.593 86.2277C158.201 86.4712 157.903 86.8363 157.701 87.3233C157.498 87.8102 157.396 88.4053 157.396 89.1087C157.396 90.1907 157.626 91.009 158.086 91.5636C158.559 92.1181 159.256 92.3954 160.176 92.3954C160.852 92.3954 161.407 92.2669 161.839 92.0099C162.286 91.7529 162.577 91.3878 162.712 90.9143H165.004C164.788 92.0099 164.247 92.8688 163.381 93.491C162.529 94.1132 161.447 94.4243 160.135 94.4243Z" fill="white"/>
</g>
<g filter="url(#filter2_bdi_68_403)">
<rect x="198.718" y="37.1307" width="93.5586" height="93.5587" rx="22.3903" transform="rotate(18.61 198.718 37.1307)" fill="#3D3F42"/>
<ellipse cx="227.535" cy="97.7185" rx="23.3644" ry="23.3642" transform="rotate(18.61 227.535 97.7185)" fill="#1D2025"/>
<g filter="url(#filter3_bdi_68_403)">
<ellipse cx="227.536" cy="97.7144" rx="17.5233" ry="17.5232" transform="rotate(18.61 227.536 97.7144)" fill="#3D3F42"/>
</g>
<path fill-rule="evenodd" clip-rule="evenodd" d="M226.493 98.7402C226.121 98.3602 225.97 97.7899 226.152 97.2512L229.88 86.1799C230.137 85.4156 230.965 85.0047 231.73 85.262C232.494 85.5194 232.905 86.3476 232.648 87.112L229.385 96.8018L233.541 98.2014C234.306 98.4588 234.717 99.2871 234.459 100.051C234.202 100.816 233.374 101.227 232.609 100.969L227.074 99.1052C226.846 99.0286 226.65 98.9013 226.493 98.7402Z" fill="white"/>
<path fill-rule="evenodd" clip-rule="evenodd" d="M240.89 68.7015L234.246 70.0399L238.727 75.1244L239.424 73.053C251.715 78.8926 257.974 93.1335 253.524 106.35C248.721 120.613 233.265 128.282 219.002 123.479C204.739 118.676 197.071 103.221 201.873 88.9578C202.027 88.5027 201.782 88.0095 201.327 87.8563C200.872 87.703 200.378 87.9477 200.225 88.4029C195.116 103.576 203.274 120.018 218.447 125.127C233.62 130.236 250.062 122.078 255.172 106.905C259.929 92.7772 253.184 77.5492 239.983 71.3938L240.89 68.7015Z" fill="white"/>
<path fill-rule="evenodd" clip-rule="evenodd" d="M203.184 81.9799L204.519 82.9491L205.518 81.5734C206.478 80.2501 207.549 79.0275 208.713 77.9143L209.942 76.7392L208.801 75.5469C208.585 75.7304 208.372 75.9173 208.161 76.1073C207.951 76.2969 207.743 76.4898 207.538 76.6858C206.301 77.8687 205.163 79.1681 204.142 80.5746C203.976 80.8035 203.813 81.0353 203.653 81.2699C203.493 81.5038 203.337 81.7404 203.184 81.9799ZM211.02 73.839L211.881 75.2465L213.331 74.3589C214.716 73.5113 216.174 72.788 217.686 72.1982L219.27 71.5805L218.67 70.043C218.4 70.1304 218.132 70.2218 217.865 70.3171C217.598 70.4123 217.332 70.5114 217.068 70.6143C215.462 71.2407 213.914 72.0089 212.444 72.909C212.202 73.0569 211.963 73.2084 211.725 73.3634C211.488 73.5184 211.253 73.6769 211.02 73.839ZM221.372 69.3093L221.632 70.9387L223.311 70.6712C224.901 70.4179 226.523 70.3045 228.157 70.3399L229.857 70.3767L229.893 68.7275C229.61 68.7045 229.327 68.6858 229.044 68.6713C228.76 68.6568 228.477 68.6465 228.194 68.6403C226.457 68.6027 224.733 68.7232 223.043 68.9924C222.763 69.037 222.484 69.0857 222.206 69.1385C221.927 69.1914 221.649 69.2483 221.372 69.3093Z" fill="white"/>
</g>
<defs>
<filter id="filter0_bi_68_403" x="-38.361" y="-43.0205" width="366.908" height="217.499" filterUnits="userSpaceOnUse" color-interpolation-filters="sRGB">
<feFlood flood-opacity="0" result="BackgroundImageFix"/>
<feGaussianBlur in="BackgroundImageFix" stdDeviation="21.98"/>
<feComposite in2="SourceAlpha" operator="in" result="effect1_backgroundBlur_68_403"/>
<feBlend mode="normal" in="SourceGraphic" in2="effect1_backgroundBlur_68_403" result="shape"/>
<feColorMatrix in="SourceAlpha" type="matrix" values="0 0 0 0 0 0 0 0 0 0 0 0 0 0 0 0 0 0 127 0" result="hardAlpha"/>
<feOffset dy="1.95759"/>
<feGaussianBlur stdDeviation="0.889814"/>
<feComposite in2="hardAlpha" operator="arithmetic" k2="-1" k3="1"/>
<feColorMatrix type="matrix" values="0 0 0 0 1 0 0 0 0 1 0 0 0 0 1 0 0 0 0.2 0"/>
<feBlend mode="normal" in2="shape" result="effect2_innerShadow_68_403"/>
</filter>
<filter id="filter1_bi_68_403" x="-43.6278" y="-17.865" width="367.186" height="185.726" filterUnits="userSpaceOnUse" color-interpolation-filters="sRGB">
<feFlood flood-opacity="0" result="BackgroundImageFix"/>
<feGaussianBlur in="BackgroundImageFix" stdDeviation="21.98"/>
<feComposite in2="SourceAlpha" operator="in" result="effect1_backgroundBlur_68_403"/>
<feBlend mode="normal" in="SourceGraphic" in2="effect1_backgroundBlur_68_403" result="shape"/>
<feColorMatrix in="SourceAlpha" type="matrix" values="0 0 0 0 0 0 0 0 0 0 0 0 0 0 0 0 0 0 127 0" result="hardAlpha"/>
<feOffset dy="1.95759"/>
<feGaussianBlur stdDeviation="0.889814"/>
<feComposite in2="hardAlpha" operator="arithmetic" k2="-1" k3="1"/>
<feColorMatrix type="matrix" values="0 0 0 0 1 0 0 0 0 1 0 0 0 0 1 0 0 0 0.2 0"/>
<feBlend mode="normal" in2="shape" result="effect2_innerShadow_68_403"/>
</filter>
<filter id="filter2_bdi_68_403" x="141.993" y="10.2623" width="172.261" height="172.26" filterUnits="userSpaceOnUse" color-interpolation-filters="sRGB">
<feFlood flood-opacity="0" result="BackgroundImageFix"/>
<feGaussianBlur in="BackgroundImageFix" stdDeviation="13.4342"/>
<feComposite in2="SourceAlpha" operator="in" result="effect1_backgroundBlur_68_403"/>
<feColorMatrix in="SourceAlpha" type="matrix" values="0 0 0 0 0 0 0 0 0 0 0 0 0 0 0 0 0 0 127 0" result="hardAlpha"/>
<feMorphology radius="5.37368" operator="dilate" in="SourceAlpha" result="effect2_dropShadow_68_403"/>
<feOffset dy="5.37368"/>
<feGaussianBlur stdDeviation="6.7171"/>
<feComposite in2="hardAlpha" operator="out"/>
<feColorMatrix type="matrix" values="0 0 0 0 0 0 0 0 0 0 0 0 0 0 0 0 0 0 0.14 0"/>
<feBlend mode="normal" in2="effect1_backgroundBlur_68_403" result="effect2_dropShadow_68_403"/>
<feBlend mode="normal" in="SourceGraphic" in2="effect2_dropShadow_68_403" result="shape"/>
<feColorMatrix in="SourceAlpha" type="matrix" values="0 0 0 0 0 0 0 0 0 0 0 0 0 0 0 0 0 0 127 0" result="hardAlpha"/>
<feOffset dy="3.76157"/>
<feGaussianBlur stdDeviation="1.71286"/>
<feComposite in2="hardAlpha" operator="arithmetic" k2="-1" k3="1"/>
<feColorMatrix type="matrix" values="0 0 0 0 1 0 0 0 0 1 0 0 0 0 1 0 0 0 0.21 0"/>
<feBlend mode="normal" in2="shape" result="effect3_innerShadow_68_403"/>
</filter>
<filter id="filter3_bdi_68_403" x="200.164" y="70.3418" width="54.7456" height="54.7454" filterUnits="userSpaceOnUse" color-interpolation-filters="sRGB">
<feFlood flood-opacity="0" result="BackgroundImageFix"/>
<feGaussianBlur in="BackgroundImageFix" stdDeviation="4.92236"/>
<feComposite in2="SourceAlpha" operator="in" result="effect1_backgroundBlur_68_403"/>
<feColorMatrix in="SourceAlpha" type="matrix" values="0 0 0 0 0 0 0 0 0 0 0 0 0 0 0 0 0 0 127 0" result="hardAlpha"/>
<feOffset dy="1.85947"/>
<feGaussianBlur stdDeviation="3.71895"/>
<feComposite in2="hardAlpha" operator="out"/>
<feColorMatrix type="matrix" values="0 0 0 0 0 0 0 0 0 0 0 0 0 0 0 0 0 0 0.02 0"/>
<feBlend mode="normal" in2="effect1_backgroundBlur_68_403" result="effect2_dropShadow_68_403"/>
<feBlend mode="normal" in="SourceGraphic" in2="effect2_dropShadow_68_403" result="shape"/>
<feColorMatrix in="SourceAlpha" type="matrix" values="0 0 0 0 0 0 0 0 0 0 0 0 0 0 0 0 0 0 127 0" result="hardAlpha"/>
<feOffset dy="1.38018"/>
<feGaussianBlur stdDeviation="0.627356"/>
<feComposite in2="hardAlpha" operator="arithmetic" k2="-1" k3="1"/>
<feColorMatrix type="matrix" values="0 0 0 0 1 0 0 0 0 1 0 0 0 0 1 0 0 0 0.1 0"/>
<feBlend mode="normal" in2="shape" result="effect3_innerShadow_68_403"/>
</filter>
</defs>
</svg>
