<svg width="301" height="174" viewBox="0 0 301 174" fill="none" xmlns="http://www.w3.org/2000/svg">
<g filter="url(#filter0_bi_68_574)">
<path d="M14.5463 28.6098C16.6311 13.3279 30.7097 2.62958 45.9916 4.71445L256.916 33.4904C272.198 35.5753 282.897 49.6539 280.812 64.9358L275.639 102.848C273.555 118.13 259.476 128.828 244.194 126.743L33.2693 97.9672C17.9874 95.8823 7.28913 81.8037 9.37401 66.5218L14.5463 28.6098Z" fill="#1D2025"/>
<path d="M34.549 45.702L32.1116 45.3695L34.0408 31.2289L36.4975 31.5641L42.3308 43.6898L41.615 43.5921L43.1325 32.4693L45.5698 32.8018L43.6407 46.9423L41.2033 46.6098L35.3481 34.5008L36.0638 34.5985L34.549 45.702ZM46.5161 42.448C46.6516 41.455 46.9896 40.6144 47.5301 39.9263C48.0724 39.2252 48.7594 38.7147 49.5912 38.3947C50.423 38.0747 51.329 37.9816 52.3091 38.1153C53.3021 38.2507 54.15 38.5832 54.8528 39.1125C55.5685 39.6437 56.0937 40.3196 56.4284 41.1403C56.7648 41.948 56.8653 42.8484 56.7298 43.8414C56.5943 44.8344 56.2554 45.6815 55.7132 46.3825C55.1727 47.0706 54.4865 47.5747 53.6547 47.8947C52.8358 48.2165 51.9298 48.3096 50.9368 48.1742C49.9567 48.0405 49.1088 47.708 48.3931 47.1769C47.6774 46.6458 47.1513 45.9763 46.8149 45.1685C46.4802 44.3478 46.3806 43.441 46.5161 42.448ZM48.8761 42.77C48.7969 43.3503 48.8435 43.8755 49.0158 44.3457C49.201 44.8176 49.4768 45.2033 49.8431 45.5028C50.2224 45.8042 50.6828 45.9918 51.2245 46.0657C51.7661 46.1396 52.26 46.0822 52.7061 45.8934C53.1522 45.7047 53.5212 45.4069 53.8131 45.0001C54.1051 44.5933 54.2906 44.0998 54.3698 43.5195C54.4507 42.9263 54.4042 42.401 54.2301 41.9438C54.0578 41.4736 53.782 41.0879 53.4028 40.7866C53.0235 40.4853 52.5631 40.2977 52.0215 40.2238C51.4798 40.1499 50.9859 40.2073 50.5398 40.396C50.1066 40.5865 49.7376 40.8843 49.4328 41.2893C49.1426 41.6832 48.957 42.1768 48.8761 42.77ZM65.3456 49.9035L63.1598 49.6053L65.1232 35.2133L67.4832 35.5353L66.6334 41.764C67.0168 41.2646 67.5245 40.9135 68.1564 40.7108C68.7901 40.4951 69.4745 40.4374 70.2095 40.5377C71.1252 40.6626 71.8755 40.9883 72.4604 41.5147C73.0601 42.03 73.4812 42.6983 73.7238 43.5195C73.9794 44.3426 74.0376 45.2635 73.8986 46.2823C73.7667 47.2495 73.4627 48.0815 72.9867 48.7785C72.5106 49.4754 71.9019 49.9901 71.1603 50.3224C70.4205 50.6418 69.5928 50.7391 68.6772 50.6142C67.9679 50.5174 67.3442 50.2747 66.8061 49.886C66.2809 49.4991 65.9134 49.0155 65.7036 48.4351L65.3456 49.9035ZM66.1962 45.1132C66.1188 45.6806 66.1589 46.205 66.3166 46.6863C66.476 47.1546 66.7389 47.5386 67.1052 47.8382C67.4862 48.1266 67.9475 48.3078 68.4892 48.3816C69.0437 48.4573 69.5376 48.3999 69.9708 48.2094C70.404 48.0189 70.7537 47.7185 71.0198 47.3082C71.286 46.8979 71.4577 46.409 71.5352 45.8416C71.6126 45.2742 71.578 44.7571 71.4315 44.2905C71.285 43.8239 71.0286 43.4408 70.6622 43.1413C70.2976 42.8288 69.8381 42.6347 69.2835 42.5591C68.7419 42.4852 68.2471 42.5491 67.7993 42.7507C67.3661 42.9412 67.0099 43.2407 66.7309 43.6492C66.4536 44.0449 66.2754 44.5329 66.1962 45.1132ZM77.9457 51.8786C76.9398 51.7414 76.1772 51.3615 75.6579 50.739C75.1532 50.1052 74.9616 49.3435 75.083 48.4537C75.2026 47.5767 75.6007 46.9217 76.2772 46.4885C76.9683 46.0442 77.8875 45.8544 79.0346 45.9189L81.9292 46.0774L81.9583 45.8646C82.0181 45.4261 81.9818 45.0665 81.8493 44.7857C81.7315 44.4938 81.5322 44.2696 81.2514 44.113C80.9724 43.9436 80.633 43.8316 80.2332 43.7771C79.5369 43.6821 78.9823 43.7509 78.5696 43.9836C78.1587 44.2034 77.9189 44.5648 77.8503 45.0677L75.8385 44.7932C75.9335 44.0969 76.1894 43.5209 76.6062 43.0655C77.0377 42.5989 77.5952 42.2678 78.2787 42.072C78.9751 41.878 79.7489 41.8391 80.6 41.9552C81.4641 42.0731 82.1845 42.329 82.7612 42.723C83.3398 43.104 83.7554 43.6205 84.008 44.2723C84.2623 44.9113 84.3288 45.6757 84.2074 46.5655L83.4157 52.3687L81.3459 52.0864L81.3644 50.6505C81.0913 51.1124 80.6369 51.4576 80.0015 51.6862C79.3789 51.9165 78.6937 51.9807 77.9457 51.8786ZM78.9429 50.2019C79.678 50.3022 80.2865 50.175 80.7683 49.8204C81.2631 49.4676 81.5606 48.9236 81.6609 48.1885L81.7295 47.6856L79.716 47.5685C78.9721 47.5327 78.4287 47.6162 78.0858 47.819C77.7446 48.0089 77.5476 48.2973 77.4948 48.6842C77.4368 49.1098 77.5347 49.4515 77.7885 49.7094C78.0423 49.9674 78.4271 50.1315 78.9429 50.2019ZM87.92 52.9833L85.7341 52.685L87.6976 38.2931L90.0576 38.615L89.2078 44.8438C89.5912 44.3444 90.0988 43.9933 90.7308 43.7905C91.3644 43.5749 92.0488 43.5172 92.7839 43.6174C93.6995 43.7424 94.4498 44.068 95.0348 44.5945C95.6344 45.1098 96.0556 45.778 96.2982 46.5993C96.5537 47.4223 96.612 48.3432 96.473 49.362C96.3411 50.3292 96.0371 51.1613 95.561 51.8583C95.085 52.5552 94.4762 53.0698 93.7347 53.4022C92.9949 53.7216 92.1672 53.8188 91.2516 53.6939C90.5423 53.5972 89.9186 53.3544 89.3805 52.9658C88.8553 52.5788 88.4878 52.0952 88.278 51.5149L87.92 52.9833ZM88.7706 48.193C88.6932 48.7604 88.7333 49.2848 88.8909 49.766C89.0503 50.2344 89.3132 50.6184 89.6796 50.9179C90.0606 51.2064 90.5219 51.3875 91.0635 51.4614C91.6181 51.5371 92.1119 51.4797 92.5451 51.2892C92.9783 51.0987 93.328 50.7983 93.5942 50.388C93.8603 49.9777 94.0321 49.4888 94.1095 48.9214C94.1869 48.3539 94.1524 47.8369 94.0059 47.3703C93.8594 46.9037 93.6029 46.5206 93.2366 46.221C92.872 45.9086 92.4124 45.7145 91.8579 45.6389C91.3163 45.565 90.8215 45.6288 90.3736 45.8304C89.9404 46.0209 89.5843 46.3205 89.3053 46.729C89.028 47.1247 88.8497 47.6127 88.7706 48.193ZM97.8043 49.4451C97.9398 48.4521 98.2778 47.6116 98.8183 46.9234C99.3606 46.2224 100.048 45.7118 100.879 45.3918C101.711 45.0718 102.617 44.9787 103.597 45.1124C104.59 45.2479 105.438 45.5803 106.141 46.1097C106.857 46.6408 107.382 47.3167 107.717 48.1374C108.053 48.9452 108.153 49.8456 108.018 50.8386C107.883 51.8316 107.544 52.6786 107.001 53.3796C106.461 54.0678 105.775 54.5719 104.943 54.8919C104.124 55.2136 103.218 55.3068 102.225 55.1713C101.245 55.0376 100.397 54.7052 99.6813 54.174C98.9656 53.6429 98.4395 52.9734 98.1031 52.1657C97.7685 51.345 97.6689 50.4381 97.8043 49.4451ZM100.164 49.7671C100.085 50.3474 100.132 50.8727 100.304 51.3428C100.489 51.8147 100.765 52.2004 101.131 52.5C101.511 52.8013 101.971 52.9889 102.513 53.0628C103.054 53.1367 103.548 53.0793 103.994 52.8906C104.44 52.7018 104.809 52.4041 105.101 51.9973C105.393 51.5905 105.579 51.0969 105.658 50.5166C105.739 49.9234 105.692 49.3982 105.518 48.9409C105.346 48.4708 105.07 48.0851 104.691 47.7837C104.312 47.4824 103.851 47.2948 103.31 47.2209C102.768 47.147 102.274 47.2044 101.828 47.3931C101.395 47.5836 101.026 47.8814 100.721 48.2864C100.431 48.6803 100.245 49.1739 100.164 49.7671ZM111.613 56.2157L109.273 55.8964L111.236 41.5044L113.577 41.8237L111.613 56.2157ZM28.7479 63.237C28.8816 62.2569 29.2003 61.4137 29.7039 60.7074C30.2203 60.0028 30.8622 59.4861 31.6296 59.1573C32.4116 58.8174 33.2733 58.7116 34.2147 58.84C35.5172 59.0177 36.5345 59.5046 37.2666 60.3007C38.0133 61.0857 38.3729 62.0608 38.3453 63.2262L35.9853 62.9042C35.9174 62.3432 35.7084 61.9009 35.3585 61.5773C35.0232 61.2426 34.5718 61.0365 34.0044 60.9591C33.5144 60.8922 33.0592 60.9549 32.6389 61.1472C32.2332 61.3283 31.8973 61.624 31.6312 62.0343C31.365 62.4446 31.1906 62.9528 31.1079 63.559C31.0252 64.1651 31.0507 64.7006 31.1843 65.1654C31.3179 65.6303 31.5485 66.0098 31.8762 66.3041C32.2185 66.5873 32.6412 66.7632 33.1441 66.8318C33.7373 66.9127 34.2467 66.8377 34.6723 66.6068C35.1108 66.3776 35.4306 66.0074 35.6317 65.4963L38.011 65.8209C37.8058 66.5548 37.4517 67.1764 36.9487 67.6858C36.4604 68.184 35.8654 68.5495 35.1637 68.7822C34.4638 69.0019 33.6947 69.0546 32.8564 68.9403C31.8892 68.8083 31.0727 68.4867 30.4068 67.9755C29.7427 67.4515 29.2618 66.7882 28.964 65.9856C28.681 65.172 28.6089 64.2558 28.7479 63.237ZM47.0738 60.8899L49.4338 61.2119L48.1301 70.7679L45.9442 70.4697L45.9443 69.1692C45.599 69.5819 45.1233 69.8913 44.5172 70.0976C43.911 70.3039 43.2856 70.3631 42.6408 70.2751C41.5446 70.1256 40.7345 69.6604 40.2105 68.8796C39.6865 68.0987 39.5037 67.128 39.662 65.9673L40.4775 59.99L42.8375 60.312L42.1355 65.4575C42.0123 66.3602 42.0976 67.0352 42.3912 67.4825C42.6849 67.9298 43.1605 68.1983 43.8182 68.288C44.5662 68.3901 45.1507 68.2465 45.5716 67.8573C45.9942 67.4552 46.2671 66.8028 46.3903 65.9001L47.0738 60.8899ZM57.8732 62.3239L57.575 64.5097L56.7045 64.391C55.8405 64.2731 55.1318 64.4129 54.5784 64.8103C54.0268 65.1948 53.6876 65.8513 53.5609 66.7798L52.9276 71.4224L50.5676 71.1004L51.8687 61.5638L54.0932 61.8673L54.0175 63.8668L53.7853 63.8351C54.0005 63.2208 54.374 62.7463 54.9056 62.4116C55.4373 62.0769 56.0836 61.9615 56.8445 62.0653C57.0121 62.0882 57.1789 62.1175 57.3448 62.1533C57.5107 62.189 57.6868 62.2459 57.8732 62.3239ZM65.4673 63.3599L65.1691 65.5458L64.2986 65.427C63.4346 65.3092 62.7258 65.4489 62.1725 65.8463C61.6208 66.2308 61.2817 66.8873 61.155 67.8158L60.5216 72.4584L58.1616 72.1365L59.4627 62.5998L61.6873 62.9033L61.6115 64.9028L61.3794 64.8711C61.5946 64.2568 61.968 63.7823 62.4997 63.4477C63.0314 63.113 63.6777 62.9975 64.4385 63.1013C64.6062 63.1242 64.773 63.1535 64.9388 63.1893C65.1047 63.2251 65.2809 63.2819 65.4673 63.3599ZM69.6753 73.9634C68.7339 73.835 67.9247 73.5078 67.2477 72.982C66.5853 72.445 66.0988 71.7743 65.7882 70.9701C65.4793 70.1529 65.3917 69.2543 65.5254 68.2742C65.6609 67.2812 65.9804 66.4315 66.484 65.7252C66.9876 65.0189 67.6295 64.5022 68.4097 64.1751C69.1917 63.8352 70.047 63.7286 70.9755 63.8552C71.9427 63.9872 72.7464 64.307 73.3864 64.8147C74.0283 65.3095 74.4869 65.9435 74.7624 66.7167C75.0508 67.4916 75.1263 68.382 74.9891 69.3879L74.8914 70.1037L66.6869 69.004L66.9315 67.5005L72.754 68.2948C72.8437 67.6371 72.7031 67.0794 72.3321 66.6215C71.9739 66.1655 71.4402 65.889 70.7309 65.7923C70.1764 65.7166 69.6899 65.7685 69.2713 65.9478C68.8657 66.1289 68.5345 66.4384 68.2777 66.8763C68.0209 67.3141 67.8468 67.8684 67.7553 68.539C67.6145 69.5707 67.7273 70.3808 68.0937 70.9693C68.4729 71.5596 69.101 71.9146 69.9779 72.0343C70.6227 72.1222 71.1681 72.0718 71.6142 71.8831C72.0732 71.6962 72.398 71.3858 72.5885 70.952L74.7744 71.2502C74.4256 72.2667 73.798 73.0152 72.8917 73.4958C71.9984 73.9782 70.9262 74.134 69.6753 73.9634ZM78.5622 74.9197L76.2023 74.5977L77.506 65.0417L79.6918 65.3399L79.7164 66.6044C80.0781 66.1677 80.5482 65.8509 81.1268 65.6539C81.7183 65.4588 82.3364 65.4052 82.9812 65.4931C84.1806 65.6568 85.0349 66.1346 85.5442 66.9265C86.0665 67.7203 86.244 68.7297 86.0769 69.9548L85.2746 75.8354L82.9146 75.5134L83.6404 70.1938C83.7495 69.3943 83.6499 68.7764 83.3415 68.3403C83.035 67.8912 82.5722 67.6245 81.9532 67.54C81.2181 67.4398 80.6126 67.5936 80.1366 68.0016C79.6606 68.4095 79.3698 69.0004 79.2642 69.7741L78.5622 74.9197ZM87.9492 66.4665L93.9458 67.2846L93.6766 69.2577L87.68 68.4396L87.9492 66.4665ZM92.9025 74.7874L92.9121 76.7394C92.3388 76.8977 91.7168 76.9311 91.0462 76.8396C90.453 76.7586 89.9448 76.5842 89.5216 76.3163C89.1001 76.0355 88.7995 75.6398 88.6195 75.1292C88.4525 74.6204 88.4209 73.9855 88.5247 73.2247L89.8257 63.6881L92.1664 64.0074L90.9207 73.1378C90.8433 73.7052 90.8984 74.1199 91.086 74.382C91.2882 74.6329 91.5634 74.7821 91.9116 74.8296C92.2211 74.8718 92.5514 74.8578 92.9025 74.7874ZM96.8489 77.4145L94.5082 77.0951L96.4717 62.7032L98.8123 63.0225L96.8489 77.4145ZM102.04 68.3889L103.951 77.6347L102.345 79.8785L99.5449 68.0484L102.04 68.3889ZM97.8883 82.0685L98.1549 80.1148L99.567 80.3074C99.8765 80.3496 100.153 80.3479 100.395 80.3022C100.636 80.2694 100.86 80.1686 101.067 79.9998C101.287 79.8327 101.487 79.571 101.667 79.2146L107.089 69.0777L109.526 69.4102L103.251 80.4554C102.783 81.2848 102.258 81.8633 101.674 82.191C101.091 82.5186 100.406 82.6288 99.6196 82.5214C99.2843 82.4757 98.971 82.4133 98.6797 82.3341C98.3995 82.2696 98.1357 82.1811 97.8883 82.0685ZM117.586 80.4998C116.58 80.3625 115.818 79.9826 115.298 79.3601C114.794 78.7264 114.602 77.9646 114.724 77.0748C114.843 76.1979 115.241 75.5428 115.918 75.1097C116.609 74.6654 117.528 74.4755 118.675 74.5401L121.57 74.6985L121.599 74.4857C121.659 74.0473 121.622 73.6876 121.49 73.4068C121.372 73.1149 121.173 72.8907 120.892 72.7342C120.613 72.5647 120.274 72.4527 119.874 72.3982C119.177 72.3032 118.623 72.372 118.21 72.6047C117.799 72.8245 117.559 73.1859 117.491 73.6888L115.479 73.4144C115.574 72.718 115.83 72.1421 116.247 71.6866C116.678 71.2201 117.236 70.8889 117.919 70.6932C118.616 70.4992 119.389 70.4602 120.241 70.5764C121.105 70.6942 121.825 70.9501 122.402 71.3441C122.98 71.7252 123.396 72.2416 123.649 72.8935C123.903 73.5324 123.969 74.2968 123.848 75.1867L123.056 80.9899L120.986 80.7075L121.005 79.2716C120.732 79.7335 120.278 80.0788 119.642 80.3073C119.02 80.5377 118.334 80.6018 117.586 80.4998ZM118.584 78.823C119.319 78.9233 119.927 78.7962 120.409 78.4415C120.904 78.0887 121.201 77.5447 121.302 76.8097L121.37 76.3067L119.357 76.1896C118.613 76.1538 118.069 76.2373 117.726 76.4401C117.385 76.63 117.188 76.9184 117.135 77.3053C117.077 77.7309 117.175 78.0726 117.429 78.3306C117.683 78.5885 118.068 78.7527 118.584 78.823ZM125.468 76.4323C125.602 75.4522 125.921 74.609 126.424 73.9027C126.941 73.1981 127.583 72.6814 128.35 72.3526C129.132 72.0127 129.994 71.9069 130.935 72.0354C132.237 72.2131 133.255 72.7 133.987 73.496C134.734 74.281 135.093 75.2561 135.066 76.4215L132.706 76.0995C132.638 75.5385 132.429 75.0962 132.079 74.7726C131.743 74.4379 131.292 74.2318 130.725 74.1544C130.235 74.0876 129.779 74.1503 129.359 74.3425C128.954 74.5236 128.618 74.8193 128.351 75.2296C128.085 75.64 127.911 76.1482 127.828 76.7543C127.745 77.3604 127.771 77.8959 127.905 78.3607C128.038 78.8256 128.269 79.2052 128.597 79.4995C128.939 79.7826 129.361 79.9585 129.864 80.0271C130.458 80.108 130.967 80.033 131.393 79.8021C131.831 79.5729 132.151 79.2028 132.352 78.6916L134.731 79.0162C134.526 79.7501 134.172 80.3718 133.669 80.8811C133.181 81.3794 132.586 81.7448 131.884 81.9775C131.184 82.1973 130.415 82.25 129.577 82.1356C128.61 82.0036 127.793 81.6821 127.127 81.1709C126.463 80.6468 125.982 79.9835 125.684 79.181C125.401 78.3673 125.329 77.4511 125.468 76.4323ZM136.366 73.0719L142.363 73.89L142.093 75.8631L136.097 75.045L136.366 73.0719ZM141.319 81.3928L141.329 83.3448C140.756 83.5031 140.134 83.5364 139.463 83.445C138.87 83.364 138.362 83.1896 137.938 82.9217C137.517 82.6409 137.216 82.2452 137.036 81.7346C136.869 81.2258 136.838 80.5909 136.941 79.8301L138.243 70.2934L140.583 70.6128L139.338 79.7432C139.26 80.3106 139.315 80.7253 139.503 80.9874C139.705 81.2383 139.98 81.3875 140.328 81.435C140.638 81.4772 140.968 81.4632 141.319 81.3928ZM142.886 83.6952L144.19 74.1393L146.55 74.4612L145.246 84.0172L142.886 83.6952ZM145.612 72.3826C145.212 72.328 144.889 72.146 144.642 71.8365C144.41 71.5158 144.321 71.1556 144.376 70.7558C144.43 70.356 144.611 70.0392 144.919 69.8053C145.24 69.5732 145.6 69.4844 146 69.539C146.4 69.5935 146.717 69.7747 146.95 70.0824C147.197 70.392 147.293 70.7466 147.239 71.1464C147.184 71.5462 146.996 71.8686 146.673 72.1136C146.366 72.3474 146.012 72.4371 145.612 72.3826ZM150.393 84.7193L147.905 74.6461L150.42 74.9892L151.484 79.6072C151.613 80.2028 151.716 80.7489 151.793 81.2454C151.884 81.7307 151.945 82.1068 151.974 82.3735C152.079 82.0857 152.24 81.7202 152.458 81.2771C152.691 80.8228 152.947 80.3454 153.225 79.8448L155.565 75.6912L158.003 76.0237L152.714 85.036L150.393 84.7193ZM161.843 86.5376C160.902 86.4092 160.092 86.082 159.415 85.5562C158.753 85.0192 158.266 84.3486 157.956 83.5443C157.647 82.7271 157.559 81.8285 157.693 80.8484C157.829 79.8554 158.148 79.0057 158.652 78.2994C159.155 77.5931 159.797 77.0764 160.577 76.7493C161.359 76.4094 162.215 76.3028 163.143 76.4294C164.11 76.5614 164.914 76.8812 165.554 77.3889C166.196 77.8837 166.655 78.5177 166.93 79.2909C167.218 80.0658 167.294 80.9563 167.157 81.9621L167.059 82.6779L158.855 81.5783L159.099 80.0747L164.922 80.8691C165.011 80.2114 164.871 79.6536 164.5 79.1958C164.142 78.7397 163.608 78.4633 162.899 78.3665C162.344 78.2908 161.858 78.3427 161.439 78.522C161.033 78.7031 160.702 79.0126 160.445 79.4505C160.189 79.8884 160.014 80.4426 159.923 81.1132C159.782 82.1449 159.895 82.955 160.261 83.5435C160.641 84.1339 161.269 84.4888 162.146 84.6085C162.79 84.6964 163.336 84.6461 163.782 84.4573C164.241 84.2704 164.566 83.96 164.756 83.5262L166.942 83.8245C166.593 84.8409 165.966 85.5894 165.059 86.07C164.166 86.5524 163.094 86.7083 161.843 86.5376Z" fill="#101011"/>
</g>
<g filter="url(#filter1_bi_68_574)">
<rect x="0.332092" y="26.095" width="279.266" height="97.806" rx="27.9266" fill="#1D2025"/>
<path d="M23.3289 70.1605H20.7726V55.3296H23.3492L31.0589 66.9955H30.3082V55.3296H32.8645V70.1605H30.3082L22.5782 58.5149H23.3289V70.1605ZM35.1939 65.129C35.1939 64.0875 35.4239 63.1745 35.8837 62.39C36.3436 61.592 36.9793 60.9698 37.7909 60.5234C38.6024 60.0771 39.5222 59.8539 40.5501 59.8539C41.5916 59.8539 42.5113 60.0771 43.3094 60.5234C44.1209 60.9698 44.7566 61.592 45.2165 62.39C45.6764 63.1745 45.9063 64.0875 45.9063 65.129C45.9063 66.1704 45.6764 67.0902 45.2165 67.8882C44.7566 68.6727 44.1209 69.2881 43.3094 69.7345C42.5113 70.1808 41.5916 70.404 40.5501 70.404C39.5222 70.404 38.6024 70.1808 37.7909 69.7345C36.9793 69.2881 36.3436 68.6727 35.8837 67.8882C35.4239 67.0902 35.1939 66.1704 35.1939 65.129ZM37.6691 65.129C37.6691 65.7376 37.7909 66.2719 38.0343 66.7318C38.2913 67.1916 38.6295 67.5501 39.0488 67.807C39.4816 68.064 39.982 68.1925 40.5501 68.1925C41.1182 68.1925 41.6186 68.064 42.0515 67.807C42.4843 67.5501 42.8224 67.1916 43.0659 66.7318C43.3094 66.2719 43.4311 65.7376 43.4311 65.129C43.4311 64.5068 43.3094 63.9725 43.0659 63.5262C42.8224 63.0663 42.4843 62.7079 42.0515 62.4509C41.6186 62.1939 41.1182 62.0654 40.5501 62.0654C39.982 62.0654 39.4816 62.1939 39.0488 62.4509C38.6295 62.7079 38.2913 63.0663 38.0343 63.5262C37.7909 63.9725 37.6691 64.5068 37.6691 65.129ZM55.6293 70.1605H53.3367V55.0658H55.8119V61.5987C56.1365 61.0307 56.6099 60.5978 57.2321 60.3003C57.8543 59.9892 58.5508 59.8336 59.3218 59.8336C60.2821 59.8336 61.1004 60.0636 61.7767 60.5234C62.4665 60.9698 62.994 61.5987 63.3592 62.4103C63.738 63.2218 63.9273 64.1619 63.9273 65.2304C63.9273 66.2448 63.7312 67.1443 63.3389 67.9288C62.9467 68.7133 62.3921 69.3287 61.6753 69.775C60.9584 70.2079 60.1198 70.4243 59.1595 70.4243C58.4156 70.4243 57.7393 70.262 57.1306 69.9373C56.5355 69.6127 56.0892 69.1664 55.7916 68.5983L55.6293 70.1605ZM55.8322 65.1087C55.8322 65.7038 55.9471 66.2381 56.1771 66.7115C56.407 67.1713 56.7316 67.5298 57.1509 67.7868C57.5838 68.0302 58.0842 68.152 58.6523 68.152C59.2339 68.152 59.7343 68.0235 60.1536 67.7665C60.5729 67.5095 60.8908 67.151 61.1072 66.6912C61.3236 66.2313 61.4318 65.7038 61.4318 65.1087C61.4318 64.5135 61.3236 63.986 61.1072 63.5262C60.8908 63.0663 60.5729 62.7079 60.1536 62.4509C59.7343 62.1803 59.2339 62.0451 58.6523 62.0451C58.0842 62.0451 57.5838 62.1803 57.1509 62.4509C56.7316 62.7079 56.407 63.0663 56.1771 63.5262C55.9471 63.9725 55.8322 64.5 55.8322 65.1087ZM68.8806 70.4243C67.8256 70.4243 66.987 70.1402 66.3648 69.5722C65.7561 68.9905 65.4518 68.2331 65.4518 67.2998C65.4518 66.3801 65.7697 65.6497 66.4054 65.1087C67.0546 64.5541 67.9744 64.2295 69.1646 64.1348L72.1673 63.8914V63.6682C72.1673 63.2083 72.0794 62.8431 71.9036 62.5726C71.7413 62.2886 71.5046 62.0857 71.1935 61.9639C70.8824 61.8287 70.5172 61.7611 70.0979 61.7611C69.3675 61.7611 68.8062 61.9098 68.4139 62.2074C68.0217 62.4914 67.8256 62.8972 67.8256 63.4247H65.7156C65.7156 62.6943 65.8982 62.0654 66.2634 61.5379C66.6421 60.9968 67.1696 60.5776 67.8459 60.28C68.5357 59.9824 69.3269 59.8336 70.2196 59.8336C71.1258 59.8336 71.9036 59.9959 72.5528 60.3206C73.202 60.6317 73.7025 61.1051 74.0542 61.7408C74.4058 62.3629 74.5817 63.1407 74.5817 64.0739V70.1605H72.4108L72.2282 68.6795C72.0118 69.1934 71.5925 69.6127 70.9703 69.9373C70.3616 70.262 69.6651 70.4243 68.8806 70.4243ZM69.6718 68.5577C70.4428 68.5577 71.0515 68.3413 71.4978 67.9085C71.9577 67.4757 72.1876 66.8738 72.1876 66.1028V65.5753L70.0979 65.7376C69.3269 65.8052 68.7791 65.9675 68.4545 66.2245C68.1299 66.468 67.9676 66.7926 67.9676 67.1984C67.9676 67.6447 68.1164 67.9829 68.4139 68.2128C68.7115 68.4428 69.1308 68.5577 69.6718 68.5577ZM79.3059 70.1605H77.0133V55.0658H79.4885V61.5987C79.8131 61.0307 80.2865 60.5978 80.9087 60.3003C81.5309 59.9892 82.2275 59.8336 82.9984 59.8336C83.9587 59.8336 84.7771 60.0636 85.4533 60.5234C86.1431 60.9698 86.6707 61.5987 87.0358 62.4103C87.4146 63.2218 87.6039 64.1619 87.6039 65.2304C87.6039 66.2448 87.4078 67.1443 87.0156 67.9288C86.6233 68.7133 86.0688 69.3287 85.3519 69.775C84.635 70.2079 83.7964 70.4243 82.8361 70.4243C82.0922 70.4243 81.4159 70.262 80.8073 69.9373C80.2121 69.6127 79.7658 69.1664 79.4682 68.5983L79.3059 70.1605ZM79.5088 65.1087C79.5088 65.7038 79.6238 66.2381 79.8537 66.7115C80.0836 67.1713 80.4082 67.5298 80.8275 67.7868C81.2604 68.0302 81.7608 68.152 82.3289 68.152C82.9105 68.152 83.411 68.0235 83.8303 67.7665C84.2495 67.5095 84.5674 67.151 84.7838 66.6912C85.0002 66.2313 85.1084 65.7038 85.1084 65.1087C85.1084 64.5135 85.0002 63.986 84.7838 63.5262C84.5674 63.0663 84.2495 62.7079 83.8303 62.4509C83.411 62.1803 82.9105 62.0451 82.3289 62.0451C81.7608 62.0451 81.2604 62.1803 80.8275 62.4509C80.4082 62.7079 80.0836 63.0663 79.8537 63.5262C79.6238 63.9725 79.5088 64.5 79.5088 65.1087ZM88.9864 65.129C88.9864 64.0875 89.2163 63.1745 89.6762 62.39C90.1361 61.592 90.7718 60.9698 91.5833 60.5234C92.3949 60.0771 93.3146 59.8539 94.3426 59.8539C95.3841 59.8539 96.3038 60.0771 97.1018 60.5234C97.9134 60.9698 98.5491 61.592 99.009 62.39C99.4688 63.1745 99.6988 64.0875 99.6988 65.129C99.6988 66.1704 99.4688 67.0902 99.009 67.8882C98.5491 68.6727 97.9134 69.2881 97.1018 69.7345C96.3038 70.1808 95.3841 70.404 94.3426 70.404C93.3146 70.404 92.3949 70.1808 91.5833 69.7345C90.7718 69.2881 90.1361 68.6727 89.6762 67.8882C89.2163 67.0902 88.9864 66.1704 88.9864 65.129ZM91.4616 65.129C91.4616 65.7376 91.5833 66.2719 91.8268 66.7318C92.0838 67.1916 92.4219 67.5501 92.8412 67.807C93.274 68.064 93.7745 68.1925 94.3426 68.1925C94.9107 68.1925 95.4111 68.064 95.8439 67.807C96.2768 67.5501 96.6149 67.1916 96.8584 66.7318C97.1018 66.2719 97.2236 65.7376 97.2236 65.129C97.2236 64.5068 97.1018 63.9725 96.8584 63.5262C96.6149 63.0663 96.2768 62.7079 95.8439 62.4509C95.4111 62.1939 94.9107 62.0654 94.3426 62.0654C93.7745 62.0654 93.274 62.1939 92.8412 62.4509C92.4219 62.7079 92.0838 63.0663 91.8268 63.5262C91.5833 63.9725 91.4616 64.5068 91.4616 65.129ZM104.156 70.1605H101.701V55.0658H104.156V70.1605ZM19.6364 91.1172H21.9899C22.0034 91.5501 22.1657 91.895 22.4768 92.152C22.7879 92.4089 23.2207 92.5374 23.7753 92.5374C24.3704 92.5374 24.8167 92.4292 25.1143 92.2128C25.4254 91.9964 25.5809 91.7056 25.5809 91.3404C25.5809 91.0969 25.4998 90.8805 25.3375 90.6912C25.1752 90.5018 24.8708 90.3598 24.4245 90.2651L22.6188 89.8391C21.7126 89.6362 21.0363 89.3116 20.59 88.8652C20.1571 88.4053 19.9407 87.7764 19.9407 86.9784C19.9407 86.3291 20.1098 85.7678 20.4479 85.2944C20.7996 84.821 21.273 84.4626 21.8681 84.2191C22.4633 83.9621 23.1463 83.8336 23.9173 83.8336C24.6612 83.8336 25.3172 83.9689 25.8853 84.2394C26.4534 84.5099 26.8929 84.8886 27.204 85.3756C27.5287 85.8625 27.6977 86.4306 27.7112 87.0798H25.3578C25.3578 86.647 25.2225 86.3088 24.952 86.0654C24.6815 85.8084 24.3028 85.6799 23.8158 85.6799C23.3289 85.6799 22.9502 85.7881 22.6797 86.0045C22.4092 86.2209 22.2739 86.5117 22.2739 86.8769C22.2739 87.4315 22.7067 87.8102 23.5724 88.0131L25.3781 88.4391C26.2167 88.6285 26.8456 88.9328 27.2649 89.3521C27.6977 89.7714 27.9141 90.3666 27.9141 91.1375C27.9141 91.8138 27.7383 92.4022 27.3866 92.9026C27.035 93.3896 26.5413 93.7683 25.9056 94.0388C25.2699 94.2958 24.5395 94.4243 23.7144 94.4243C22.47 94.4243 21.4759 94.1199 20.732 93.5113C20.0016 92.9026 19.6364 92.1046 19.6364 91.1172ZM29.2104 89.129C29.2104 88.101 29.42 87.188 29.8393 86.39C30.2722 85.592 30.8605 84.9698 31.6044 84.5234C32.3619 84.0636 33.2343 83.8336 34.2217 83.8336C35.5878 83.8336 36.7036 84.1921 37.5693 84.9089C38.4485 85.6123 38.9557 86.5658 39.0909 87.7696H36.6157C36.4669 87.2015 36.1897 86.7755 35.7839 86.4914C35.3916 86.1939 34.898 86.0451 34.3028 86.0451C33.7888 86.0451 33.329 86.1736 32.9232 86.4306C32.5309 86.674 32.2266 87.0257 32.0102 87.4856C31.7938 87.9455 31.6856 88.4932 31.6856 89.129C31.6856 89.7647 31.787 90.3125 31.9899 90.7723C32.1928 91.2322 32.4836 91.5906 32.8623 91.8476C33.2546 92.0911 33.7144 92.2128 34.242 92.2128C34.8641 92.2128 35.3781 92.064 35.7839 91.7665C36.2032 91.4689 36.4805 91.0428 36.6157 90.4883H39.1112C39.003 91.2728 38.7257 91.9626 38.2794 92.5577C37.8466 93.1393 37.2852 93.5992 36.5954 93.9373C35.9056 94.262 35.1211 94.4243 34.242 94.4243C33.2275 94.4243 32.3416 94.2079 31.5841 93.775C30.8267 93.3287 30.2383 92.7133 29.819 91.9288C29.4133 91.1308 29.2104 90.1975 29.2104 89.129ZM43.4287 94.1605H40.9535V79.0658H43.449V85.4364C43.7601 84.9495 44.1929 84.564 44.7475 84.28C45.3156 83.9824 45.9648 83.8336 46.6952 83.8336C47.926 83.8336 48.8593 84.2056 49.495 84.9495C50.1442 85.6934 50.4689 86.7079 50.4689 87.9928V94.1605H47.9936V88.5812C47.9936 88.0131 47.9057 87.5464 47.7299 87.1813C47.5541 86.8161 47.3106 86.5455 46.9995 86.3697C46.6884 86.1803 46.3232 86.0857 45.9039 86.0857C45.3899 86.0857 44.9436 86.2006 44.5649 86.4306C44.1997 86.647 43.9156 86.9513 43.7128 87.3436C43.5234 87.7358 43.4287 88.1822 43.4287 88.6826V94.1605ZM57.3846 94.4243C56.3972 94.4243 55.518 94.2011 54.747 93.7548C53.9896 93.2949 53.3945 92.6727 52.9617 91.8882C52.5288 91.0902 52.3124 90.1772 52.3124 89.1492C52.3124 88.1078 52.5221 87.188 52.9414 86.39C53.3607 85.592 53.949 84.9698 54.7065 84.5234C55.4639 84.0636 56.3296 83.8336 57.3034 83.8336C58.3178 83.8336 59.1902 84.05 59.9206 84.4829C60.651 84.9022 61.2123 85.4905 61.6046 86.248C62.0104 87.0054 62.2132 87.9116 62.2132 88.9666V89.7173L53.6109 89.7376L53.6515 88.1551H59.7583C59.7583 87.4653 59.5352 86.9107 59.0888 86.4914C58.656 86.0721 58.0676 85.8625 57.3237 85.8625C56.7421 85.8625 56.2484 85.9842 55.8426 86.2277C55.4504 86.4712 55.1528 86.8363 54.9499 87.3233C54.747 87.8102 54.6456 88.4053 54.6456 89.1087C54.6456 90.1907 54.8755 91.009 55.3354 91.5636C55.8088 92.1181 56.5054 92.3954 57.4251 92.3954C58.1014 92.3954 58.656 92.2669 59.0888 92.0099C59.5352 91.7529 59.826 91.3878 59.9612 90.9143H62.2538C62.0374 92.0099 61.4964 92.8688 60.6307 93.491C59.7786 94.1132 58.6966 94.4243 57.3846 94.4243ZM68.3128 94.4243C67.339 94.4243 66.5004 94.2079 65.797 93.775C65.1072 93.3287 64.5662 92.7133 64.1739 91.9288C63.7952 91.1443 63.6059 90.2313 63.6059 89.1898C63.6059 88.1483 63.7952 87.2286 64.1739 86.4306C64.5662 85.619 65.1275 84.9833 65.8579 84.5234C66.5883 84.0636 67.4539 83.8336 68.4548 83.8336C69.1582 83.8336 69.8006 83.9757 70.3823 84.2597C70.9639 84.5302 71.4102 84.9157 71.7213 85.4161V79.0658H74.1762V94.1605H71.9039L71.7416 92.5983C71.444 93.1664 70.9841 93.6127 70.362 93.9373C69.7533 94.262 69.0703 94.4243 68.3128 94.4243ZM68.8606 92.152C69.4422 92.152 69.9427 92.0302 70.362 91.7868C70.7813 91.5298 71.1059 91.1713 71.3358 90.7115C71.5793 90.2381 71.701 89.7038 71.701 89.1087C71.701 88.5 71.5793 87.9725 71.3358 87.5262C71.1059 87.0663 70.7813 86.7079 70.362 86.4509C69.9427 86.1803 69.4422 86.0451 68.8606 86.0451C68.2925 86.0451 67.7988 86.1803 67.3795 86.4509C66.9602 86.7079 66.6356 87.0663 66.4057 87.5262C66.1893 87.986 66.0811 88.5135 66.0811 89.1087C66.0811 89.7038 66.1893 90.2313 66.4057 90.6912C66.6356 91.151 66.9602 91.5095 67.3795 91.7665C67.7988 92.0235 68.2925 92.152 68.8606 92.152ZM83.5524 84.138H86.0276V94.1605H83.735L83.5524 92.8215C83.2548 93.2949 82.8085 93.6804 82.2133 93.9779C81.6182 94.2755 80.9825 94.4243 80.3062 94.4243C79.1565 94.4243 78.2571 94.0591 77.6078 93.3287C76.9586 92.5983 76.634 91.6245 76.634 90.4071V84.138H79.1092V89.5347C79.1092 90.4815 79.2918 91.1646 79.657 91.5839C80.0222 92.0032 80.5497 92.2128 81.2395 92.2128C82.024 92.2128 82.6056 91.9829 82.9843 91.523C83.363 91.0496 83.5524 90.3395 83.5524 89.3927V84.138ZM91.0796 94.1605H88.6247V79.0658H91.0796V94.1605ZM98.1599 94.4243C97.1725 94.4243 96.2933 94.2011 95.5223 93.7548C94.7649 93.2949 94.1698 92.6727 93.7369 91.8882C93.3041 91.0902 93.0877 90.1772 93.0877 89.1492C93.0877 88.1078 93.2974 87.188 93.7167 86.39C94.136 85.592 94.7243 84.9698 95.4818 84.5234C96.2392 84.0636 97.1048 83.8336 98.0787 83.8336C99.0931 83.8336 99.9655 84.05 100.696 84.4829C101.426 84.9022 101.988 85.4905 102.38 86.248C102.786 87.0054 102.989 87.9116 102.989 88.9666V89.7173L94.3862 89.7376L94.4268 88.1551H100.534C100.534 87.4653 100.31 86.9107 99.8641 86.4914C99.4313 86.0721 98.8429 85.8625 98.099 85.8625C97.5174 85.8625 97.0237 85.9842 96.6179 86.2277C96.2257 86.4712 95.9281 86.8363 95.7252 87.3233C95.5223 87.8102 95.4209 88.4053 95.4209 89.1087C95.4209 90.1907 95.6508 91.009 96.1107 91.5636C96.5841 92.1181 97.2807 92.3954 98.2004 92.3954C98.8767 92.3954 99.4313 92.2669 99.8641 92.0099C100.31 91.7529 100.601 91.3878 100.737 90.9143H103.029C102.813 92.0099 102.272 92.8688 101.406 93.491C100.554 94.1132 99.4718 94.4243 98.1599 94.4243ZM109.088 94.4243C108.114 94.4243 107.276 94.2079 106.572 93.775C105.883 93.3287 105.341 92.7133 104.949 91.9288C104.571 91.1443 104.381 90.2313 104.381 89.1898C104.381 88.1483 104.571 87.2286 104.949 86.4306C105.341 85.619 105.903 84.9833 106.633 84.5234C107.364 84.0636 108.229 83.8336 109.23 83.8336C109.933 83.8336 110.576 83.9757 111.158 84.2597C111.739 84.5302 112.185 84.9157 112.497 85.4161V79.0658H114.951V94.1605H112.679L112.517 92.5983C112.219 93.1664 111.759 93.6127 111.137 93.9373C110.529 94.262 109.846 94.4243 109.088 94.4243ZM109.636 92.152C110.217 92.152 110.718 92.0302 111.137 91.7868C111.557 91.5298 111.881 91.1713 112.111 90.7115C112.355 90.2381 112.476 89.7038 112.476 89.1087C112.476 88.5 112.355 87.9725 112.111 87.5262C111.881 87.0663 111.557 86.7079 111.137 86.4509C110.718 86.1803 110.217 86.0451 109.636 86.0451C109.068 86.0451 108.574 86.1803 108.155 86.4509C107.736 86.7079 107.411 87.0663 107.181 87.5262C106.965 87.986 106.856 88.5135 106.856 89.1087C106.856 89.7038 106.965 90.2313 107.181 90.6912C107.411 91.151 107.736 91.5095 108.155 91.7665C108.574 92.0235 109.068 92.152 109.636 92.152Z" fill="white"/>
</g>
<g filter="url(#filter2_bdi_68_574)">
<rect x="198.718" y="37.1307" width="93.5586" height="93.5587" rx="22.3903" transform="rotate(18.61 198.718 37.1307)" fill="#3D3F42"/>
<ellipse cx="227.535" cy="97.7183" rx="23.3644" ry="23.3642" transform="rotate(18.6141 227.535 97.7183)" fill="#1D2025"/>
<g filter="url(#filter3_bdi_68_574)">
<ellipse cx="227.536" cy="97.7142" rx="17.5233" ry="17.5232" transform="rotate(18.6141 227.536 97.7142)" fill="#3D3F42"/>
</g>
<path fill-rule="evenodd" clip-rule="evenodd" d="M226.493 98.7399C226.121 98.3599 225.97 97.7895 226.152 97.2509L229.881 86.1799C230.138 85.4156 230.966 85.0047 231.731 85.2621C232.495 85.5196 232.906 86.3478 232.648 87.1121L229.385 96.8017L233.541 98.2017C234.306 98.4591 234.716 99.2874 234.459 100.052C234.202 100.816 233.373 101.227 232.609 100.969L227.074 99.105C226.846 99.0283 226.65 98.9011 226.493 98.7399Z" fill="white"/>
<path fill-rule="evenodd" clip-rule="evenodd" d="M237.533 70.8708L237.875 71.2587L237.477 71.3388C237.303 71.7578 236.832 71.9764 236.396 71.8295C236.224 71.7714 236.051 71.7152 235.878 71.6607L231.231 72.5966L231.863 70.7197C218.996 68.7144 206.171 76.196 201.874 88.9561C197.07 103.219 204.738 118.675 219 123.479C233.263 128.282 248.719 120.614 253.523 106.352L255.171 106.907C250.061 122.08 233.618 130.237 218.445 125.127C203.273 120.016 195.115 103.574 200.226 88.401C204.831 74.7284 218.638 66.7527 232.426 69.0487L233.394 66.1739L236.915 70.1691C236.927 70.1732 236.939 70.1773 236.951 70.1814C237.269 70.2884 237.484 70.5611 237.533 70.8708Z" fill="white"/>
<path fill-rule="evenodd" clip-rule="evenodd" d="M243.195 73.2062L242.226 74.5412L243.602 75.5399C244.925 76.5006 246.147 77.5717 247.261 78.7354L248.436 79.9639L249.628 78.8234C249.445 78.6074 249.258 78.394 249.068 78.1832C248.878 77.9729 248.685 77.7653 248.489 77.5603C247.306 76.3237 246.007 75.1854 244.6 74.1643C244.371 73.9981 244.14 73.835 243.905 73.6751C243.671 73.5156 243.434 73.3593 243.195 73.2062ZM251.336 81.0421L249.929 81.9037L250.816 83.3536C251.664 84.7381 252.387 86.1959 252.977 87.7083L253.595 89.2921L255.132 88.6925C255.045 88.4226 254.953 88.1541 254.858 87.887C254.763 87.6201 254.664 87.3546 254.561 87.0906C253.934 85.4845 253.166 83.9364 252.266 82.466C252.118 82.2244 251.967 81.9849 251.812 81.7476C251.657 81.5102 251.498 81.275 251.336 81.0421ZM255.866 91.3946L254.236 91.6542L254.504 93.3331C254.757 94.9235 254.871 96.5449 254.835 98.1797L254.798 99.8793L256.448 99.915C256.471 99.6318 256.489 99.3488 256.504 99.066C256.518 98.7825 256.529 98.4993 256.535 98.2165C256.572 96.4788 256.452 94.7555 256.183 93.0656C256.138 92.7855 256.089 92.5063 256.037 92.2282C255.984 91.9493 255.927 91.6714 255.866 91.3946Z" fill="white"/>
</g>
<defs>
<filter id="filter0_bi_68_574" x="-38.361" y="-43.0205" width="366.908" height="217.499" filterUnits="userSpaceOnUse" color-interpolation-filters="sRGB">
<feFlood flood-opacity="0" result="BackgroundImageFix"/>
<feGaussianBlur in="BackgroundImageFix" stdDeviation="21.98"/>
<feComposite in2="SourceAlpha" operator="in" result="effect1_backgroundBlur_68_574"/>
<feBlend mode="normal" in="SourceGraphic" in2="effect1_backgroundBlur_68_574" result="shape"/>
<feColorMatrix in="SourceAlpha" type="matrix" values="0 0 0 0 0 0 0 0 0 0 0 0 0 0 0 0 0 0 127 0" result="hardAlpha"/>
<feOffset dy="1.95759"/>
<feGaussianBlur stdDeviation="0.889814"/>
<feComposite in2="hardAlpha" operator="arithmetic" k2="-1" k3="1"/>
<feColorMatrix type="matrix" values="0 0 0 0 1 0 0 0 0 1 0 0 0 0 1 0 0 0 0.2 0"/>
<feBlend mode="normal" in2="shape" result="effect2_innerShadow_68_574"/>
</filter>
<filter id="filter1_bi_68_574" x="-43.6279" y="-17.865" width="367.186" height="185.726" filterUnits="userSpaceOnUse" color-interpolation-filters="sRGB">
<feFlood flood-opacity="0" result="BackgroundImageFix"/>
<feGaussianBlur in="BackgroundImageFix" stdDeviation="21.98"/>
<feComposite in2="SourceAlpha" operator="in" result="effect1_backgroundBlur_68_574"/>
<feBlend mode="normal" in="SourceGraphic" in2="effect1_backgroundBlur_68_574" result="shape"/>
<feColorMatrix in="SourceAlpha" type="matrix" values="0 0 0 0 0 0 0 0 0 0 0 0 0 0 0 0 0 0 127 0" result="hardAlpha"/>
<feOffset dy="1.95759"/>
<feGaussianBlur stdDeviation="0.889814"/>
<feComposite in2="hardAlpha" operator="arithmetic" k2="-1" k3="1"/>
<feColorMatrix type="matrix" values="0 0 0 0 1 0 0 0 0 1 0 0 0 0 1 0 0 0 0.2 0"/>
<feBlend mode="normal" in2="shape" result="effect2_innerShadow_68_574"/>
</filter>
<filter id="filter2_bdi_68_574" x="141.993" y="10.2623" width="172.261" height="172.26" filterUnits="userSpaceOnUse" color-interpolation-filters="sRGB">
<feFlood flood-opacity="0" result="BackgroundImageFix"/>
<feGaussianBlur in="BackgroundImageFix" stdDeviation="13.4342"/>
<feComposite in2="SourceAlpha" operator="in" result="effect1_backgroundBlur_68_574"/>
<feColorMatrix in="SourceAlpha" type="matrix" values="0 0 0 0 0 0 0 0 0 0 0 0 0 0 0 0 0 0 127 0" result="hardAlpha"/>
<feMorphology radius="5.37368" operator="dilate" in="SourceAlpha" result="effect2_dropShadow_68_574"/>
<feOffset dy="5.37368"/>
<feGaussianBlur stdDeviation="6.7171"/>
<feComposite in2="hardAlpha" operator="out"/>
<feColorMatrix type="matrix" values="0 0 0 0 0 0 0 0 0 0 0 0 0 0 0 0 0 0 0.14 0"/>
<feBlend mode="normal" in2="effect1_backgroundBlur_68_574" result="effect2_dropShadow_68_574"/>
<feBlend mode="normal" in="SourceGraphic" in2="effect2_dropShadow_68_574" result="shape"/>
<feColorMatrix in="SourceAlpha" type="matrix" values="0 0 0 0 0 0 0 0 0 0 0 0 0 0 0 0 0 0 127 0" result="hardAlpha"/>
<feOffset dy="3.76157"/>
<feGaussianBlur stdDeviation="1.71286"/>
<feComposite in2="hardAlpha" operator="arithmetic" k2="-1" k3="1"/>
<feColorMatrix type="matrix" values="0 0 0 0 1 0 0 0 0 1 0 0 0 0 1 0 0 0 0.21 0"/>
<feBlend mode="normal" in2="shape" result="effect3_innerShadow_68_574"/>
</filter>
<filter id="filter3_bdi_68_574" x="200.164" y="70.3416" width="54.7456" height="54.7454" filterUnits="userSpaceOnUse" color-interpolation-filters="sRGB">
<feFlood flood-opacity="0" result="BackgroundImageFix"/>
<feGaussianBlur in="BackgroundImageFix" stdDeviation="4.92236"/>
<feComposite in2="SourceAlpha" operator="in" result="effect1_backgroundBlur_68_574"/>
<feColorMatrix in="SourceAlpha" type="matrix" values="0 0 0 0 0 0 0 0 0 0 0 0 0 0 0 0 0 0 127 0" result="hardAlpha"/>
<feOffset dy="1.85947"/>
<feGaussianBlur stdDeviation="3.71895"/>
<feComposite in2="hardAlpha" operator="out"/>
<feColorMatrix type="matrix" values="0 0 0 0 0 0 0 0 0 0 0 0 0 0 0 0 0 0 0.02 0"/>
<feBlend mode="normal" in2="effect1_backgroundBlur_68_574" result="effect2_dropShadow_68_574"/>
<feBlend mode="normal" in="SourceGraphic" in2="effect2_dropShadow_68_574" result="shape"/>
<feColorMatrix in="SourceAlpha" type="matrix" values="0 0 0 0 0 0 0 0 0 0 0 0 0 0 0 0 0 0 127 0" result="hardAlpha"/>
<feOffset dy="1.38018"/>
<feGaussianBlur stdDeviation="0.627356"/>
<feComposite in2="hardAlpha" operator="arithmetic" k2="-1" k3="1"/>
<feColorMatrix type="matrix" values="0 0 0 0 1 0 0 0 0 1 0 0 0 0 1 0 0 0 0.1 0"/>
<feBlend mode="normal" in2="shape" result="effect3_innerShadow_68_574"/>
</filter>
</defs>
</svg>
