<svg width="301" height="174" viewBox="0 0 301 174" fill="none" xmlns="http://www.w3.org/2000/svg">
<g filter="url(#filter0_bi_68_540)">
<path d="M14.5463 28.6098C16.6312 13.3279 30.7097 2.62958 45.9916 4.71445L256.916 33.4904C272.198 35.5753 282.897 49.6539 280.812 64.9358L275.639 102.848C273.555 118.13 259.476 128.828 244.194 126.743L33.2693 97.9672C17.9874 95.8823 7.28916 81.8037 9.37404 66.5218L14.5463 28.6098Z" fill="#1D2025"/>
<path d="M34.549 45.702L32.1117 45.3695L34.0409 31.2289L36.4975 31.5641L42.3308 43.6898L41.6151 43.5921L43.1326 32.4693L45.5699 32.8018L43.6408 46.9423L41.2034 46.6098L35.3481 34.5008L36.0639 34.5985L34.549 45.702ZM46.5162 42.448C46.6517 41.455 46.9896 40.6144 47.5302 39.9263C48.0724 39.2252 48.7595 38.7147 49.5913 38.3947C50.4231 38.0747 51.3291 37.9816 52.3092 38.1153C53.3022 38.2507 54.1501 38.5832 54.8529 39.1125C55.5686 39.6437 56.0938 40.3196 56.4284 41.1403C56.7648 41.948 56.8653 42.8484 56.7298 43.8414C56.5944 44.8344 56.2555 45.6815 55.7132 46.3825C55.1727 47.0706 54.4866 47.5747 53.6547 47.8947C52.8358 48.2165 51.9299 48.3096 50.9369 48.1742C49.9568 48.0405 49.1089 47.708 48.3932 47.1769C47.6774 46.6458 47.1514 45.9763 46.815 45.1685C46.4803 44.3478 46.3807 43.441 46.5162 42.448ZM48.8762 42.77C48.797 43.3503 48.8436 43.8755 49.0159 44.3457C49.2011 44.8176 49.4768 45.2033 49.8432 45.5028C50.2224 45.8042 50.6829 45.9918 51.2245 46.0657C51.7661 46.1396 52.26 46.0822 52.7061 45.8934C53.1522 45.7047 53.5212 45.4069 53.8132 45.0001C54.1051 44.5933 54.2907 44.0998 54.3699 43.5195C54.4508 42.9263 54.4042 42.401 54.2302 41.9438C54.0579 41.4736 53.7821 41.0879 53.4028 40.7866C53.0236 40.4853 52.5631 40.2977 52.0215 40.2238C51.4799 40.1499 50.986 40.2073 50.5399 40.396C50.1067 40.5865 49.7377 40.8843 49.4328 41.2893C49.1426 41.6832 48.9571 42.1768 48.8762 42.77ZM65.3457 49.9035L63.1598 49.6053L65.1233 35.2133L67.4833 35.5353L66.6335 41.764C67.0169 41.2646 67.5245 40.9135 68.1565 40.7108C68.7901 40.4951 69.4745 40.4374 70.2096 40.5377C71.1252 40.6626 71.8755 40.9883 72.4605 41.5147C73.0601 42.03 73.4813 42.6983 73.7239 43.5195C73.9794 44.3426 74.0377 45.2635 73.8987 46.2823C73.7668 47.2495 73.4628 48.0815 72.9867 48.7785C72.5107 49.4754 71.9019 49.9901 71.1604 50.3224C70.4206 50.6418 69.5929 50.7391 68.6773 50.6142C67.968 50.5174 67.3443 50.2747 66.8062 49.886C66.281 49.4991 65.9135 49.0155 65.7037 48.4351L65.3457 49.9035ZM66.1963 45.1132C66.1188 45.6806 66.159 46.205 66.3166 46.6863C66.476 47.1546 66.7389 47.5386 67.1053 47.8382C67.4863 48.1266 67.9476 48.3078 68.4892 48.3816C69.0438 48.4573 69.5376 48.3999 69.9708 48.2094C70.404 48.0189 70.7537 47.7185 71.0199 47.3082C71.286 46.8979 71.4578 46.409 71.5352 45.8416C71.6126 45.2742 71.5781 44.7571 71.4316 44.2905C71.285 43.8239 71.0286 43.4408 70.6623 43.1413C70.2977 42.8288 69.8381 42.6347 69.2836 42.5591C68.742 42.4852 68.2472 42.5491 67.7993 42.7507C67.3661 42.9412 67.01 43.2407 66.731 43.6492C66.4537 44.0449 66.2754 44.5329 66.1963 45.1132ZM77.9458 51.8786C76.9399 51.7414 76.1773 51.3615 75.658 50.739C75.1533 50.1052 74.9617 49.3435 75.083 48.4537C75.2027 47.5767 75.6007 46.9217 76.2772 46.4885C76.9684 46.0442 77.8875 45.8544 79.0347 45.9189L81.9293 46.0774L81.9583 45.8646C82.0181 45.4261 81.9818 45.0665 81.8494 44.7857C81.7316 44.4938 81.5323 44.2696 81.2515 44.113C80.9725 43.9436 80.6331 43.8316 80.2333 43.7771C79.5369 43.6821 78.9824 43.7509 78.5697 43.9836C78.1588 44.2034 77.919 44.5648 77.8504 45.0677L75.8386 44.7932C75.9336 44.0969 76.1895 43.5209 76.6063 43.0655C77.0378 42.5989 77.5953 42.2678 78.2788 42.072C78.9752 41.878 79.7489 41.8391 80.6001 41.9552C81.4641 42.0731 82.1845 42.329 82.7613 42.723C83.3399 43.104 83.7554 43.6205 84.008 44.2723C84.2624 44.9113 84.3289 45.6757 84.2075 46.5655L83.4158 52.3687L81.346 52.0864L81.3645 50.6505C81.0913 51.1124 80.637 51.4576 80.0016 51.6862C79.379 51.9165 78.6937 51.9807 77.9458 51.8786ZM78.943 50.2019C79.6781 50.3022 80.2865 50.175 80.7684 49.8204C81.2632 49.4676 81.5607 48.9236 81.661 48.1885L81.7296 47.6856L79.716 47.5685C78.9722 47.5327 78.4288 47.6162 78.0858 47.819C77.7447 48.0089 77.5477 48.2973 77.4949 48.6842C77.4368 49.1098 77.5347 49.4515 77.7885 49.7094C78.0423 49.9674 78.4271 50.1315 78.943 50.2019ZM87.9201 52.9833L85.7342 52.685L87.6976 38.2931L90.0576 38.615L89.2078 44.8438C89.5912 44.3444 90.0989 43.9933 90.7308 43.7905C91.3645 43.5749 92.0489 43.5172 92.784 43.6174C93.6996 43.7424 94.4499 44.068 95.0349 44.5945C95.6345 45.1098 96.0556 45.778 96.2983 46.5993C96.5538 47.4223 96.6121 48.3432 96.4731 49.362C96.3411 50.3292 96.0371 51.1613 95.5611 51.8583C95.0851 52.5552 94.4763 53.0698 93.7347 53.4022C92.9949 53.7216 92.1672 53.8188 91.2516 53.6939C90.5423 53.5972 89.9186 53.3544 89.3806 52.9658C88.8553 52.5788 88.4878 52.0952 88.278 51.5149L87.9201 52.9833ZM88.7706 48.193C88.6932 48.7604 88.7333 49.2848 88.891 49.766C89.0504 50.2344 89.3133 50.6184 89.6796 50.9179C90.0606 51.2064 90.522 51.3875 91.0636 51.4614C91.6181 51.5371 92.112 51.4797 92.5452 51.2892C92.9784 51.0987 93.3281 50.7983 93.5942 50.388C93.8604 49.9777 94.0322 49.4888 94.1096 48.9214C94.187 48.3539 94.1524 47.8369 94.0059 47.3703C93.8594 46.9037 93.603 46.5206 93.2366 46.221C92.872 45.9086 92.4125 45.7145 91.858 45.6389C91.3163 45.565 90.8216 45.6288 90.3737 45.8304C89.9405 46.0209 89.5844 46.3205 89.3053 46.729C89.028 47.1247 88.8498 47.6127 88.7706 48.193ZM97.8044 49.4451C97.9399 48.4521 98.2779 47.6116 98.8184 46.9234C99.3606 46.2224 100.048 45.7118 100.879 45.3918C101.711 45.0718 102.617 44.9787 103.597 45.1124C104.59 45.2479 105.438 45.5803 106.141 46.1097C106.857 46.6408 107.382 47.3167 107.717 48.1374C108.053 48.9452 108.154 49.8456 108.018 50.8386C107.883 51.8316 107.544 52.6786 107.001 53.3796C106.461 54.0678 105.775 54.5719 104.943 54.8919C104.124 55.2136 103.218 55.3068 102.225 55.1713C101.245 55.0376 100.397 54.7052 99.6814 54.174C98.9657 53.6429 98.4396 52.9734 98.1032 52.1657C97.7685 51.345 97.6689 50.4381 97.8044 49.4451ZM100.164 49.7671C100.085 50.3474 100.132 50.8727 100.304 51.3428C100.489 51.8147 100.765 52.2004 101.131 52.5C101.511 52.8013 101.971 52.9889 102.513 53.0628C103.054 53.1367 103.548 53.0793 103.994 52.8906C104.44 52.7018 104.809 52.4041 105.101 51.9973C105.393 51.5905 105.579 51.0969 105.658 50.5166C105.739 49.9234 105.692 49.3982 105.518 48.9409C105.346 48.4708 105.07 48.0851 104.691 47.7837C104.312 47.4824 103.851 47.2948 103.31 47.2209C102.768 47.147 102.274 47.2044 101.828 47.3931C101.395 47.5836 101.026 47.8814 100.721 48.2864C100.431 48.6803 100.245 49.1739 100.164 49.7671ZM111.614 56.2157L109.273 55.8964L111.236 41.5044L113.577 41.8237L111.614 56.2157ZM28.748 63.237C28.8817 62.2569 29.2003 61.4137 29.7039 60.7074C30.2204 60.0028 30.8623 59.4861 31.6296 59.1573C32.4116 58.8174 33.2733 58.7116 34.2148 58.84C35.5173 59.0177 36.5346 59.5046 37.2667 60.3007C38.0134 61.0857 38.373 62.0608 38.3453 63.2262L35.9854 62.9042C35.9174 62.3432 35.7085 61.9009 35.3585 61.5773C35.0232 61.2426 34.5719 61.0365 34.0045 60.9591C33.5144 60.8922 33.0592 60.9549 32.6389 61.1472C32.2333 61.3283 31.8974 61.624 31.6312 62.0343C31.3651 62.4446 31.1906 62.9528 31.1079 63.559C31.0253 64.1651 31.0507 64.7006 31.1843 65.1654C31.318 65.6303 31.5486 66.0098 31.8763 66.3041C32.2186 66.5873 32.6412 66.7632 33.1442 66.8318C33.7374 66.9127 34.2468 66.8377 34.6724 66.6068C35.1109 66.3776 35.4306 66.0074 35.6317 65.4963L38.0111 65.8209C37.8058 66.5548 37.4517 67.1764 36.9488 67.6858C36.4604 68.184 35.8654 68.5495 35.1638 68.7822C34.4638 69.0019 33.6947 69.0546 32.8565 68.9403C31.8893 68.8083 31.0728 68.4867 30.4069 67.9755C29.7428 67.4515 29.2618 66.7882 28.9641 65.9856C28.681 65.172 28.609 64.2558 28.748 63.237ZM47.0739 60.8899L49.4339 61.2119L48.1302 70.7679L45.9443 70.4697L45.9444 69.1692C45.5991 69.5819 45.1234 69.8913 44.5172 70.0976C43.9111 70.3039 43.2856 70.3631 42.6408 70.2751C41.5447 70.1256 40.7346 69.6604 40.2106 68.8796C39.6866 68.0987 39.5037 67.128 39.6621 65.9673L40.4776 59.99L42.8375 60.312L42.1355 65.4575C42.0124 66.3602 42.0976 67.0352 42.3913 67.4825C42.6849 67.9298 43.1606 68.1983 43.8183 68.288C44.5663 68.3901 45.1507 68.2465 45.5716 67.8573C45.9943 67.4552 46.2672 66.8028 46.3904 65.9001L47.0739 60.8899ZM57.8733 62.3239L57.5751 64.5097L56.7046 64.391C55.8406 64.2731 55.1318 64.4129 54.5785 64.8103C54.0268 65.1948 53.6877 65.8513 53.561 66.7798L52.9276 71.4224L50.5677 71.1004L51.8687 61.5638L54.0933 61.8673L54.0175 63.8668L53.7854 63.8351C54.0006 63.2208 54.374 62.7463 54.9057 62.4116C55.4374 62.0769 56.0837 61.9615 56.8445 62.0653C57.0122 62.0882 57.179 62.1175 57.3449 62.1533C57.5107 62.189 57.6869 62.2459 57.8733 62.3239ZM65.4673 63.3599L65.1691 65.5458L64.2986 65.427C63.4346 65.3092 62.7259 65.4489 62.1725 65.8463C61.6209 66.2308 61.2817 66.8873 61.1551 67.8158L60.5217 72.4584L58.1617 72.1365L59.4628 62.5998L61.6873 62.9033L61.6116 64.9028L61.3795 64.8711C61.5946 64.2568 61.9681 63.7823 62.4998 63.4477C63.0315 63.113 63.6777 62.9975 64.4386 63.1013C64.6062 63.1242 64.773 63.1535 64.9389 63.1893C65.1048 63.2251 65.2809 63.2819 65.4673 63.3599ZM69.6754 73.9634C68.7339 73.835 67.9247 73.5078 67.2477 72.982C66.5854 72.445 66.0989 71.7743 65.7882 70.9701C65.4794 70.1529 65.3918 69.2543 65.5255 68.2742C65.661 67.2812 65.9805 66.4315 66.4841 65.7252C66.9877 65.0189 67.6296 64.5022 68.4098 64.1751C69.1918 63.8352 70.0471 63.7286 70.9756 63.8552C71.9428 63.9872 72.7464 64.307 73.3865 64.8147C74.0283 65.3095 74.487 65.9435 74.7625 66.7167C75.0508 67.4916 75.1264 68.382 74.9891 69.3879L74.8915 70.1037L66.687 69.004L66.9315 67.5005L72.7541 68.2948C72.8438 67.6371 72.7032 67.0794 72.3321 66.6215C71.974 66.1655 71.4403 65.889 70.731 65.7923C70.1765 65.7166 69.6899 65.7685 69.2714 65.9478C68.8657 66.1289 68.5345 66.4384 68.2777 66.8763C68.021 67.3141 67.8468 67.8684 67.7553 68.539C67.6146 69.5707 67.7274 70.3808 68.0937 70.9693C68.4729 71.5596 69.101 71.9146 69.9779 72.0343C70.6228 72.1222 71.1682 72.0718 71.6143 71.8831C72.0733 71.6962 72.3981 71.3858 72.5886 70.952L74.7745 71.2502C74.4256 72.2667 73.7981 73.0152 72.8918 73.4958C71.9984 73.9782 70.9263 74.134 69.6754 73.9634ZM78.5623 74.9197L76.2023 74.5977L77.506 65.0417L79.6919 65.3399L79.7164 66.6044C80.0781 66.1677 80.5483 65.8509 81.1269 65.6539C81.7183 65.4588 82.3365 65.4052 82.9813 65.4931C84.1806 65.6568 85.035 66.1346 85.5443 66.9265C86.0665 67.7203 86.2441 68.7297 86.077 69.9548L85.2747 75.8354L82.9147 75.5134L83.6404 70.1938C83.7495 69.3943 83.6499 68.7764 83.3416 68.3403C83.0351 67.8912 82.5723 67.6245 81.9533 67.54C81.2182 67.4398 80.6127 67.5936 80.1366 68.0016C79.6606 68.4095 79.3698 69.0004 79.2643 69.7741L78.5623 74.9197ZM87.9492 66.4665L93.9459 67.2846L93.6767 69.2577L87.6801 68.4396L87.9492 66.4665ZM92.9026 74.7874L92.9121 76.7394C92.3388 76.8977 91.7169 76.9311 91.0463 76.8396C90.4531 76.7586 89.9449 76.5842 89.5217 76.3163C89.1002 76.0355 88.7995 75.6398 88.6196 75.1292C88.4526 74.6204 88.4209 73.9855 88.5247 73.2247L89.8258 63.6881L92.1664 64.0074L90.9208 73.1378C90.8434 73.7052 90.8985 74.1199 91.086 74.382C91.2882 74.6329 91.5634 74.7821 91.9116 74.8296C92.2211 74.8718 92.5515 74.8578 92.9026 74.7874ZM96.8489 77.4145L94.5083 77.0951L96.4718 62.7032L98.8124 63.0225L96.8489 77.4145ZM102.04 68.3889L103.951 77.6347L102.345 79.8785L99.5449 68.0484L102.04 68.3889ZM97.8884 82.0685L98.1549 80.1148L99.567 80.3074C99.8765 80.3496 100.153 80.3479 100.395 80.3022C100.636 80.2694 100.86 80.1686 101.067 79.9998C101.287 79.8327 101.487 79.571 101.667 79.2146L107.089 69.0777L109.526 69.4102L103.251 80.4554C102.783 81.2848 102.258 81.8633 101.675 82.191C101.091 82.5186 100.406 82.6288 99.6197 82.5214C99.2844 82.4757 98.971 82.4133 98.6797 82.3341C98.3995 82.2696 98.1357 82.1811 97.8884 82.0685ZM117.586 80.4998C116.58 80.3625 115.818 79.9826 115.299 79.3601C114.794 78.7264 114.602 77.9646 114.724 77.0748C114.843 76.1979 115.241 75.5428 115.918 75.1097C116.609 74.6654 117.528 74.4755 118.675 74.5401L121.57 74.6985L121.599 74.4857C121.659 74.0473 121.622 73.6876 121.49 73.4068C121.372 73.1149 121.173 72.8907 120.892 72.7342C120.613 72.5647 120.274 72.4527 119.874 72.3982C119.177 72.3032 118.623 72.372 118.21 72.6047C117.799 72.8245 117.56 73.1859 117.491 73.6888L115.479 73.4144C115.574 72.718 115.83 72.1421 116.247 71.6866C116.678 71.2201 117.236 70.8889 117.919 70.6932C118.616 70.4992 119.39 70.4602 120.241 70.5764C121.105 70.6942 121.825 70.9501 122.402 71.3441C122.98 71.7252 123.396 72.2416 123.649 72.8935C123.903 73.5324 123.969 74.2968 123.848 75.1867L123.056 80.9899L120.987 80.7075L121.005 79.2716C120.732 79.7335 120.278 80.0788 119.642 80.3073C119.02 80.5377 118.334 80.6018 117.586 80.4998ZM118.584 78.823C119.319 78.9233 119.927 78.7962 120.409 78.4415C120.904 78.0887 121.201 77.5447 121.302 76.8097L121.37 76.3067L119.357 76.1896C118.613 76.1538 118.069 76.2373 117.726 76.4401C117.385 76.63 117.188 76.9184 117.135 77.3053C117.077 77.7309 117.175 78.0726 117.429 78.3306C117.683 78.5885 118.068 78.7527 118.584 78.823ZM125.468 76.4323C125.602 75.4522 125.921 74.609 126.424 73.9027C126.941 73.1981 127.583 72.6814 128.35 72.3526C129.132 72.0127 129.994 71.9069 130.935 72.0354C132.238 72.2131 133.255 72.7 133.987 73.496C134.734 74.281 135.093 75.2561 135.066 76.4215L132.706 76.0995C132.638 75.5385 132.429 75.0962 132.079 74.7726C131.744 74.4379 131.292 74.2318 130.725 74.1544C130.235 74.0876 129.78 74.1503 129.359 74.3425C128.954 74.5236 128.618 74.8193 128.352 75.2296C128.085 75.64 127.911 76.1482 127.828 76.7543C127.746 77.3604 127.771 77.8959 127.905 78.3607C128.038 78.8256 128.269 79.2052 128.597 79.4995C128.939 79.7826 129.362 79.9585 129.864 80.0271C130.458 80.108 130.967 80.033 131.393 79.8021C131.831 79.5729 132.151 79.2028 132.352 78.6916L134.731 79.0162C134.526 79.7501 134.172 80.3718 133.669 80.8811C133.181 81.3794 132.586 81.7448 131.884 81.9775C131.184 82.1973 130.415 82.25 129.577 82.1356C128.61 82.0036 127.793 81.6821 127.127 81.1709C126.463 80.6468 125.982 79.9835 125.684 79.181C125.401 78.3673 125.329 77.4511 125.468 76.4323ZM136.366 73.0719L142.363 73.89L142.094 75.8631L136.097 75.045L136.366 73.0719ZM141.319 81.3928L141.329 83.3448C140.756 83.5031 140.134 83.5364 139.463 83.445C138.87 83.364 138.362 83.1896 137.938 82.9217C137.517 82.6409 137.216 82.2452 137.036 81.7346C136.869 81.2258 136.838 80.5909 136.942 79.8301L138.243 70.2934L140.583 70.6128L139.338 79.7432C139.26 80.3106 139.315 80.7253 139.503 80.9874C139.705 81.2383 139.98 81.3875 140.328 81.435C140.638 81.4772 140.968 81.4632 141.319 81.3928ZM142.886 83.6952L144.19 74.1393L146.55 74.4612L145.246 84.0172L142.886 83.6952ZM145.612 72.3826C145.212 72.328 144.889 72.146 144.642 71.8365C144.41 71.5158 144.321 71.1556 144.376 70.7558C144.43 70.356 144.612 70.0392 144.919 69.8053C145.24 69.5732 145.6 69.4844 146 69.539C146.4 69.5935 146.717 69.7747 146.95 70.0824C147.197 70.392 147.293 70.7466 147.239 71.1464C147.184 71.5462 146.996 71.8686 146.673 72.1136C146.366 72.3474 146.012 72.4371 145.612 72.3826ZM150.393 84.7193L147.905 74.6461L150.42 74.9892L151.484 79.6072C151.613 80.2028 151.716 80.7489 151.793 81.2454C151.884 81.7307 151.945 82.1068 151.974 82.3735C152.079 82.0857 152.24 81.7202 152.458 81.2771C152.691 80.8228 152.947 80.3454 153.225 79.8448L155.565 75.6912L158.003 76.0237L152.714 85.036L150.393 84.7193ZM161.843 86.5376C160.902 86.4092 160.092 86.082 159.415 85.5562C158.753 85.0192 158.266 84.3486 157.956 83.5443C157.647 82.7271 157.559 81.8285 157.693 80.8484C157.829 79.8554 158.148 79.0057 158.652 78.2994C159.155 77.5931 159.797 77.0764 160.577 76.7493C161.359 76.4094 162.215 76.3028 163.143 76.4294C164.11 76.5614 164.914 76.8812 165.554 77.3889C166.196 77.8837 166.655 78.5177 166.93 79.2909C167.218 80.0658 167.294 80.9563 167.157 81.9621L167.059 82.6779L158.855 81.5783L159.099 80.0747L164.922 80.8691C165.011 80.2114 164.871 79.6536 164.5 79.1958C164.142 78.7397 163.608 78.4633 162.899 78.3665C162.344 78.2908 161.858 78.3427 161.439 78.522C161.033 78.7031 160.702 79.0126 160.445 79.4505C160.189 79.8884 160.014 80.4426 159.923 81.1132C159.782 82.1449 159.895 82.955 160.261 83.5435C160.641 84.1339 161.269 84.4888 162.146 84.6085C162.79 84.6964 163.336 84.6461 163.782 84.4573C164.241 84.2704 164.566 83.96 164.756 83.5262L166.942 83.8245C166.593 84.8409 165.966 85.5894 165.059 86.07C164.166 86.5524 163.094 86.7083 161.843 86.5376Z" fill="#101011"/>
</g>
<g filter="url(#filter1_bi_68_540)">
<rect x="0.332153" y="26.095" width="279.266" height="97.806" rx="27.9266" fill="#1D2025"/>
<path d="M23.329 70.1605H20.7726V55.3296H23.3493L31.059 66.9955H30.3083V55.3296H32.8646V70.1605H30.3083L22.5783 58.5149H23.329V70.1605ZM35.194 65.129C35.194 64.0875 35.424 63.1745 35.8838 62.39C36.3437 61.592 36.9794 60.9698 37.791 60.5234C38.6025 60.0771 39.5223 59.8539 40.5502 59.8539C41.5917 59.8539 42.5114 60.0771 43.3095 60.5234C44.121 60.9698 44.7567 61.592 45.2166 62.39C45.6765 63.1745 45.9064 64.0875 45.9064 65.129C45.9064 66.1704 45.6765 67.0902 45.2166 67.8882C44.7567 68.6727 44.121 69.2881 43.3095 69.7345C42.5114 70.1808 41.5917 70.404 40.5502 70.404C39.5223 70.404 38.6025 70.1808 37.791 69.7345C36.9794 69.2881 36.3437 68.6727 35.8838 67.8882C35.424 67.0902 35.194 66.1704 35.194 65.129ZM37.6692 65.129C37.6692 65.7376 37.791 66.2719 38.0344 66.7318C38.2914 67.1916 38.6296 67.5501 39.0489 67.807C39.4817 68.064 39.9821 68.1925 40.5502 68.1925C41.1183 68.1925 41.6187 68.064 42.0516 67.807C42.4844 67.5501 42.8225 67.1916 43.066 66.7318C43.3095 66.2719 43.4312 65.7376 43.4312 65.129C43.4312 64.5068 43.3095 63.9725 43.066 63.5262C42.8225 63.0663 42.4844 62.7079 42.0516 62.4509C41.6187 62.1939 41.1183 62.0654 40.5502 62.0654C39.9821 62.0654 39.4817 62.1939 39.0489 62.4509C38.6296 62.7079 38.2914 63.0663 38.0344 63.5262C37.791 63.9725 37.6692 64.5068 37.6692 65.129ZM53.3368 74.8066V60.138H55.6294L55.7917 61.6596C56.0893 61.078 56.5491 60.6317 57.1713 60.3206C57.7935 59.9959 58.4765 59.8336 59.2205 59.8336C60.1808 59.8336 61.0058 60.05 61.6957 60.4829C62.399 60.9157 62.9468 61.5176 63.339 62.2886C63.7313 63.0595 63.9274 63.9725 63.9274 65.0275C63.9274 66.069 63.7448 66.9955 63.3796 67.807C63.0144 68.6186 62.4802 69.2611 61.7768 69.7345C61.087 70.1943 60.2416 70.4243 59.2407 70.4243C58.4968 70.4243 57.8138 70.2823 57.1916 69.9982C56.5829 69.7142 56.1231 69.3219 55.812 68.8215V74.8066H53.3368ZM55.8323 65.1492C55.8323 65.7444 55.9472 66.2719 56.1772 66.7318C56.4071 67.1916 56.7317 67.5568 57.151 67.8273C57.5838 68.0843 58.0843 68.2128 58.6524 68.2128C59.234 68.2128 59.7344 68.0843 60.1537 67.8273C60.573 67.5568 60.8909 67.1916 61.1073 66.7318C61.3237 66.2719 61.4319 65.7444 61.4319 65.1492C61.4319 64.5541 61.3237 64.0266 61.1073 63.5667C60.8909 63.1069 60.573 62.7484 60.1537 62.4914C59.7344 62.2209 59.234 62.0857 58.6524 62.0857C58.0843 62.0857 57.5838 62.2142 57.151 62.4712C56.7317 62.7281 56.4071 63.0866 56.1772 63.5464C55.9472 64.0063 55.8323 64.5406 55.8323 65.1492ZM68.8807 70.4243C67.8257 70.4243 66.9871 70.1402 66.3649 69.5722C65.7562 68.9905 65.4519 68.2331 65.4519 67.2998C65.4519 66.3801 65.7698 65.6497 66.4055 65.1087C67.0547 64.5541 67.9744 64.2295 69.1647 64.1348L72.1674 63.8914V63.6682C72.1674 63.2083 72.0795 62.8431 71.9037 62.5726C71.7414 62.2886 71.5047 62.0857 71.1936 61.9639C70.8825 61.8287 70.5173 61.7611 70.098 61.7611C69.3676 61.7611 68.8063 61.9098 68.414 62.2074C68.0218 62.4914 67.8257 62.8972 67.8257 63.4247H65.7157C65.7157 62.6943 65.8982 62.0654 66.2634 61.5379C66.6422 60.9968 67.1697 60.5776 67.846 60.28C68.5358 59.9824 69.327 59.8336 70.2197 59.8336C71.1259 59.8336 71.9037 59.9959 72.5529 60.3206C73.2021 60.6317 73.7026 61.1051 74.0543 61.7408C74.4059 62.3629 74.5818 63.1407 74.5818 64.0739V70.1605H72.4109L72.2283 68.6795C72.0119 69.1934 71.5926 69.6127 70.9704 69.9373C70.3617 70.262 69.6652 70.4243 68.8807 70.4243ZM69.6719 68.5577C70.4429 68.5577 71.0515 68.3413 71.4979 67.9085C71.9578 67.4757 72.1877 66.8738 72.1877 66.1028V65.5753L70.098 65.7376C69.327 65.8052 68.7792 65.9675 68.4546 66.2245C68.13 66.468 67.9677 66.7926 67.9677 67.1984C67.9677 67.6447 68.1165 67.9829 68.414 68.2128C68.7116 68.4428 69.1309 68.5577 69.6719 68.5577ZM76.2424 67.1172H78.5959C78.6094 67.5501 78.7717 67.895 79.0828 68.152C79.3939 68.4089 79.8267 68.5374 80.3813 68.5374C80.9764 68.5374 81.4228 68.4292 81.7203 68.2128C82.0314 67.9964 82.187 67.7056 82.187 67.3404C82.187 67.0969 82.1058 66.8805 81.9435 66.6912C81.7812 66.5018 81.4769 66.3598 81.0305 66.2651L79.2248 65.8391C78.3186 65.6362 77.6423 65.3116 77.196 64.8652C76.7632 64.4053 76.5467 63.7764 76.5467 62.9784C76.5467 62.3291 76.7158 61.7678 77.054 61.2944C77.4056 60.821 77.879 60.4626 78.4742 60.2191C79.0693 59.9621 79.7523 59.8336 80.5233 59.8336C81.2672 59.8336 81.9232 59.9689 82.4913 60.2394C83.0594 60.5099 83.499 60.8886 83.8101 61.3756C84.1347 61.8625 84.3037 62.4306 84.3173 63.0798H81.9638C81.9638 62.647 81.8285 62.3088 81.558 62.0654C81.2875 61.8084 80.9088 61.6799 80.4219 61.6799C79.9349 61.6799 79.5562 61.7881 79.2857 62.0045C79.0152 62.2209 78.8799 62.5117 78.8799 62.8769C78.8799 63.4315 79.3128 63.8102 80.1784 64.0131L81.9841 64.4391C82.8227 64.6285 83.4516 64.9328 83.8709 65.3521C84.3037 65.7714 84.5202 66.3666 84.5202 67.1375C84.5202 67.8138 84.3443 68.4022 83.9927 68.9026C83.641 69.3896 83.1473 69.7683 82.5116 70.0388C81.8759 70.2958 81.1455 70.4243 80.3204 70.4243C79.0761 70.4243 78.0819 70.1199 77.338 69.5113C76.6076 68.9026 76.2424 68.1046 76.2424 67.1172ZM85.4106 60.138H91.7001V62.2074H85.4106V60.138ZM91.6798 68.0099L91.9638 70.0185C91.3958 70.262 90.76 70.3837 90.0567 70.3837C89.4345 70.3837 88.8867 70.2755 88.4133 70.0591C87.9399 69.8291 87.5747 69.4639 87.3178 68.9635C87.0743 68.463 86.9526 67.8138 86.9526 67.0158V57.0135H89.4075V66.5897C89.4075 67.1849 89.5224 67.6042 89.7524 67.8476C89.9958 68.0776 90.3002 68.1925 90.6654 68.1925C90.99 68.1925 91.3281 68.1317 91.6798 68.0099ZM22.7001 94.1605H20.4075V79.0658H22.8827V85.5987C23.2073 85.0307 23.6807 84.5978 24.3029 84.3003C24.925 83.9892 25.6216 83.8336 26.3926 83.8336C27.3529 83.8336 28.1712 84.0636 28.8475 84.5234C29.5373 84.9698 30.0648 85.5987 30.43 86.4103C30.8087 87.2218 30.9981 88.1619 30.9981 89.2304C30.9981 90.2448 30.802 91.1443 30.4097 91.9288C30.0175 92.7133 29.4629 93.3287 28.7461 93.775C28.0292 94.2079 27.1906 94.4243 26.2303 94.4243C25.4864 94.4243 24.8101 94.262 24.2014 93.9373C23.6063 93.6127 23.1599 93.1664 22.8624 92.5983L22.7001 94.1605ZM22.9029 89.1087C22.9029 89.7038 23.0179 90.2381 23.2479 90.7115C23.4778 91.1713 23.8024 91.5298 24.2217 91.7868C24.6545 92.0302 25.155 92.152 25.7231 92.152C26.3047 92.152 26.8051 92.0235 27.2244 91.7665C27.6437 91.5095 27.9616 91.151 28.178 90.6912C28.3944 90.2313 28.5026 89.7038 28.5026 89.1087C28.5026 88.5135 28.3944 87.986 28.178 87.5262C27.9616 87.0663 27.6437 86.7079 27.2244 86.4509C26.8051 86.1803 26.3047 86.0451 25.7231 86.0451C25.155 86.0451 24.6545 86.1803 24.2217 86.4509C23.8024 86.7079 23.4778 87.0663 23.2479 87.5262C23.0179 87.9725 22.9029 88.5 22.9029 89.1087ZM35.9514 94.4243C34.8964 94.4243 34.0578 94.1402 33.4356 93.5722C32.8269 92.9905 32.5226 92.2331 32.5226 91.2998C32.5226 90.3801 32.8404 89.6497 33.4761 89.1087C34.1254 88.5541 35.0451 88.2295 36.2354 88.1348L39.2381 87.8914V87.6682C39.2381 87.2083 39.1502 86.8431 38.9744 86.5726C38.812 86.2886 38.5753 86.0857 38.2643 85.9639C37.9532 85.8287 37.588 85.7611 37.1687 85.7611C36.4383 85.7611 35.877 85.9098 35.4847 86.2074C35.0925 86.4914 34.8964 86.8972 34.8964 87.4247H32.7863C32.7863 86.6943 32.9689 86.0654 33.3341 85.5379C33.7128 84.9968 34.2404 84.5776 34.9166 84.28C35.6065 83.9824 36.3977 83.8336 37.2904 83.8336C38.1966 83.8336 38.9744 83.9959 39.6236 84.3206C40.2728 84.6317 40.7733 85.1051 41.1249 85.7408C41.4766 86.3629 41.6524 87.1407 41.6524 88.0739V94.1605H39.4816L39.299 92.6795C39.0826 93.1934 38.6633 93.6127 38.0411 93.9373C37.4324 94.262 36.7358 94.4243 35.9514 94.4243ZM36.7426 92.5577C37.5136 92.5577 38.1222 92.3413 38.5686 91.9085C39.0285 91.4757 39.2584 90.8738 39.2584 90.1028V89.5753L37.1687 89.7376C36.3977 89.8052 35.8499 89.9675 35.5253 90.2245C35.2007 90.468 35.0384 90.7926 35.0384 91.1984C35.0384 91.6447 35.1872 91.9829 35.4847 92.2128C35.7823 92.4428 36.2016 92.5577 36.7426 92.5577ZM46.3767 94.1605H44.0841V79.0658H46.5593V85.5987C46.8839 85.0307 47.3573 84.5978 47.9795 84.3003C48.6017 83.9892 49.2982 83.8336 50.0692 83.8336C51.0295 83.8336 51.8478 84.0636 52.5241 84.5234C53.2139 84.9698 53.7414 85.5987 54.1066 86.4103C54.4853 87.2218 54.6747 88.1619 54.6747 89.2304C54.6747 90.2448 54.4786 91.1443 54.0863 91.9288C53.6941 92.7133 53.1395 93.3287 52.4227 93.775C51.7058 94.2079 50.8672 94.4243 49.9069 94.4243C49.163 94.4243 48.4867 94.262 47.878 93.9373C47.2829 93.6127 46.8365 93.1664 46.539 92.5983L46.3767 94.1605ZM46.5796 89.1087C46.5796 89.7038 46.6945 90.2381 46.9245 90.7115C47.1544 91.1713 47.479 91.5298 47.8983 91.7868C48.3311 92.0302 48.8316 92.152 49.3997 92.152C49.9813 92.152 50.4817 92.0235 50.901 91.7665C51.3203 91.5095 51.6382 91.151 51.8546 90.6912C52.071 90.2313 52.1792 89.7038 52.1792 89.1087C52.1792 88.5135 52.071 87.986 51.8546 87.5262C51.6382 87.0663 51.3203 86.7079 50.901 86.4509C50.4817 86.1803 49.9813 86.0451 49.3997 86.0451C48.8316 86.0451 48.3311 86.1803 47.8983 86.4509C47.479 86.7079 47.1544 87.0663 46.9245 87.5262C46.6945 87.9725 46.5796 88.5 46.5796 89.1087ZM56.0572 89.129C56.0572 88.0875 56.2871 87.1745 56.747 86.39C57.2069 85.592 57.8426 84.9698 58.6541 84.5234C59.4657 84.0771 60.3854 83.8539 61.4134 83.8539C62.4548 83.8539 63.3746 84.0771 64.1726 84.5234C64.9842 84.9698 65.6199 85.592 66.0797 86.39C66.5396 87.1745 66.7695 88.0875 66.7695 89.129C66.7695 90.1704 66.5396 91.0902 66.0797 91.8882C65.6199 92.6727 64.9842 93.2881 64.1726 93.7345C63.3746 94.1808 62.4548 94.404 61.4134 94.404C60.3854 94.404 59.4657 94.1808 58.6541 93.7345C57.8426 93.2881 57.2069 92.6727 56.747 91.8882C56.2871 91.0902 56.0572 90.1704 56.0572 89.129ZM58.5324 89.129C58.5324 89.7376 58.6541 90.2719 58.8976 90.7318C59.1546 91.1916 59.4927 91.5501 59.912 91.807C60.3448 92.064 60.8453 92.1925 61.4134 92.1925C61.9814 92.1925 62.4819 92.064 62.9147 91.807C63.3475 91.5501 63.6857 91.1916 63.9291 90.7318C64.1726 90.2719 64.2943 89.7376 64.2943 89.129C64.2943 88.5068 64.1726 87.9725 63.9291 87.5262C63.6857 87.0663 63.3475 86.7079 62.9147 86.4509C62.4819 86.1939 61.9814 86.0654 61.4134 86.0654C60.8453 86.0654 60.3448 86.1939 59.912 86.4509C59.4927 86.7079 59.1546 87.0663 58.8976 87.5262C58.6541 87.9725 58.5324 88.5068 58.5324 89.129ZM71.227 94.1605H68.7721V79.0658H71.227V94.1605ZM78.2977 84.138H84.5872V86.2074H78.2977V84.138ZM84.6075 79.1673V81.2773C84.4722 81.2773 84.3302 81.2773 84.1814 81.2773C84.0462 81.2773 83.9041 81.2773 83.7554 81.2773C83.1332 81.2773 82.7139 81.4261 82.4975 81.7236C82.2946 82.0212 82.1931 82.4202 82.1931 82.9206V94.1605H79.7382V82.9206C79.7382 82.0009 79.887 81.2637 80.1846 80.7092C80.4821 80.1411 80.9014 79.7286 81.4425 79.4716C81.9835 79.2011 82.6124 79.0658 83.3293 79.0658C83.5322 79.0658 83.7418 79.0726 83.9583 79.0861C84.1882 79.0996 84.4046 79.1267 84.6075 79.1673ZM85.2814 89.129C85.2814 88.0875 85.5114 87.1745 85.9713 86.39C86.4311 85.592 87.0668 84.9698 87.8784 84.5234C88.6899 84.0771 89.6097 83.8539 90.6376 83.8539C91.6791 83.8539 92.5989 84.0771 93.3969 84.5234C94.2084 84.9698 94.8441 85.592 95.304 86.39C95.7639 87.1745 95.9938 88.0875 95.9938 89.129C95.9938 90.1704 95.7639 91.0902 95.304 91.8882C94.8441 92.6727 94.2084 93.2881 93.3969 93.7345C92.5989 94.1808 91.6791 94.404 90.6376 94.404C89.6097 94.404 88.6899 94.1808 87.8784 93.7345C87.0668 93.2881 86.4311 92.6727 85.9713 91.8882C85.5114 91.0902 85.2814 90.1704 85.2814 89.129ZM87.7567 89.129C87.7567 89.7376 87.8784 90.2719 88.1218 90.7318C88.3788 91.1916 88.717 91.5501 89.1363 91.807C89.5691 92.064 90.0696 92.1925 90.6376 92.1925C91.2057 92.1925 91.7062 92.064 92.139 91.807C92.5718 91.5501 92.91 91.1916 93.1534 90.7318C93.3969 90.2719 93.5186 89.7376 93.5186 89.129C93.5186 88.5068 93.3969 87.9725 93.1534 87.5262C92.91 87.0663 92.5718 86.7079 92.139 86.4509C91.7062 86.1939 91.2057 86.0654 90.6376 86.0654C90.0696 86.0654 89.5691 86.1939 89.1363 86.4509C88.717 86.7079 88.3788 87.0663 88.1218 87.5262C87.8784 87.9725 87.7567 88.5068 87.7567 89.129ZM104.515 84.138H106.99V94.1605H104.697L104.515 92.8215C104.217 93.2949 103.771 93.6804 103.176 93.9779C102.581 94.2755 101.945 94.4243 101.269 94.4243C100.119 94.4243 99.2194 94.0591 98.5702 93.3287C97.9209 92.5983 97.5963 91.6245 97.5963 90.4071V84.138H100.072V89.5347C100.072 90.4815 100.254 91.1646 100.619 91.5839C100.984 92.0032 101.512 92.2128 102.202 92.2128C102.986 92.2128 103.568 91.9829 103.947 91.523C104.325 91.0496 104.515 90.3395 104.515 89.3927V84.138ZM112.022 94.1605H109.546V84.138H111.839L112.042 85.4364C112.353 84.936 112.793 84.5437 113.361 84.2597C113.942 83.9757 114.571 83.8336 115.248 83.8336C116.505 83.8336 117.452 84.2056 118.088 84.9495C118.737 85.6934 119.062 86.7079 119.062 87.9928V94.1605H116.587V88.5812C116.587 87.7426 116.397 87.1204 116.018 86.7146C115.64 86.2953 115.126 86.0857 114.477 86.0857C113.706 86.0857 113.104 86.3291 112.671 86.8161C112.238 87.303 112.022 87.9522 112.022 88.7638V94.1605ZM125.612 94.4243C124.638 94.4243 123.8 94.2079 123.097 93.775C122.407 93.3287 121.866 92.7133 121.473 91.9288C121.095 91.1443 120.905 90.2313 120.905 89.1898C120.905 88.1483 121.095 87.2286 121.473 86.4306C121.866 85.619 122.427 84.9833 123.157 84.5234C123.888 84.0636 124.753 83.8336 125.754 83.8336C126.458 83.8336 127.1 83.9757 127.682 84.2597C128.263 84.5302 128.71 84.9157 129.021 85.4161V79.0658H131.476V94.1605H129.203L129.041 92.5983C128.743 93.1664 128.284 93.6127 127.661 93.9373C127.053 94.262 126.37 94.4243 125.612 94.4243ZM126.16 92.152C126.742 92.152 127.242 92.0302 127.661 91.7868C128.081 91.5298 128.405 91.1713 128.635 90.7115C128.879 90.2381 129 89.7038 129 89.1087C129 88.5 128.879 87.9725 128.635 87.5262C128.405 87.0663 128.081 86.7079 127.661 86.4509C127.242 86.1803 126.742 86.0451 126.16 86.0451C125.592 86.0451 125.098 86.1803 124.679 86.4509C124.26 86.7079 123.935 87.0663 123.705 87.5262C123.489 87.986 123.381 88.5135 123.381 89.1087C123.381 89.7038 123.489 90.2313 123.705 90.6912C123.935 91.151 124.26 91.5095 124.679 91.7665C125.098 92.0235 125.592 92.152 126.16 92.152Z" fill="white"/>
</g>
<g filter="url(#filter2_bdi_68_540)">
<rect x="198.718" y="37.1307" width="93.5586" height="93.5587" rx="22.3903" transform="rotate(18.61 198.718 37.1307)" fill="#3D3F42"/>
<ellipse cx="227.535" cy="97.7185" rx="23.3644" ry="23.3642" transform="rotate(18.61 227.535 97.7185)" fill="#1D2025"/>
<path fill-rule="evenodd" clip-rule="evenodd" d="M253.854 110.215C253.975 109.959 254.092 109.701 254.206 109.441C254.551 108.654 254.864 107.845 255.144 107.015C255.423 106.185 255.663 105.351 255.865 104.516C255.931 104.24 255.994 103.963 256.052 103.687C256.111 103.408 256.165 103.13 256.215 102.852L254.611 102.465L254.212 104.117C254.022 104.904 253.796 105.69 253.533 106.472C253.269 107.255 252.974 108.017 252.649 108.759L251.967 110.316L253.479 110.978C253.607 110.726 253.732 110.472 253.854 110.215ZM252.069 113.44L250.734 112.47L249.735 113.846C248.768 115.178 247.69 116.408 246.519 117.528L245.29 118.704L246.431 119.896C246.647 119.712 246.86 119.526 247.071 119.335C247.281 119.146 247.489 118.953 247.694 118.757C248.938 117.567 250.083 116.26 251.111 114.845C251.277 114.616 251.44 114.384 251.6 114.15C251.759 113.916 251.916 113.679 252.069 113.44ZM244.183 121.627L243.321 120.219L241.871 121.107C240.478 121.96 239.011 122.688 237.489 123.281L235.905 123.899L236.504 125.437C236.774 125.349 237.043 125.258 237.31 125.162C237.577 125.067 237.842 124.968 238.106 124.865C239.722 124.235 241.28 123.462 242.759 122.557C243 122.409 243.24 122.257 243.477 122.102C243.715 121.947 243.95 121.789 244.183 121.627ZM233.766 126.18L233.507 124.55L231.828 124.818C230.227 125.073 228.595 125.187 226.95 125.151L225.25 125.115L225.215 126.764C225.498 126.787 225.781 126.806 226.064 126.82C226.347 126.835 226.63 126.845 226.913 126.851C228.661 126.889 230.395 126.768 232.095 126.497C232.375 126.452 232.654 126.403 232.933 126.351C233.212 126.298 233.489 126.241 233.766 126.18ZM222.402 126.398L222.789 124.793L221.136 124.395C220.349 124.205 219.564 123.979 218.781 123.715C217.999 123.452 217.236 123.157 216.495 122.832L214.938 122.15L214.275 123.661C214.527 123.79 214.782 123.915 215.039 124.037C215.294 124.157 215.552 124.275 215.813 124.389C216.6 124.734 217.409 125.047 218.239 125.327C219.069 125.606 219.902 125.846 220.738 126.047C221.014 126.114 221.29 126.176 221.567 126.235C221.845 126.293 222.124 126.348 222.402 126.398ZM211.814 122.252L212.783 120.916L211.408 119.918C210.076 118.951 208.845 117.873 207.725 116.702L206.55 115.473L205.358 116.614C205.541 116.83 205.728 117.043 205.918 117.254C206.108 117.464 206.301 117.672 206.497 117.877C207.687 119.121 208.994 120.266 210.409 121.293C210.638 121.46 210.87 121.623 211.104 121.783C211.338 121.942 211.575 122.099 211.814 122.252ZM203.627 114.366L205.034 113.504L204.147 112.054C203.294 110.661 202.566 109.193 201.972 107.671L201.355 106.088L199.817 106.687C199.904 106.957 199.996 107.226 200.091 107.493C200.186 107.76 200.286 108.025 200.388 108.289C201.019 109.905 201.791 111.462 202.697 112.942C202.845 113.183 202.996 113.423 203.151 113.66C203.306 113.898 203.465 114.133 203.627 114.366ZM199.073 103.949L200.703 103.689L200.436 102.011C200.181 100.41 200.066 98.7783 200.102 97.133L200.139 95.4333L198.489 95.3976C198.466 95.6809 198.448 95.9639 198.433 96.2466C198.419 96.5301 198.409 96.8133 198.402 97.0962C198.365 98.8444 198.486 100.578 198.757 102.278C198.801 102.558 198.85 102.837 198.903 103.116C198.956 103.394 199.012 103.672 199.073 103.949ZM198.855 92.5849L200.46 92.9718L200.859 91.3192C201.048 90.5323 201.274 89.7466 201.538 88.9641C201.801 88.1816 202.097 87.4192 202.421 86.6778L203.104 85.1207L201.592 84.4583C201.464 84.7104 201.338 84.9649 201.217 85.2219C201.096 85.4774 200.978 85.7353 200.864 85.9955C200.519 86.7827 200.206 87.5917 199.927 88.4216C199.647 89.2515 199.407 90.0852 199.206 90.9207C199.139 91.1969 199.077 91.4733 199.019 91.7499C198.96 92.0281 198.906 92.3065 198.855 92.5849ZM203.002 81.9969L204.337 82.9663L205.336 81.5906C206.303 80.2589 207.38 79.0284 208.552 77.9081L209.78 76.733L208.639 75.5405C208.423 75.7241 208.21 75.911 207.999 76.1011C207.789 76.2907 207.581 76.4836 207.377 76.6797C206.132 77.8696 204.987 79.1769 203.96 80.5919C203.794 80.8208 203.631 81.0525 203.471 81.287C203.311 81.5209 203.155 81.7576 203.002 81.9969ZM210.888 73.8097L211.75 75.2175L213.199 74.3299C214.593 73.4769 216.06 72.749 217.582 72.1554L219.166 71.5377L218.566 69.9999C218.296 70.0875 218.028 70.1789 217.761 70.2742C217.494 70.3695 217.228 70.4686 216.964 70.5716C215.349 71.2017 213.791 71.9745 212.312 72.88C212.07 73.0279 211.831 73.1794 211.593 73.3343C211.356 73.4893 211.121 73.6478 210.888 73.8097ZM221.304 69.2564L221.564 70.8861L223.243 70.6187C224.843 70.3637 226.475 70.2496 228.121 70.2852L229.82 70.322L229.856 68.6725C229.573 68.6496 229.29 68.631 229.007 68.6165C228.723 68.6021 228.44 68.5918 228.157 68.5856C226.409 68.5478 224.675 68.669 222.975 68.9398C222.695 68.9845 222.416 69.0331 222.138 69.0858C221.859 69.1387 221.581 69.1956 221.304 69.2564ZM232.669 69.0387L232.282 70.6432L233.934 71.0418C234.721 71.2315 235.507 71.4576 236.289 71.7211C237.072 71.9846 237.834 72.2798 238.576 72.6047L240.133 73.2869L240.795 71.7752C240.543 71.6467 240.289 71.5217 240.032 71.4C239.776 71.2791 239.518 71.1616 239.258 71.0476C238.471 70.7027 237.662 70.3895 236.832 70.11C236.002 69.8306 235.168 69.5906 234.333 69.3891C234.057 69.3225 233.78 69.2601 233.504 69.2019C233.225 69.1433 232.947 69.0889 232.669 69.0387ZM243.257 73.1849L242.287 74.5201L243.663 75.5189C244.995 76.4857 246.225 77.5636 247.345 78.7348L248.521 79.9633L249.713 78.8225C249.529 78.6067 249.343 78.3933 249.152 78.1825C248.963 77.9723 248.77 77.7647 248.574 77.5597C247.384 76.3157 246.077 75.1705 244.662 74.1432C244.433 73.977 244.201 73.8139 243.966 73.6539C243.733 73.4944 243.496 73.3381 243.257 73.1849ZM251.444 81.0709L250.036 81.9327L250.924 83.3826C251.777 84.776 252.505 86.2431 253.098 87.7652L253.716 89.349L255.254 88.7492C255.166 88.4794 255.075 88.2109 254.979 87.9439C254.884 87.6769 254.785 87.4114 254.682 87.1475C254.052 85.5316 253.279 83.9742 252.374 82.495C252.226 82.2534 252.074 82.0138 251.919 81.7765C251.764 81.5391 251.606 81.3039 251.444 81.0709ZM255.997 91.4875L254.368 91.7471L254.635 93.4259C254.89 95.0265 255.004 96.6583 254.969 98.3036L254.932 100.003L256.581 100.039C256.604 99.7557 256.623 99.4727 256.637 99.1899C256.652 98.9064 256.662 98.6232 256.668 98.3404C256.706 96.5922 256.585 94.8586 256.314 93.1584C256.269 92.8784 256.221 92.5992 256.168 92.321C256.115 92.0421 256.058 91.7642 255.997 91.4875Z" fill="white"/>
<g filter="url(#filter3_bdi_68_540)">
<ellipse cx="227.536" cy="97.7144" rx="17.5233" ry="17.5232" transform="rotate(18.61 227.536 97.7144)" fill="#3D3F42"/>
</g>
<path fill-rule="evenodd" clip-rule="evenodd" d="M226.493 98.7402C226.121 98.3602 225.971 97.7899 226.152 97.2512L229.88 86.1799C230.137 85.4156 230.966 85.0047 231.73 85.262C232.494 85.5194 232.905 86.3476 232.648 87.112L229.385 96.8018L233.541 98.2014C234.306 98.4588 234.717 99.2871 234.459 100.051C234.202 100.816 233.374 101.227 232.609 100.969L227.074 99.1052C226.846 99.0286 226.65 98.9013 226.493 98.7402Z" fill="white"/>
</g>
<defs>
<filter id="filter0_bi_68_540" x="-38.361" y="-43.0205" width="366.908" height="217.499" filterUnits="userSpaceOnUse" color-interpolation-filters="sRGB">
<feFlood flood-opacity="0" result="BackgroundImageFix"/>
<feGaussianBlur in="BackgroundImageFix" stdDeviation="21.98"/>
<feComposite in2="SourceAlpha" operator="in" result="effect1_backgroundBlur_68_540"/>
<feBlend mode="normal" in="SourceGraphic" in2="effect1_backgroundBlur_68_540" result="shape"/>
<feColorMatrix in="SourceAlpha" type="matrix" values="0 0 0 0 0 0 0 0 0 0 0 0 0 0 0 0 0 0 127 0" result="hardAlpha"/>
<feOffset dy="1.95759"/>
<feGaussianBlur stdDeviation="0.889814"/>
<feComposite in2="hardAlpha" operator="arithmetic" k2="-1" k3="1"/>
<feColorMatrix type="matrix" values="0 0 0 0 1 0 0 0 0 1 0 0 0 0 1 0 0 0 0.2 0"/>
<feBlend mode="normal" in2="shape" result="effect2_innerShadow_68_540"/>
</filter>
<filter id="filter1_bi_68_540" x="-43.6278" y="-17.865" width="367.186" height="185.726" filterUnits="userSpaceOnUse" color-interpolation-filters="sRGB">
<feFlood flood-opacity="0" result="BackgroundImageFix"/>
<feGaussianBlur in="BackgroundImageFix" stdDeviation="21.98"/>
<feComposite in2="SourceAlpha" operator="in" result="effect1_backgroundBlur_68_540"/>
<feBlend mode="normal" in="SourceGraphic" in2="effect1_backgroundBlur_68_540" result="shape"/>
<feColorMatrix in="SourceAlpha" type="matrix" values="0 0 0 0 0 0 0 0 0 0 0 0 0 0 0 0 0 0 127 0" result="hardAlpha"/>
<feOffset dy="1.95759"/>
<feGaussianBlur stdDeviation="0.889814"/>
<feComposite in2="hardAlpha" operator="arithmetic" k2="-1" k3="1"/>
<feColorMatrix type="matrix" values="0 0 0 0 1 0 0 0 0 1 0 0 0 0 1 0 0 0 0.2 0"/>
<feBlend mode="normal" in2="shape" result="effect2_innerShadow_68_540"/>
</filter>
<filter id="filter2_bdi_68_540" x="141.993" y="10.2623" width="172.261" height="172.26" filterUnits="userSpaceOnUse" color-interpolation-filters="sRGB">
<feFlood flood-opacity="0" result="BackgroundImageFix"/>
<feGaussianBlur in="BackgroundImageFix" stdDeviation="13.4342"/>
<feComposite in2="SourceAlpha" operator="in" result="effect1_backgroundBlur_68_540"/>
<feColorMatrix in="SourceAlpha" type="matrix" values="0 0 0 0 0 0 0 0 0 0 0 0 0 0 0 0 0 0 127 0" result="hardAlpha"/>
<feMorphology radius="5.37368" operator="dilate" in="SourceAlpha" result="effect2_dropShadow_68_540"/>
<feOffset dy="5.37368"/>
<feGaussianBlur stdDeviation="6.7171"/>
<feComposite in2="hardAlpha" operator="out"/>
<feColorMatrix type="matrix" values="0 0 0 0 0 0 0 0 0 0 0 0 0 0 0 0 0 0 0.14 0"/>
<feBlend mode="normal" in2="effect1_backgroundBlur_68_540" result="effect2_dropShadow_68_540"/>
<feBlend mode="normal" in="SourceGraphic" in2="effect2_dropShadow_68_540" result="shape"/>
<feColorMatrix in="SourceAlpha" type="matrix" values="0 0 0 0 0 0 0 0 0 0 0 0 0 0 0 0 0 0 127 0" result="hardAlpha"/>
<feOffset dy="3.76157"/>
<feGaussianBlur stdDeviation="1.71286"/>
<feComposite in2="hardAlpha" operator="arithmetic" k2="-1" k3="1"/>
<feColorMatrix type="matrix" values="0 0 0 0 1 0 0 0 0 1 0 0 0 0 1 0 0 0 0.21 0"/>
<feBlend mode="normal" in2="shape" result="effect3_innerShadow_68_540"/>
</filter>
<filter id="filter3_bdi_68_540" x="200.164" y="70.3418" width="54.7456" height="54.7454" filterUnits="userSpaceOnUse" color-interpolation-filters="sRGB">
<feFlood flood-opacity="0" result="BackgroundImageFix"/>
<feGaussianBlur in="BackgroundImageFix" stdDeviation="4.92236"/>
<feComposite in2="SourceAlpha" operator="in" result="effect1_backgroundBlur_68_540"/>
<feColorMatrix in="SourceAlpha" type="matrix" values="0 0 0 0 0 0 0 0 0 0 0 0 0 0 0 0 0 0 127 0" result="hardAlpha"/>
<feOffset dy="1.85947"/>
<feGaussianBlur stdDeviation="3.71895"/>
<feComposite in2="hardAlpha" operator="out"/>
<feColorMatrix type="matrix" values="0 0 0 0 0 0 0 0 0 0 0 0 0 0 0 0 0 0 0.02 0"/>
<feBlend mode="normal" in2="effect1_backgroundBlur_68_540" result="effect2_dropShadow_68_540"/>
<feBlend mode="normal" in="SourceGraphic" in2="effect2_dropShadow_68_540" result="shape"/>
<feColorMatrix in="SourceAlpha" type="matrix" values="0 0 0 0 0 0 0 0 0 0 0 0 0 0 0 0 0 0 127 0" result="hardAlpha"/>
<feOffset dy="1.38018"/>
<feGaussianBlur stdDeviation="0.627356"/>
<feComposite in2="hardAlpha" operator="arithmetic" k2="-1" k3="1"/>
<feColorMatrix type="matrix" values="0 0 0 0 1 0 0 0 0 1 0 0 0 0 1 0 0 0 0.1 0"/>
<feBlend mode="normal" in2="shape" result="effect3_innerShadow_68_540"/>
</filter>
</defs>
</svg>
