<svg width="390" height="124" viewBox="0 0 390 124" fill="none" xmlns="http://www.w3.org/2000/svg">
<path d="M0 24C0 10.7452 10.7452 0 24 0H366C379.255 0 390 10.7452 390 24V100C390 113.255 379.255 124 366 124H24C10.7452 124 0 113.255 0 100V24Z" fill="#1D2025"/>
<g clip-path="url(#clip0_27_4562)">
<rect x="16" y="87" width="78" height="16" rx="8" fill="#393F49" fill-opacity="0.5"/>
</g>
<g clip-path="url(#clip1_27_4562)">
<rect x="16" y="16" width="118" height="24" rx="12" fill="#393F49" fill-opacity="0.5"/>
<rect x="-6.34424" y="13.6609" width="24" height="30" fill="url(#paint0_linear_27_4562)"/>
</g>
<g clip-path="url(#clip2_27_4562)">
<path d="M266.327 40.0256C264.489 31.3821 270.007 22.8859 278.65 21.0487L344.186 7.11857C352.83 5.28135 361.326 10.7989 363.163 19.4423L377.093 84.9782C378.931 93.6217 373.413 102.118 364.77 103.955L299.234 117.885C290.59 119.722 282.094 114.205 280.257 105.561L266.327 40.0256Z" fill="#2B3037"/>
<rect x="221" y="1.37524" width="44" height="126" fill="url(#paint1_linear_27_4562)"/>
</g>
<defs>
<linearGradient id="paint0_linear_27_4562" x1="18.4819" y1="29" x2="-9.11807" y2="29" gradientUnits="userSpaceOnUse">
<stop stop-color="#474E59" stop-opacity="0"/>
<stop offset="0.5" stop-color="#474E59" stop-opacity="0.4"/>
<stop offset="1" stop-color="#474E59" stop-opacity="0"/>
</linearGradient>
<linearGradient id="paint1_linear_27_4562" x1="266.515" y1="65.7995" x2="215.915" y2="65.7995" gradientUnits="userSpaceOnUse">
<stop stop-color="#474E59" stop-opacity="0"/>
<stop offset="0.5" stop-color="#474E59" stop-opacity="0.4"/>
<stop offset="1" stop-color="#474E59" stop-opacity="0"/>
</linearGradient>
<clipPath id="clip0_27_4562">
<rect x="16" y="87" width="78" height="16" rx="8" fill="white"/>
</clipPath>
<clipPath id="clip1_27_4562">
<rect x="16" y="16" width="118" height="24" rx="12" fill="white"/>
</clipPath>
<clipPath id="clip2_27_4562">
<path d="M266.327 40.0256C264.489 31.3821 270.007 22.8859 278.65 21.0487L344.186 7.11857C352.83 5.28135 361.326 10.7989 363.163 19.4423L377.093 84.9782C378.931 93.6217 373.413 102.118 364.77 103.955L299.234 117.885C290.59 119.722 282.094 114.205 280.257 105.561L266.327 40.0256Z" fill="white"/>
</clipPath>
</defs>
</svg>
