<svg width="82" height="82" viewBox="0 0 82 82" fill="none" xmlns="http://www.w3.org/2000/svg">
<rect x="1" y="1" width="80" height="80" rx="40" fill="white" stroke="#101011" stroke-width="2" stroke-dasharray="5.55 5.55"/>
<path d="M41.3333 34.9999H38.2C37.0799 34.9999 36.5198 34.9999 36.092 35.2179C35.7157 35.4097 35.4097 35.7156 35.218 36.0919C35 36.5198 35 37.0798 35 38.1999V43.7999C35 44.92 35 45.4801 35.218 45.9079C35.4097 46.2842 35.7157 46.5902 36.092 46.7819C36.5198 46.9999 37.0799 46.9999 38.2 46.9999H44.3333C44.9533 46.9999 45.2633 46.9999 45.5176 46.9318C46.2078 46.7468 46.7469 46.2077 46.9319 45.5176C47 45.2632 47 44.9532 47 44.3333M45.6667 38.3333V34.3333M43.6667 36.3333H47.6667M40 38.6666C40 39.403 39.403 39.9999 38.6667 39.9999C37.9303 39.9999 37.3333 39.403 37.3333 38.6666C37.3333 37.9302 37.9303 37.3333 38.6667 37.3333C39.403 37.3333 40 37.9302 40 38.6666ZM42.9934 40.9454L37.3541 46.072C37.0369 46.3603 36.8783 46.5045 36.8643 46.6294C36.8521 46.7376 36.8936 46.845 36.9755 46.9169C37.0699 46.9999 37.2842 46.9999 37.7129 46.9999H43.9707C44.9301 46.9999 45.4098 46.9999 45.7866 46.8387C46.2596 46.6364 46.6365 46.2595 46.8388 45.7865C47 45.4097 47 44.93 47 43.9706C47 43.6478 47 43.4863 46.9647 43.336C46.9204 43.1471 46.8353 42.9702 46.7155 42.8175C46.6202 42.6961 46.4941 42.5952 46.242 42.3936L44.3772 40.9017C44.1249 40.6999 43.9988 40.5989 43.8599 40.5633C43.7374 40.5319 43.6086 40.536 43.4884 40.575C43.352 40.6193 43.2324 40.728 42.9934 40.9454Z" stroke="#101011" stroke-width="1.33333" stroke-linecap="round" stroke-linejoin="round"/>
</svg>
