<svg width="24" height="24" viewBox="0 0 24 24" fill="none" xmlns="http://www.w3.org/2000/svg">
<path d="M9.65566 18.634L10.1817 19.817C10.338 20.1691 10.5932 20.4684 10.9163 20.6783C11.2393 20.8883 11.6164 21.0001 12.0017 21C12.387 21.0001 12.764 20.8883 13.0871 20.6783C13.4101 20.4684 13.6653 20.1691 13.8217 19.817L14.3477 18.634C14.5349 18.2142 14.8499 17.8643 15.2477 17.634C15.648 17.4031 16.1111 17.3047 16.5707 17.353L17.8577 17.49C18.2408 17.5305 18.6274 17.459 18.9707 17.2842C19.314 17.1094 19.5991 16.8387 19.7917 16.505C19.9844 16.1715 20.0763 15.7893 20.056 15.4046C20.0358 15.0199 19.9043 14.6494 19.6777 14.338L18.9157 13.291C18.6443 12.9154 18.4994 12.4633 18.5017 12C18.5016 11.5379 18.6479 11.0877 18.9197 10.714L19.6817 9.667C19.9083 9.35558 20.0398 8.98506 20.06 8.60041C20.0803 8.21575 19.9884 7.83349 19.7957 7.5C19.6031 7.16631 19.318 6.89564 18.9747 6.7208C18.6314 6.54597 18.2448 6.47448 17.8617 6.515L16.5747 6.652C16.1151 6.70027 15.652 6.60191 15.2517 6.371C14.8531 6.13943 14.538 5.78762 14.3517 5.366L13.8217 4.183C13.6653 3.83085 13.4101 3.53164 13.0871 3.32166C12.764 3.11167 12.387 2.99994 12.0017 3C11.6164 2.99994 11.2393 3.11167 10.9163 3.32166C10.5932 3.53164 10.338 3.83085 10.1817 4.183L9.65566 5.366C9.4693 5.78762 9.15425 6.13943 8.75566 6.371C8.35535 6.60191 7.89226 6.70027 7.43266 6.652L6.14166 6.515C5.75856 6.47448 5.37193 6.54597 5.02864 6.7208C4.68536 6.89564 4.40017 7.16631 4.20766 7.5C4.0149 7.83349 3.92306 8.21575 3.9433 8.60041C3.96354 8.98506 4.09497 9.35558 4.32166 9.667L5.08366 10.714C5.35541 11.0877 5.50174 11.5379 5.50166 12C5.50174 12.4621 5.35541 12.9123 5.08366 13.286L4.32166 14.333C4.09497 14.6444 3.96354 15.0149 3.9433 15.3996C3.92306 15.7843 4.0149 16.1665 4.20766 16.5C4.40036 16.8335 4.68559 17.104 5.02882 17.2789C5.37205 17.4537 5.75859 17.5253 6.14166 17.485L7.42866 17.348C7.88826 17.2997 8.35135 17.3981 8.75166 17.629C9.15174 17.8599 9.46825 18.2118 9.65566 18.634Z" stroke="white" stroke-width="1.8" stroke-linecap="round" stroke-linejoin="round"/>
<path d="M12.0001 14.7C13.4912 14.7 14.7001 13.4912 14.7001 12C14.7001 10.5088 13.4912 9.3 12.0001 9.3C10.5089 9.3 9.30005 10.5088 9.30005 12C9.30005 13.4912 10.5089 14.7 12.0001 14.7Z" stroke="white" stroke-width="1.8" stroke-linecap="round" stroke-linejoin="round"/>
</svg>
