<svg width="56" height="56" viewBox="0 0 56 56" fill="none" xmlns="http://www.w3.org/2000/svg">
<rect width="56" height="56" rx="28" fill="#101011"/>
<g filter="url(#filter0_bii_0_3513)">
<path fill-rule="evenodd" clip-rule="evenodd" d="M27.5443 27.9728C24.9772 26.2394 24.3013 22.7531 26.0348 20.1859C27.7683 17.6188 31.2546 16.943 33.8218 18.6765C36.3889 20.4099 37.0648 23.8962 35.3313 26.4633C33.5978 29.0305 30.1115 29.7063 27.5443 27.9728ZM23.9976 35.7304L23.2133 36.892L25.5374 38.4613C26.1792 38.8947 26.3481 39.7663 25.9147 40.408C25.4814 41.0498 24.6098 41.2188 23.968 40.7854L21.6439 39.2161L20.8587 40.3789C20.4253 41.0207 19.5537 41.1897 18.9119 40.7563C18.2701 40.3229 18.1012 39.4514 18.5345 38.8096L24.8779 29.4157C21.9539 26.6358 21.3778 22.0713 23.7107 18.6166C26.3109 14.7659 31.5404 13.7522 35.3912 16.3524C39.2419 18.9526 40.2556 24.182 37.6554 28.0327C35.3225 31.4875 30.8731 32.6587 27.2019 30.9851L25.567 33.4063C25.567 33.4064 25.5671 33.4064 25.5671 33.4064L27.8912 34.9758C28.533 35.4091 28.702 36.2807 28.2686 36.9225C27.8352 37.5643 26.9636 37.7332 26.3218 37.2999L23.9977 35.7305C23.9977 35.7305 23.9976 35.7305 23.9976 35.7304Z" fill="url(#paint0_linear_0_3513)"/>
</g>
<g filter="url(#filter1_i_0_3513)">
<path fill-rule="evenodd" clip-rule="evenodd" d="M35.1839 21.0514C34.7067 22.3989 35.4071 23.8776 36.7491 24.3634C35.4004 23.8963 33.9254 24.6046 33.4481 25.9522C33.4481 25.9522 33.4481 25.9523 33.4481 25.9524L33.448 25.9523C33.9272 24.5992 33.2189 23.1137 31.8659 22.6342L31.866 22.634C33.2192 23.113 34.7046 22.4045 35.1839 21.0514L35.1839 21.0514Z" fill="url(#paint1_linear_0_3513)"/>
</g>
<g filter="url(#filter2_i_0_3513)">
<path fill-rule="evenodd" clip-rule="evenodd" d="M35.9161 18.3816C35.9163 18.3817 35.9165 18.3817 35.9167 18.3818C36.8549 18.7141 37.8844 18.2268 38.2233 17.2929C37.9028 18.2196 38.379 19.2318 39.2933 19.5776C38.3678 19.2721 37.364 19.7553 37.027 20.6721C37.3459 19.7352 36.8528 18.7135 35.9172 18.3821C35.9168 18.382 35.9165 18.3819 35.9161 18.3817L35.9161 18.3816Z" fill="url(#paint2_linear_0_3513)"/>
</g>
<g filter="url(#filter3_i_0_3513)">
<path fill-rule="evenodd" clip-rule="evenodd" d="M45.9476 24.9838C43.4663 24.105 42.1673 21.3813 43.0461 18.9001C43.0462 18.8999 43.0462 18.8997 43.0463 18.8995L43.0462 18.8995C43.0461 18.8997 43.046 18.8999 43.046 18.9001C42.1711 21.3701 39.4678 22.6686 36.9956 21.8132C39.4548 22.7045 40.7382 25.4147 39.8636 27.8845L39.8639 27.8846C40.743 25.404 43.4664 24.1054 45.9473 24.9841C45.9474 24.9841 45.9475 24.9842 45.9476 24.9842L45.9477 24.9839C45.9477 24.9838 45.9476 24.9838 45.9476 24.9838Z" fill="url(#paint3_linear_0_3513)"/>
</g>
<defs>
<filter id="filter0_bii_0_3513" x="13.2225" y="9.83891" width="30.9462" height="36.2587" filterUnits="userSpaceOnUse" color-interpolation-filters="sRGB">
<feFlood flood-opacity="0" result="BackgroundImageFix"/>
<feGaussianBlur in="BackgroundImageFix" stdDeviation="2.53587"/>
<feComposite in2="SourceAlpha" operator="in" result="effect1_backgroundBlur_0_3513"/>
<feBlend mode="normal" in="SourceGraphic" in2="effect1_backgroundBlur_0_3513" result="shape"/>
<feColorMatrix in="SourceAlpha" type="matrix" values="0 0 0 0 0 0 0 0 0 0 0 0 0 0 0 0 0 0 127 0" result="hardAlpha"/>
<feOffset dy="0.711033"/>
<feGaussianBlur stdDeviation="0.323197"/>
<feComposite in2="hardAlpha" operator="arithmetic" k2="-1" k3="1"/>
<feColorMatrix type="matrix" values="0 0 0 0 1 0 0 0 0 1 0 0 0 0 1 0 0 0 1 0"/>
<feBlend mode="normal" in2="shape" result="effect2_innerShadow_0_3513"/>
<feColorMatrix in="SourceAlpha" type="matrix" values="0 0 0 0 0 0 0 0 0 0 0 0 0 0 0 0 0 0 127 0" result="hardAlpha"/>
<feOffset dy="-0.664198"/>
<feGaussianBlur stdDeviation="0.664198"/>
<feComposite in2="hardAlpha" operator="arithmetic" k2="-1" k3="1"/>
<feColorMatrix type="matrix" values="0 0 0 0 0 0 0 0 0 0 0 0 0 0 0 0 0 0 0.45 0"/>
<feBlend mode="normal" in2="effect2_innerShadow_0_3513" result="effect3_innerShadow_0_3513"/>
</filter>
<filter id="filter1_i_0_3513" x="31.866" y="21.0513" width="4.88306" height="5.24382" filterUnits="userSpaceOnUse" color-interpolation-filters="sRGB">
<feFlood flood-opacity="0" result="BackgroundImageFix"/>
<feBlend mode="normal" in="SourceGraphic" in2="BackgroundImageFix" result="shape"/>
<feColorMatrix in="SourceAlpha" type="matrix" values="0 0 0 0 0 0 0 0 0 0 0 0 0 0 0 0 0 0 127 0" result="hardAlpha"/>
<feOffset dy="0.342941"/>
<feGaussianBlur stdDeviation="0.617295"/>
<feComposite in2="hardAlpha" operator="arithmetic" k2="-1" k3="1"/>
<feColorMatrix type="matrix" values="0 0 0 0 1 0 0 0 0 1 0 0 0 0 1 0 0 0 0.81 0"/>
<feBlend mode="normal" in2="shape" result="effect1_innerShadow_0_3513"/>
</filter>
<filter id="filter2_i_0_3513" x="35.916" y="17.293" width="3.3772" height="3.72185" filterUnits="userSpaceOnUse" color-interpolation-filters="sRGB">
<feFlood flood-opacity="0" result="BackgroundImageFix"/>
<feBlend mode="normal" in="SourceGraphic" in2="BackgroundImageFix" result="shape"/>
<feColorMatrix in="SourceAlpha" type="matrix" values="0 0 0 0 0 0 0 0 0 0 0 0 0 0 0 0 0 0 127 0" result="hardAlpha"/>
<feOffset dy="0.342941"/>
<feGaussianBlur stdDeviation="0.617295"/>
<feComposite in2="hardAlpha" operator="arithmetic" k2="-1" k3="1"/>
<feColorMatrix type="matrix" values="0 0 0 0 1 0 0 0 0 1 0 0 0 0 1 0 0 0 0.81 0"/>
<feBlend mode="normal" in2="shape" result="effect1_innerShadow_0_3513"/>
</filter>
<filter id="filter3_i_0_3513" x="36.9956" y="18.8994" width="8.95215" height="9.32829" filterUnits="userSpaceOnUse" color-interpolation-filters="sRGB">
<feFlood flood-opacity="0" result="BackgroundImageFix"/>
<feBlend mode="normal" in="SourceGraphic" in2="BackgroundImageFix" result="shape"/>
<feColorMatrix in="SourceAlpha" type="matrix" values="0 0 0 0 0 0 0 0 0 0 0 0 0 0 0 0 0 0 127 0" result="hardAlpha"/>
<feOffset dy="0.342941"/>
<feGaussianBlur stdDeviation="0.617295"/>
<feComposite in2="hardAlpha" operator="arithmetic" k2="-1" k3="1"/>
<feColorMatrix type="matrix" values="0 0 0 0 1 0 0 0 0 1 0 0 0 0 1 0 0 0 0.81 0"/>
<feBlend mode="normal" in2="shape" result="effect1_innerShadow_0_3513"/>
</filter>
<linearGradient id="paint0_linear_0_3513" x1="40.0703" y1="21.772" x2="5.30751" y2="33.1523" gradientUnits="userSpaceOnUse">
<stop stop-color="#EFEFEF"/>
<stop offset="1" stop-color="#68B7FF"/>
</linearGradient>
<linearGradient id="paint1_linear_0_3513" x1="33.1104" y1="22.656" x2="35.9298" y2="25.9111" gradientUnits="userSpaceOnUse">
<stop stop-color="#FF9900"/>
<stop offset="1" stop-color="#FFEE94"/>
</linearGradient>
<linearGradient id="paint2_linear_0_3513" x1="36.7779" y1="18.3936" x2="38.7233" y2="20.6458" gradientUnits="userSpaceOnUse">
<stop stop-color="#FF9900"/>
<stop offset="1" stop-color="#FFEE94"/>
</linearGradient>
<linearGradient id="paint3_linear_0_3513" x1="39.2772" y1="21.8527" x2="44.446" y2="27.8204" gradientUnits="userSpaceOnUse">
<stop stop-color="#FF9900"/>
<stop offset="1" stop-color="#FFEE94"/>
</linearGradient>
</defs>
</svg>
