<svg width="24" height="24" viewBox="0 0 24 24" fill="none" xmlns="http://www.w3.org/2000/svg">
<path fill-rule="evenodd" clip-rule="evenodd" d="M12.7071 2.29289C12.3166 1.90237 11.6834 1.90237 11.2929 2.29289L7.29289 6.29289C6.90237 6.68342 6.90237 7.31658 7.29289 7.70711C7.68342 8.09763 8.31658 8.09763 8.70711 7.70711L11 5.41421V15C11 15.5523 11.4477 16 12 16C12.5523 16 13 15.5523 13 15V5.41421L15.2929 7.70711C15.6834 8.09763 16.3166 8.09763 16.7071 7.70711C17.0976 7.31658 17.0976 6.68342 16.7071 6.29289L12.7071 2.29289ZM4 14C4 12.8954 4.89543 12 6 12H7.5C8.05228 12 8.5 11.5523 8.5 11C8.5 10.4477 8.05228 10 7.5 10H6C3.79086 10 2 11.7909 2 14V18C2 20.2091 3.79086 22 6 22H18C20.2091 22 22 20.2091 22 18V14C22 11.7909 20.2091 10 18 10H16.5C15.9477 10 15.5 10.4477 15.5 11C15.5 11.5523 15.9477 12 16.5 12H18C19.1046 12 20 12.8954 20 14V18C20 19.1046 19.1046 20 18 20H6C4.89543 20 4 19.1046 4 18V14Z" fill="white"/>
</svg>
