<svg width="24" height="24" viewBox="0 0 24 24" fill="none" xmlns="http://www.w3.org/2000/svg">
<path fill-rule="evenodd" clip-rule="evenodd" d="M15.8357 7.45704C14.8033 6.47232 13.4254 5.93587 11.9997 5.95791C9.39098 5.95791 7.17537 7.71791 6.38539 10.0878L6.3853 10.0878V10.0878C5.96643 11.3297 5.96643 12.6745 6.3853 13.9164L6.38521 13.9165H6.38906C7.18272 16.2828 9.39466 18.0428 12.0034 18.0428C13.35 18.0428 14.5061 17.6983 15.4021 17.09V17.0875C16.4566 16.3894 17.1768 15.2908 17.4009 14.0488H11.9997V10.1982H21.4317C21.5492 10.8669 21.6043 11.5503 21.6043 12.2301C21.6043 15.2715 20.5174 17.8428 18.6262 19.5844L18.6282 19.586C16.9711 21.1145 14.6967 22 11.9997 22C8.21888 22 4.76134 19.8689 3.06381 16.4922V16.4921L3.06371 16.4921C1.64543 13.6666 1.64543 10.3376 3.06371 7.5121H3.06383C4.76138 4.13176 8.21889 2.00067 11.9997 2.00067C14.4836 1.97128 16.8829 2.90456 18.6907 4.60209L15.8357 7.45704Z" fill="#101011"/>
</svg>
