<svg width="24" height="24" viewBox="0 0 24 24" fill="none" xmlns="http://www.w3.org/2000/svg">
<path d="M19.9933 17.5861C19.6908 18.2848 19.3328 18.928 18.918 19.5193C18.3526 20.3255 17.8897 20.8835 17.5329 21.1934C16.9798 21.702 16.3872 21.9625 15.7527 21.9773C15.2972 21.9773 14.7478 21.8477 14.1083 21.5847C13.4667 21.323 12.8771 21.1934 12.338 21.1934C11.7726 21.1934 11.1662 21.323 10.5176 21.5847C9.86794 21.8477 9.34463 21.9847 8.94452 21.9983C8.33602 22.0242 7.72949 21.7563 7.12408 21.1934C6.73767 20.8563 6.25436 20.2786 5.67536 19.4601C5.05415 18.586 4.54342 17.5725 4.14331 16.417C3.71481 15.1689 3.5 13.9603 3.5 12.7902C3.5 11.4498 3.78962 10.2938 4.36973 9.32509C4.82564 8.54696 5.43216 7.93316 6.19127 7.48255C6.95038 7.03195 7.7706 6.80233 8.65391 6.78763C9.13723 6.78763 9.77103 6.93714 10.5587 7.23096C11.3441 7.52576 11.8484 7.67526 12.0695 7.67526C12.2348 7.67526 12.795 7.50045 13.7447 7.15195C14.6429 6.82874 15.4009 6.69492 16.0218 6.74764C17.7045 6.88343 18.9686 7.54675 19.8094 8.74177C18.3045 9.6536 17.56 10.9307 17.5749 12.5691C17.5884 13.8452 18.0514 14.9071 18.9612 15.7503C19.3736 16.1417 19.834 16.4441 20.3464 16.6589C20.2353 16.9812 20.118 17.2898 19.9933 17.5861ZM16.1342 2.40011C16.1342 3.40034 15.7687 4.33425 15.0404 5.19867C14.1614 6.22629 13.0982 6.8201 11.9453 6.7264C11.9306 6.60641 11.9221 6.48011 11.9221 6.3474C11.9221 5.38718 12.3401 4.35956 13.0824 3.51934C13.453 3.09392 13.9244 2.74019 14.4959 2.45801C15.0663 2.18005 15.6058 2.02632 16.1132 2C16.128 2.13371 16.1342 2.26744 16.1342 2.4001V2.40011Z" fill="#101011"/>
</svg>
