<svg width="133" height="133" viewBox="0 0 133 133" fill="none" xmlns="http://www.w3.org/2000/svg">
<g filter="url(#filter0_bdi_987_35013)">
<g clip-path="url(#clip0_987_35013)">
<rect x="33.0642" y="8.49609" width="95" height="95" rx="13" transform="rotate(12 33.0642 8.49609)" fill="url(#paint0_linear_987_35013)" shape-rendering="crispEdges"/>
<path d="M52.4262 28.7228L50.4504 38.0181L48.8228 37.6721L50.7986 28.3768L52.4262 28.7228ZM56.2272 31.099L50.6068 29.9043L50.9257 28.4038L56.5462 29.5985L56.2272 31.099ZM54.7173 34.9512L49.7327 33.8917L50.0435 32.4294L55.0281 33.4889L54.7173 34.9512ZM58.0995 39.8167C57.4806 39.6852 56.9593 39.4282 56.5356 39.0457C56.1221 38.6566 55.832 38.1874 55.6652 37.638C55.5003 37.0802 55.4863 36.4792 55.6232 35.8349C55.762 35.1821 56.0159 34.6336 56.385 34.1893C56.7541 33.745 57.2058 33.4334 57.74 33.2546C58.2759 33.0673 58.8491 33.0385 59.4595 33.1682C60.0953 33.3034 60.6132 33.5552 61.0134 33.9238C61.4153 34.2839 61.6887 34.7274 61.8336 35.2544C61.987 35.7832 61.9935 36.3782 61.8529 37.0394L61.7529 37.5099L56.3587 36.3766L56.5949 35.3902L60.4224 36.2038C60.5143 35.7714 60.4483 35.3941 60.2244 35.0719C60.009 34.7514 59.6682 34.5416 59.2019 34.4425C58.8374 34.365 58.5118 34.3756 58.225 34.4741C57.9467 34.5744 57.7116 34.7637 57.5196 35.0418C57.3275 35.32 57.1847 35.6795 57.091 36.1203C56.9468 36.7985 56.9819 37.342 57.1963 37.7508C57.4191 38.1614 57.8187 38.428 58.3952 38.5506C58.819 38.6407 59.1837 38.634 59.4892 38.5306C59.8032 38.429 60.0341 38.2388 60.182 37.9602L61.6189 38.2656C61.3373 38.9234 60.8838 39.3896 60.2583 39.6643C59.6414 39.9407 58.9218 39.9915 58.0995 39.8167ZM63.8395 40.864L62.4026 40.5586L64.4135 31.098L65.9648 31.4277L65.0945 35.5223C65.3737 35.2095 65.728 35.0012 66.1576 34.8976C66.589 34.7855 67.0463 34.7809 67.5295 34.8836C68.1314 35.0115 68.6137 35.2646 68.9763 35.643C69.3491 36.0146 69.596 36.4791 69.7167 37.0364C69.846 37.5954 69.8394 38.2098 69.6971 38.8795C69.5619 39.5153 69.3192 40.053 68.9688 40.4924C68.6185 40.9318 68.1889 41.2436 67.6802 41.4279C67.1732 41.6037 66.6188 41.6276 66.0169 41.4997C65.5507 41.4005 65.1484 41.2087 64.8102 40.9242C64.4804 40.6414 64.2601 40.3022 64.1493 39.9065L63.8395 40.864ZM64.6396 37.7248C64.5604 38.0978 64.5612 38.448 64.6423 38.7753C64.7251 39.0942 64.8808 39.3621 65.1094 39.579C65.3482 39.7893 65.6457 39.9322 66.0017 40.0079C66.3663 40.0854 66.697 40.0715 66.9941 39.9663C67.2911 39.8611 67.5381 39.6788 67.735 39.4194C67.9319 39.16 68.07 38.8438 68.1492 38.4708C68.2285 38.0978 68.231 37.7528 68.1566 37.4357C68.0822 37.1187 67.9308 36.8517 67.7022 36.6347C67.4755 36.4093 67.1798 36.2579 66.8153 36.1804C66.4592 36.1047 66.1276 36.1228 65.8203 36.2347C65.5232 36.3399 65.272 36.5213 65.0666 36.7789C64.8631 37.028 64.7207 37.3433 64.6396 37.7248ZM75.5581 36.7629L75.2527 38.1998L74.6804 38.0781C74.1125 37.9574 73.635 38.0154 73.248 38.2521C72.8628 38.4803 72.6053 38.8996 72.4755 39.51L71.8269 42.5618L70.2755 42.2321L71.608 35.9631L73.0704 36.274L72.9218 37.598L72.7692 37.5656C72.9423 37.1682 73.2136 36.8715 73.5831 36.6753C73.9526 36.4792 74.3875 36.4343 74.8876 36.5406C74.9978 36.564 75.1071 36.5917 75.2155 36.6236C75.3239 36.6555 75.4381 36.7019 75.5581 36.7629ZM80.8626 37.9169L82.4139 38.2467L81.0787 44.5284L79.6418 44.2229L79.7057 43.3594C79.4562 43.6164 79.1251 43.7986 78.7124 43.9058C78.2998 44.013 77.8815 44.0216 77.4577 43.9315C76.7371 43.7783 76.222 43.4296 75.9124 42.8853C75.6028 42.3411 75.5291 41.6874 75.6912 40.9245L76.5264 36.9953L78.0778 37.325L77.3588 40.7075C77.2327 41.3009 77.2561 41.7533 77.4292 42.0647C77.6022 42.3762 77.9049 42.5779 78.3372 42.6698C78.8289 42.7743 79.224 42.7076 79.5227 42.4699C79.8231 42.2236 80.0364 41.8038 80.1625 41.2104L80.8626 37.9169ZM84.5151 45.4316C83.8539 45.291 83.3661 45.0013 83.0518 44.5623C82.7478 44.1167 82.658 43.6015 82.7823 43.0165C82.9049 42.4401 83.2014 42.0246 83.6719 41.7702C84.1527 41.5092 84.7724 41.4282 85.531 41.5275L87.4454 41.7749L87.4751 41.635C87.5364 41.3468 87.5299 41.1062 87.4558 40.9132C87.3919 40.7136 87.2706 40.5549 87.0918 40.4371C86.9148 40.3109 86.695 40.2199 86.4322 40.164C85.9744 40.0667 85.6028 40.0852 85.3173 40.2194C85.0336 40.3452 84.8566 40.5734 84.7864 40.904L83.4639 40.6229C83.5612 40.1652 83.7594 39.7953 84.0586 39.5133C84.368 39.2247 84.7545 39.0322 85.218 38.9358C85.69 38.8412 86.2057 38.8533 86.7652 38.9722C87.3332 39.093 87.799 39.2983 88.1627 39.5883C88.5282 39.8697 88.7788 40.2331 88.9145 40.6784C89.052 41.1152 89.0586 41.626 88.9343 42.211L88.1234 46.0258L86.7628 45.7366L86.8457 44.784C86.6416 45.0773 86.3229 45.2842 85.8897 45.4048C85.465 45.5271 85.0068 45.5361 84.5151 45.4316ZM85.2597 44.3671C85.7429 44.4698 86.1532 44.4153 86.4906 44.2035C86.8365 43.9934 87.0608 43.6468 87.1635 43.1636L87.2338 42.833L85.9024 42.6564C85.4102 42.596 85.0452 42.6248 84.8076 42.7426C84.5717 42.852 84.4267 43.0338 84.3726 43.2881C84.3132 43.5679 84.3614 43.7996 84.5172 43.9834C84.6731 44.1671 84.9206 44.295 85.2597 44.3671ZM94.93 40.8805L94.6246 42.3174L94.0523 42.1958C93.4844 42.075 93.0069 42.133 92.6199 42.3697C92.2347 42.598 91.9772 43.0173 91.8475 43.6276L91.1988 46.6794L89.6474 46.3497L90.9799 40.0807L92.4423 40.3916L92.2937 41.7156L92.1411 41.6832C92.3142 41.2858 92.5855 40.9891 92.955 40.793C93.3245 40.5968 93.7594 40.5519 94.2595 40.6582C94.3697 40.6817 94.4791 40.7093 94.5875 40.7412C94.6959 40.7731 94.81 40.8195 94.93 40.8805ZM97.0892 41.366L97.9039 47.5996L96.7268 49.0107L95.4488 41.0173L97.0892 41.366ZM93.66 50.2461L93.9329 48.9618L94.8612 49.1591C95.0647 49.2023 95.2481 49.2147 95.4115 49.1963C95.5731 49.1864 95.7267 49.1304 95.8725 49.0285C96.0266 48.9284 96.1723 48.7644 96.3093 48.5366L100.408 42.0715L102.01 42.412L97.3004 49.4383C96.949 49.9661 96.5716 50.3245 96.1682 50.5134C95.7648 50.7023 95.3045 50.7418 94.7874 50.6319C94.567 50.5851 94.362 50.5282 94.1724 50.4613C93.9895 50.4047 93.8187 50.333 93.66 50.2461Z" fill="#EA3225"/>
<path d="M64.7609 80.9026L50.8693 77.9784L51.4282 75.3492L59.1499 71.2081C59.9458 70.7857 60.6224 70.3856 61.1798 70.0079C61.7554 69.6341 62.2248 69.2663 62.5879 68.9046C62.9511 68.5429 63.2412 68.1656 63.4583 67.7728C63.6754 67.38 63.8363 66.9371 63.9411 66.4442C64.1817 65.3121 64.0758 64.3736 63.6235 63.6286C63.1712 62.8836 62.4155 62.3986 61.3565 62.1735C60.261 61.9406 59.3161 62.1214 58.5218 62.7159C57.7275 63.3105 57.1854 64.2448 56.8954 65.5191L53.4172 64.7797C53.7459 63.3229 54.3169 62.118 55.1302 61.1649C55.9473 60.1936 56.9475 59.5283 58.1307 59.1691C59.3178 58.7917 60.6143 58.7524 62.0202 59.0512C63.4444 59.3539 64.6114 59.8787 65.5214 60.6256C66.4534 61.358 67.0996 62.2683 67.46 63.3563C67.8203 64.4443 67.8569 65.6639 67.5697 67.0151C67.4222 67.7089 67.1801 68.354 66.8434 68.9504C66.5289 69.5323 66.1159 70.0839 65.6044 70.6049C65.0967 71.1077 64.4959 71.6002 63.8018 72.0824C63.1077 72.5646 62.3073 73.0529 61.4007 73.5472L55.6408 76.674L54.608 75.338L65.4537 77.6434L64.7609 80.9026ZM68.0928 75.7139C68.3839 74.3445 69.0339 73.2613 70.043 72.4644C71.0742 71.653 72.2743 71.2593 73.6433 71.2831L73.5368 71.9188C72.4159 71.3562 71.6123 70.6033 71.1257 69.6602C70.6574 68.721 70.5455 67.6762 70.79 66.5259C71.0151 65.4669 71.5052 64.5978 72.2602 63.9186C73.0153 63.2394 73.9617 62.7822 75.0995 62.547C76.2555 62.3156 77.5182 62.3454 78.8876 62.6365C80.257 62.9276 81.4045 63.41 82.3299 64.0838C83.2775 64.7433 83.947 65.544 84.3384 66.4859C84.7519 67.4135 84.8423 68.425 84.6094 69.5206C84.3649 70.6709 83.8286 71.5778 83.0005 72.2415C82.1763 72.8869 81.1417 73.2204 79.8967 73.2421L79.9915 72.6611C80.859 72.9791 81.5762 73.4655 82.1431 74.1203C82.7139 74.7569 83.1024 75.4883 83.3084 76.3145C83.5327 77.1446 83.5459 78.0253 83.348 78.9565C83.0918 80.1616 82.5472 81.1527 81.7141 81.9298C80.9031 82.6925 79.8701 83.1981 78.615 83.4466C77.3782 83.6989 75.9838 83.6602 74.4318 83.3303C72.898 83.0043 71.6084 82.4725 70.5629 81.735C69.5356 81.0014 68.7976 80.1194 68.3487 79.0889C67.9219 78.044 67.8366 76.919 68.0928 75.7139ZM71.5687 76.1951C71.4329 76.8342 71.4788 77.426 71.7066 77.9706C71.9526 78.519 72.3588 78.9871 72.9253 79.3746C73.51 79.7661 74.2406 80.055 75.117 80.2413C75.9569 80.4198 76.7144 80.4472 77.3895 80.3235C78.0829 80.2038 78.6425 79.9506 79.0682 79.5639C79.516 79.163 79.8097 78.6338 79.9495 77.9765C80.1552 77.0088 79.9347 76.1604 79.2882 75.4314C78.6599 74.7062 77.7067 74.2078 76.4286 73.9362C75.1504 73.6645 74.0678 73.7302 73.1806 74.1332C72.3117 74.5401 71.7744 75.2274 71.5687 76.1951ZM73.903 67.5025C73.7284 68.3241 73.9245 69.0624 74.4914 69.7172C75.0622 70.3538 75.9136 70.7924 77.0456 71.033C78.1594 71.2698 79.0974 71.2115 79.8595 70.8582C80.6398 70.5088 81.1173 69.9233 81.292 69.1017C81.4705 68.2618 81.2724 67.5327 80.6978 66.9143C80.1452 66.2816 79.3121 65.8469 78.1983 65.6102C77.0663 65.3695 76.1101 65.4239 75.3297 65.7733C74.5532 66.1045 74.0777 66.6808 73.903 67.5025Z" fill="#101011"/>
<path d="M46.2566 94.3778L45.3665 94.1886L46.8677 87.1263L47.7578 87.3155L48.9384 93.8335L52.6779 88.3613L53.5778 88.5526L52.0766 95.6148L51.1865 95.4256L51.804 92.5206C51.8733 92.1945 51.9322 91.9174 51.9807 91.6891C52.0372 91.4558 52.0834 91.2543 52.1194 91.0848C52.1634 90.9101 52.2025 90.7582 52.2367 90.6292C52.2709 90.5001 52.3078 90.3751 52.3471 90.2539L49.1422 94.9911L48.2912 94.8102L47.288 89.1888C47.2781 89.3639 47.2389 89.6282 47.1706 89.9817C47.1088 90.3366 47.0238 90.7684 46.9157 91.277L46.2566 94.3778ZM53.7718 93.4807C53.8772 92.9851 54.077 92.5743 54.3712 92.2483C54.6667 91.9159 55.0233 91.6815 55.4407 91.5453C55.8647 91.4105 56.3114 91.393 56.7809 91.4928C57.2634 91.5954 57.6644 91.7931 57.9839 92.0859C58.3098 92.3801 58.5402 92.7392 58.675 93.1632C58.8112 93.5806 58.8266 94.0371 58.7213 94.5327C58.6187 95.0153 58.4196 95.4228 58.124 95.7552C57.8285 96.0877 57.4719 96.3221 57.0545 96.4582C56.6436 96.5958 56.1969 96.6133 55.7143 96.5107C55.2448 96.4109 54.8438 96.2133 54.5113 95.9177C54.1854 95.6235 53.955 95.2644 53.8202 94.8404C53.6854 94.4165 53.6693 93.9632 53.7718 93.4807ZM54.6543 93.658C54.5822 93.9971 54.5869 94.3116 54.6684 94.6016C54.7499 94.8915 54.8921 95.1364 55.095 95.3363C55.3057 95.5311 55.5676 95.6617 55.8806 95.7282C56.2002 95.7961 56.4926 95.7833 56.7578 95.6898C57.031 95.5911 57.2605 95.4252 57.4463 95.192C57.6387 94.9603 57.7709 94.6749 57.843 94.3358C57.9151 93.9967 57.9097 93.6854 57.8268 93.402C57.7518 93.1135 57.609 92.8718 57.3982 92.6771C57.1953 92.4772 56.9341 92.3433 56.6146 92.2754C56.3016 92.2088 56.0085 92.2249 55.7353 92.3236C55.4701 92.4172 55.2413 92.5798 55.0489 92.8116C54.8579 93.0368 54.7263 93.3189 54.6543 93.658ZM60.103 97.3209L59.2422 97.1379L60.2569 92.3646L61.0296 92.5288L60.9673 93.3028C61.1834 93.0557 61.4509 92.8876 61.7697 92.7986C62.0899 92.7031 62.4195 92.6914 62.7586 92.7634C63.3911 92.8979 63.816 93.1756 64.0332 93.5967C64.2518 94.0112 64.2967 94.5216 64.1678 95.1281L63.5461 98.0528L62.6853 97.8698L63.2654 95.1408C63.3707 94.6452 63.3387 94.2669 63.1692 94.006C62.9998 93.745 62.7357 93.5765 62.3771 93.5002C61.9337 93.406 61.5569 93.4792 61.2467 93.72C60.9444 93.9556 60.742 94.3147 60.6394 94.7973L60.103 97.3209ZM66.7223 98.8506C66.2593 98.7521 65.8837 98.5633 65.5955 98.2839C65.3087 97.998 65.1141 97.6466 65.0119 97.2295C64.9163 96.8139 64.9197 96.3648 65.0223 95.8822C65.1249 95.3997 65.3076 94.9887 65.5706 94.6493C65.835 94.3034 66.1563 94.0582 66.5346 93.9137C66.9208 93.764 67.352 93.7398 67.828 93.841C68.1997 93.92 68.5156 94.0689 68.7758 94.2878C69.0374 94.5002 69.2171 94.7769 69.315 95.118L69.9969 91.9097L70.8577 92.0927L69.3295 99.2821L68.5568 99.1178L68.6678 98.2111C68.4406 98.5104 68.1557 98.7122 67.8132 98.8166C67.4707 98.921 67.107 98.9323 66.7223 98.8506ZM67.057 98.0936C67.383 98.1629 67.6754 98.1501 67.9341 98.0551C68.1943 97.9537 68.414 97.7857 68.5933 97.5512C68.7727 97.3167 68.8977 97.0331 68.9684 96.7006C69.0405 96.3615 69.0416 96.0516 68.9717 95.7709C68.9033 95.4838 68.7709 95.2409 68.5745 95.0424C68.3782 94.8439 68.117 94.71 67.7909 94.6407C67.4779 94.5742 67.1913 94.5917 66.9312 94.6932C66.6711 94.7946 66.4514 94.9626 66.272 95.1971C66.1006 95.4265 65.9789 95.7107 65.9068 96.0498C65.8361 96.3824 65.8317 96.6916 65.8936 96.9773C65.9621 97.2645 66.0945 97.5074 66.2909 97.7058C66.4886 97.8978 66.744 98.0271 67.057 98.0936ZM72.0403 99.9809C71.5316 99.8728 71.1616 99.6578 70.9301 99.336C70.7 99.0077 70.6307 98.6283 70.7222 98.1979C70.8151 97.761 71.0425 97.4447 71.4044 97.249C71.7742 97.0482 72.2476 96.9853 72.8247 97.0602L74.3658 97.2651L74.3949 97.1281C74.4545 96.8477 74.4494 96.6149 74.3797 96.4297C74.3166 96.2459 74.2039 96.1027 74.0417 96.0001C73.8874 95.8923 73.6994 95.8148 73.4777 95.7677C73.0864 95.6846 72.7659 95.7016 72.516 95.8189C72.2662 95.9362 72.1094 96.1448 72.0456 96.4448L71.2827 96.2826C71.3533 95.95 71.4958 95.6804 71.7102 95.4738C71.9324 95.262 72.2106 95.1235 72.5448 95.0583C72.8869 94.9878 73.2569 94.9949 73.6546 95.0795C74.0524 95.164 74.3835 95.306 74.6478 95.5053C74.9135 95.6981 75.0981 95.952 75.2015 96.267C75.3115 96.5835 75.3207 96.9569 75.2292 97.3873L74.5888 100.4L73.8455 100.242L73.9258 99.4309C73.7344 99.6901 73.4682 99.8687 73.127 99.9666C72.7873 100.058 72.425 100.063 72.0403 99.9809ZM72.4283 99.358C72.8782 99.4536 73.2562 99.3908 73.5622 99.1696C73.8761 98.9433 74.0816 98.6019 74.1786 98.1454L74.2348 97.8813L72.9599 97.7228C72.5356 97.6667 72.2148 97.7007 71.9976 97.8249C71.7883 97.944 71.6587 98.1209 71.6088 98.3557C71.5533 98.6165 71.5991 98.8341 71.746 99.0085C71.8944 99.1764 72.1218 99.2928 72.4283 99.358ZM77.105 95.9458L77.809 101.003L77.1115 101.59L76.1855 95.7503L77.105 95.9458ZM74.8546 102.685L75.0085 101.961L75.5954 102.086C75.7453 102.118 75.8851 102.134 76.0145 102.134C76.1505 102.136 76.281 102.099 76.4061 102.023C76.5299 101.954 76.6491 101.826 76.7638 101.639L79.9514 96.5508L80.8513 96.7421L77.368 102.115C77.1256 102.486 76.8618 102.734 76.5765 102.857C76.2964 102.988 75.9738 103.015 75.6086 102.937C75.4652 102.907 75.3303 102.868 75.2041 102.821C75.0829 102.781 74.9664 102.736 74.8546 102.685Z" fill="#101011"/>
</g>
</g>
<defs>
<filter id="filter0_bdi_987_35013" x="-2.68747" y="-7.50391" width="144.676" height="144.676" filterUnits="userSpaceOnUse" color-interpolation-filters="sRGB">
<feFlood flood-opacity="0" result="BackgroundImageFix"/>
<feGaussianBlur in="BackgroundImageFix" stdDeviation="8"/>
<feComposite in2="SourceAlpha" operator="in" result="effect1_backgroundBlur_987_35013"/>
<feColorMatrix in="SourceAlpha" type="matrix" values="0 0 0 0 0 0 0 0 0 0 0 0 0 0 0 0 0 0 127 0" result="hardAlpha"/>
<feOffset dx="-3.25713" dy="1.62857"/>
<feGaussianBlur stdDeviation="4.8857"/>
<feComposite in2="hardAlpha" operator="out"/>
<feColorMatrix type="matrix" values="0 0 0 0 0 0 0 0 0 0 0 0 0 0 0 0 0 0 0.04 0"/>
<feBlend mode="normal" in2="effect1_backgroundBlur_987_35013" result="effect2_dropShadow_987_35013"/>
<feBlend mode="normal" in="SourceGraphic" in2="effect2_dropShadow_987_35013" result="shape"/>
<feColorMatrix in="SourceAlpha" type="matrix" values="0 0 0 0 0 0 0 0 0 0 0 0 0 0 0 0 0 0 127 0" result="hardAlpha"/>
<feOffset dy="1.3699"/>
<feGaussianBlur stdDeviation="0.622684"/>
<feComposite in2="hardAlpha" operator="arithmetic" k2="-1" k3="1"/>
<feColorMatrix type="matrix" values="0 0 0 0 1 0 0 0 0 1 0 0 0 0 1 0 0 0 1 0"/>
<feBlend mode="normal" in2="shape" result="effect3_innerShadow_987_35013"/>
</filter>
<linearGradient id="paint0_linear_987_35013" x1="122.022" y1="95.0139" x2="-2.81136" y2="39.5967" gradientUnits="userSpaceOnUse">
<stop stop-color="white" stop-opacity="0.9"/>
<stop offset="1" stop-color="white" stop-opacity="0.4"/>
</linearGradient>
<clipPath id="clip0_987_35013">
<rect x="33.0642" y="8.49609" width="95" height="95" rx="13" transform="rotate(12 33.0642 8.49609)" fill="white"/>
</clipPath>
</defs>
</svg>
