<svg width="108" height="32" viewBox="0 0 108 32" fill="none" xmlns="http://www.w3.org/2000/svg">
<rect width="32" height="32" rx="7.45631" fill="url(#paint0_linear_988_6953)"/>
<path d="M22.9739 15.5177C24.5919 14.688 25.6792 12.9715 25.5943 11.009C25.4872 8.52843 23.4708 6.51192 20.9893 6.40482C19.7448 6.35079 18.5986 6.76856 17.7148 7.49509C16.724 8.30941 15.2739 8.30941 14.2831 7.49509C13.4003 6.76856 12.2541 6.35079 11.0095 6.40482C8.52807 6.51192 6.51165 8.52843 6.40456 11.01C6.31966 12.9725 7.40698 14.6889 9.02494 15.5187C9.42051 15.7213 9.42051 16.28 9.02494 16.4826C7.40698 17.3114 6.31966 19.0288 6.40456 20.9903C6.51165 23.4709 8.52904 25.4874 11.0095 25.5955C12.2541 25.6495 13.4003 25.2317 14.284 24.5052C15.2749 23.6909 16.725 23.6909 17.7158 24.5052C18.5996 25.2317 19.7448 25.6495 20.9903 25.5955C23.4708 25.4884 25.4872 23.4709 25.5953 20.9903C25.6802 19.0278 24.5929 17.3114 22.9749 16.4816C22.5793 16.279 22.5793 15.7203 22.9749 15.5177H22.9739ZM15.5228 18.5878C15.0597 17.6799 14.3188 16.938 13.4109 16.4758C13.025 16.279 13.025 15.7203 13.4109 15.5235C14.3188 15.0604 15.0607 14.3194 15.5228 13.4115C15.7196 13.0255 16.2783 13.0255 16.4751 13.4115C16.9382 14.3194 17.6791 15.0614 18.587 15.5235C18.9729 15.7203 18.9729 16.279 18.587 16.4758C17.6791 16.9389 16.9372 17.6799 16.4751 18.5878C16.2783 18.9738 15.7196 18.9738 15.5228 18.5878Z" fill="white"/>
<mask id="mask0_988_6953" style="mask-type:alpha" maskUnits="userSpaceOnUse" x="6" y="6" width="20" height="20">
<path d="M22.9739 15.5177C24.5919 14.688 25.6792 12.9715 25.5943 11.009C25.4872 8.52843 23.4708 6.51192 20.9893 6.40482C19.7448 6.35079 18.5986 6.76856 17.7148 7.49509C16.724 8.30941 15.2739 8.30941 14.2831 7.49509C13.4003 6.76856 12.2541 6.35079 11.0095 6.40482C8.52807 6.51192 6.51165 8.52843 6.40456 11.01C6.31966 12.9725 7.40698 14.6889 9.02494 15.5187C9.42051 15.7213 9.42051 16.28 9.02494 16.4826C7.40698 17.3114 6.31966 19.0288 6.40456 20.9903C6.51165 23.4709 8.52904 25.4874 11.0095 25.5955C12.2541 25.6495 13.4003 25.2317 14.284 24.5052C15.2749 23.6909 16.725 23.6909 17.7158 24.5052C18.5996 25.2317 19.7448 25.6495 20.9903 25.5955C23.4708 25.4884 25.4872 23.4709 25.5953 20.9903C25.6802 19.0278 24.5929 17.3114 22.9749 16.4816C22.5793 16.279 22.5793 15.7203 22.9749 15.5177H22.9739ZM15.5228 18.5878C15.0597 17.6799 14.3188 16.938 13.4109 16.4758C13.025 16.279 13.025 15.7203 13.4109 15.5235C14.3188 15.0604 15.0607 14.3194 15.5228 13.4115C15.7196 13.0255 16.2783 13.0255 16.4751 13.4115C16.9382 14.3194 17.6791 15.0614 18.587 15.5235C18.9729 15.7203 18.9729 16.279 18.587 16.4758C17.6791 16.9389 16.9372 17.6799 16.4751 18.5878C16.2783 18.9738 15.7196 18.9738 15.5228 18.5878Z" fill="#5831F5"/>
</mask>
<g mask="url(#mask0_988_6953)">
<g opacity="0.6" filter="url(#filter0_f_988_6953)">
<ellipse cx="24.0997" cy="7.20005" rx="11.5" ry="11.4" fill="#8367F5"/>
</g>
<g filter="url(#filter1_f_988_6953)">
<ellipse cx="11.1997" cy="9.89995" rx="5.8" ry="5.7" fill="#BAAFE8"/>
</g>
<g opacity="0.7" filter="url(#filter2_f_988_6953)">
<ellipse cx="10.1997" cy="24.9" rx="7.2" ry="7.1" fill="#200B7F"/>
</g>
<g opacity="0.6" filter="url(#filter3_f_988_6953)">
<ellipse cx="25.6997" cy="25.6" rx="11.9" ry="11.6" fill="#5831F5"/>
</g>
</g>
<path d="M45.1653 6.8376V25.5H42.0933V6.8376H45.1653ZM49.4917 17.4872H44.2437V14.876H49.2869C50.2255 14.876 50.9423 14.6371 51.4373 14.1592C51.9493 13.6813 52.2053 13.0072 52.2053 12.1368C52.2053 11.3176 51.9407 10.6861 51.4117 10.2424C50.8997 9.7816 50.1573 9.5512 49.1845 9.5512H44.0645V6.8376H49.4405C51.2837 6.8376 52.7258 7.28987 53.7669 8.1944C54.825 9.08187 55.3541 10.3021 55.3541 11.8552C55.3541 12.9816 55.081 13.9288 54.5349 14.6968C53.9887 15.4648 53.1781 16.0109 52.1029 16.3352V16.0024C53.2634 16.2755 54.1423 16.796 54.7397 17.564C55.337 18.3149 55.6357 19.2792 55.6357 20.4568C55.6357 21.5149 55.3967 22.4195 54.9189 23.1704C54.4581 23.9213 53.7754 24.5016 52.8709 24.9112C51.9663 25.3037 50.8741 25.5 49.5941 25.5H44.0645V22.7864H49.4917C50.4474 22.7864 51.1813 22.556 51.6933 22.0952C52.2223 21.6173 52.4869 20.9432 52.4869 20.0728C52.4869 19.2536 52.2223 18.6221 51.6933 18.1784C51.1813 17.7176 50.4474 17.4872 49.4917 17.4872ZM67.5253 12.8792H70.1877V25.5H67.4485L67.2437 23.452C66.8341 24.1347 66.2538 24.7064 65.5029 25.1672C64.7519 25.6109 63.8645 25.8328 62.8405 25.8328C61.6117 25.8328 60.5535 25.5427 59.6661 24.9624C58.7786 24.3651 58.1045 23.5629 57.6437 22.556C57.1829 21.532 56.9525 20.3715 56.9525 19.0744C56.9525 17.7432 57.1999 16.5912 57.6949 15.6184C58.1898 14.6456 58.881 13.8861 59.7685 13.34C60.673 12.7939 61.7141 12.5208 62.8917 12.5208C63.8303 12.5208 64.7093 12.7256 65.5285 13.1352C66.3477 13.5277 66.9535 14.1251 67.3461 14.9272L67.5253 12.8792ZM67.1925 19.2024C67.1925 18.4003 67.0389 17.7005 66.7317 17.1032C66.4415 16.5059 66.0234 16.0451 65.4773 15.7208C64.9482 15.3795 64.2997 15.2088 63.5317 15.2088C62.7978 15.2088 62.1578 15.3795 61.6117 15.7208C61.0655 16.0621 60.6474 16.5315 60.3573 17.1288C60.0671 17.7261 59.9221 18.4173 59.9221 19.2024C59.9221 19.9704 60.0671 20.6616 60.3573 21.276C60.6474 21.8733 61.057 22.3427 61.5861 22.684C62.1322 23.0253 62.7807 23.196 63.5317 23.196C64.2826 23.196 64.9311 23.0253 65.4773 22.684C66.0234 22.3427 66.4415 21.8733 66.7317 21.276C67.0389 20.6616 67.1925 19.9704 67.1925 19.2024ZM75.6971 25.5H73.0091V6.5048H75.9275V14.7992C76.3371 14.0653 76.9344 13.5021 77.7195 13.1096C78.5216 12.7 79.4176 12.4952 80.4075 12.4952C81.6021 12.4952 82.6261 12.7853 83.4795 13.3656C84.3499 13.9459 85.0155 14.748 85.4763 15.772C85.9541 16.7789 86.1931 17.948 86.1931 19.2792C86.1931 20.5592 85.9456 21.6941 85.4507 22.684C84.9557 23.6739 84.256 24.4504 83.3515 25.0136C82.464 25.5597 81.4144 25.8328 80.2027 25.8328C79.2469 25.8328 78.3851 25.628 77.6171 25.2184C76.8491 24.7917 76.2773 24.2029 75.9019 23.452L75.6971 25.5ZM75.9531 19.1512C75.9531 19.9363 76.0981 20.6275 76.3883 21.2248C76.6955 21.8221 77.1221 22.2915 77.6683 22.6328C78.2315 22.9741 78.88 23.1448 79.6139 23.1448C80.3819 23.1448 81.0304 22.9741 81.5595 22.6328C82.0885 22.2915 82.4981 21.8221 82.7883 21.2248C83.0784 20.6275 83.2235 19.9363 83.2235 19.1512C83.2235 18.3661 83.0784 17.6749 82.7883 17.0776C82.4981 16.4803 82.0885 16.0109 81.5595 15.6696C81.0304 15.3283 80.3819 15.1576 79.6139 15.1576C78.88 15.1576 78.2315 15.3283 77.6683 15.6696C77.1221 15.9939 76.6955 16.4547 76.3883 17.052C76.0981 17.6493 75.9531 18.3491 75.9531 19.1512ZM87.4285 19.1768C87.4285 17.8627 87.7186 16.7107 88.2989 15.7208C88.8791 14.7139 89.6727 13.9288 90.6797 13.3656C91.7037 12.8024 92.8557 12.5208 94.1357 12.5208C95.4327 12.5208 96.5847 12.8024 97.5917 13.3656C98.5986 13.9288 99.3922 14.7139 99.9725 15.7208C100.553 16.7107 100.843 17.8627 100.843 19.1768C100.843 20.4739 100.553 21.6259 99.9725 22.6328C99.3922 23.6227 98.5986 24.3992 97.5917 24.9624C96.5847 25.5256 95.4327 25.8072 94.1357 25.8072C92.8557 25.8072 91.7037 25.5256 90.6797 24.9624C89.6727 24.3992 88.8791 23.6227 88.2989 22.6328C87.7186 21.6259 87.4285 20.4739 87.4285 19.1768ZM90.3981 19.1512C90.3981 19.9533 90.5517 20.6616 90.8589 21.276C91.1831 21.8733 91.6269 22.3427 92.1901 22.684C92.7533 23.0083 93.4018 23.1704 94.1357 23.1704C94.8866 23.1704 95.5351 23.0083 96.0813 22.684C96.6445 22.3427 97.0797 21.8733 97.3869 21.276C97.7111 20.6616 97.8733 19.9533 97.8733 19.1512C97.8733 18.3661 97.7111 17.6749 97.3869 17.0776C97.0797 16.4803 96.6445 16.0109 96.0813 15.6696C95.5351 15.3283 94.8866 15.1576 94.1357 15.1576C93.4018 15.1576 92.7533 15.3283 92.1901 15.6696C91.6269 16.0109 91.1831 16.4803 90.8589 17.0776C90.5517 17.6749 90.3981 18.3661 90.3981 19.1512ZM105.83 25.5H102.886V6.5048H105.83V25.5Z" fill="white"/>
<defs>
<filter id="filter0_f_988_6953" x="-0.886316" y="-17.686" width="49.972" height="49.7721" filterUnits="userSpaceOnUse" color-interpolation-filters="sRGB">
<feFlood flood-opacity="0" result="BackgroundImageFix"/>
<feBlend mode="normal" in="SourceGraphic" in2="BackgroundImageFix" result="shape"/>
<feGaussianBlur stdDeviation="6.743" result="effect1_foregroundBlur_988_6953"/>
</filter>
<filter id="filter1_f_988_6953" x="-8.08628" y="-9.28605" width="38.572" height="38.3719" filterUnits="userSpaceOnUse" color-interpolation-filters="sRGB">
<feFlood flood-opacity="0" result="BackgroundImageFix"/>
<feBlend mode="normal" in="SourceGraphic" in2="BackgroundImageFix" result="shape"/>
<feGaussianBlur stdDeviation="6.743" result="effect1_foregroundBlur_988_6953"/>
</filter>
<filter id="filter2_f_988_6953" x="-10.4863" y="4.31405" width="41.372" height="41.172" filterUnits="userSpaceOnUse" color-interpolation-filters="sRGB">
<feFlood flood-opacity="0" result="BackgroundImageFix"/>
<feBlend mode="normal" in="SourceGraphic" in2="BackgroundImageFix" result="shape"/>
<feGaussianBlur stdDeviation="6.743" result="effect1_foregroundBlur_988_6953"/>
</filter>
<filter id="filter3_f_988_6953" x="0.313742" y="0.513998" width="50.772" height="50.172" filterUnits="userSpaceOnUse" color-interpolation-filters="sRGB">
<feFlood flood-opacity="0" result="BackgroundImageFix"/>
<feBlend mode="normal" in="SourceGraphic" in2="BackgroundImageFix" result="shape"/>
<feGaussianBlur stdDeviation="6.743" result="effect1_foregroundBlur_988_6953"/>
</filter>
<linearGradient id="paint0_linear_988_6953" x1="16" y1="0" x2="16" y2="32" gradientUnits="userSpaceOnUse">
<stop stop-color="#252529"/>
<stop offset="1"/>
</linearGradient>
</defs>
</svg>
